G04 #@! TF.GenerationSoftware,KiCad,Pcbnew,10.0.0*
G04 #@! TF.CreationDate,2026-04-07T21:09:56+03:00*
G04 #@! TF.ProjectId,beginning-project,62656769-6e6e-4696-9e67-2d70726f6a65,rev?*
G04 #@! TF.SameCoordinates,Original*
G04 #@! TF.FileFunction,Legend,Top*
G04 #@! TF.FilePolarity,Positive*
%FSLAX46Y46*%
G04 Gerber Fmt 4.6, Leading zero omitted, Abs format (unit mm)*
G04 Created by KiCad (PCBNEW 10.0.0) date 2026-04-07 21:09:56*
%MOMM*%
%LPD*%
G01*
G04 APERTURE LIST*
%ADD10C,0.150000*%
%ADD11C,0.240000*%
%ADD12C,0.160000*%
%ADD13C,0.100000*%
%ADD14C,0.000000*%
%ADD15C,0.120000*%
G04 APERTURE END LIST*
D10*
X61814160Y-79684104D02*
X62290350Y-79684104D01*
X61718922Y-79969819D02*
X62052255Y-78969819D01*
X62052255Y-78969819D02*
X62385588Y-79969819D01*
X62576065Y-79303152D02*
X62957017Y-79303152D01*
X62718922Y-78969819D02*
X62718922Y-79826961D01*
X62718922Y-79826961D02*
X62766541Y-79922200D01*
X62766541Y-79922200D02*
X62861779Y-79969819D01*
X62861779Y-79969819D02*
X62957017Y-79969819D01*
X63290351Y-79969819D02*
X63290351Y-78969819D01*
X63718922Y-79969819D02*
X63718922Y-79446009D01*
X63718922Y-79446009D02*
X63671303Y-79350771D01*
X63671303Y-79350771D02*
X63576065Y-79303152D01*
X63576065Y-79303152D02*
X63433208Y-79303152D01*
X63433208Y-79303152D02*
X63337970Y-79350771D01*
X63337970Y-79350771D02*
X63290351Y-79398390D01*
X64576065Y-79922200D02*
X64480827Y-79969819D01*
X64480827Y-79969819D02*
X64290351Y-79969819D01*
X64290351Y-79969819D02*
X64195113Y-79922200D01*
X64195113Y-79922200D02*
X64147494Y-79826961D01*
X64147494Y-79826961D02*
X64147494Y-79446009D01*
X64147494Y-79446009D02*
X64195113Y-79350771D01*
X64195113Y-79350771D02*
X64290351Y-79303152D01*
X64290351Y-79303152D02*
X64480827Y-79303152D01*
X64480827Y-79303152D02*
X64576065Y-79350771D01*
X64576065Y-79350771D02*
X64623684Y-79446009D01*
X64623684Y-79446009D02*
X64623684Y-79541247D01*
X64623684Y-79541247D02*
X64147494Y-79636485D01*
X65052256Y-79303152D02*
X65052256Y-79969819D01*
X65052256Y-79398390D02*
X65099875Y-79350771D01*
X65099875Y-79350771D02*
X65195113Y-79303152D01*
X65195113Y-79303152D02*
X65337970Y-79303152D01*
X65337970Y-79303152D02*
X65433208Y-79350771D01*
X65433208Y-79350771D02*
X65480827Y-79446009D01*
X65480827Y-79446009D02*
X65480827Y-79969819D01*
X66385589Y-79969819D02*
X66385589Y-79446009D01*
X66385589Y-79446009D02*
X66337970Y-79350771D01*
X66337970Y-79350771D02*
X66242732Y-79303152D01*
X66242732Y-79303152D02*
X66052256Y-79303152D01*
X66052256Y-79303152D02*
X65957018Y-79350771D01*
X66385589Y-79922200D02*
X66290351Y-79969819D01*
X66290351Y-79969819D02*
X66052256Y-79969819D01*
X66052256Y-79969819D02*
X65957018Y-79922200D01*
X65957018Y-79922200D02*
X65909399Y-79826961D01*
X65909399Y-79826961D02*
X65909399Y-79731723D01*
X65909399Y-79731723D02*
X65957018Y-79636485D01*
X65957018Y-79636485D02*
X66052256Y-79588866D01*
X66052256Y-79588866D02*
X66290351Y-79588866D01*
X66290351Y-79588866D02*
X66385589Y-79541247D01*
D11*
X66135714Y-83433729D02*
X66135714Y-82233729D01*
X66135714Y-82233729D02*
X66421428Y-82233729D01*
X66421428Y-82233729D02*
X66592857Y-82290872D01*
X66592857Y-82290872D02*
X66707142Y-82405158D01*
X66707142Y-82405158D02*
X66764285Y-82519444D01*
X66764285Y-82519444D02*
X66821428Y-82748015D01*
X66821428Y-82748015D02*
X66821428Y-82919444D01*
X66821428Y-82919444D02*
X66764285Y-83148015D01*
X66764285Y-83148015D02*
X66707142Y-83262301D01*
X66707142Y-83262301D02*
X66592857Y-83376587D01*
X66592857Y-83376587D02*
X66421428Y-83433729D01*
X66421428Y-83433729D02*
X66135714Y-83433729D01*
X67335714Y-83433729D02*
X67335714Y-82233729D01*
X68135714Y-82862301D02*
X68135714Y-83433729D01*
X67735714Y-82233729D02*
X68135714Y-82862301D01*
X68135714Y-82862301D02*
X68535714Y-82233729D01*
X65107143Y-85308520D02*
X65278572Y-85365662D01*
X65278572Y-85365662D02*
X65564286Y-85365662D01*
X65564286Y-85365662D02*
X65678572Y-85308520D01*
X65678572Y-85308520D02*
X65735714Y-85251377D01*
X65735714Y-85251377D02*
X65792857Y-85137091D01*
X65792857Y-85137091D02*
X65792857Y-85022805D01*
X65792857Y-85022805D02*
X65735714Y-84908520D01*
X65735714Y-84908520D02*
X65678572Y-84851377D01*
X65678572Y-84851377D02*
X65564286Y-84794234D01*
X65564286Y-84794234D02*
X65335714Y-84737091D01*
X65335714Y-84737091D02*
X65221429Y-84679948D01*
X65221429Y-84679948D02*
X65164286Y-84622805D01*
X65164286Y-84622805D02*
X65107143Y-84508520D01*
X65107143Y-84508520D02*
X65107143Y-84394234D01*
X65107143Y-84394234D02*
X65164286Y-84279948D01*
X65164286Y-84279948D02*
X65221429Y-84222805D01*
X65221429Y-84222805D02*
X65335714Y-84165662D01*
X65335714Y-84165662D02*
X65621429Y-84165662D01*
X65621429Y-84165662D02*
X65792857Y-84222805D01*
X66307143Y-85365662D02*
X66307143Y-84165662D01*
X66307143Y-84165662D02*
X66764286Y-84165662D01*
X66764286Y-84165662D02*
X66878571Y-84222805D01*
X66878571Y-84222805D02*
X66935714Y-84279948D01*
X66935714Y-84279948D02*
X66992857Y-84394234D01*
X66992857Y-84394234D02*
X66992857Y-84565662D01*
X66992857Y-84565662D02*
X66935714Y-84679948D01*
X66935714Y-84679948D02*
X66878571Y-84737091D01*
X66878571Y-84737091D02*
X66764286Y-84794234D01*
X66764286Y-84794234D02*
X66307143Y-84794234D01*
X67735714Y-84165662D02*
X67964286Y-84165662D01*
X67964286Y-84165662D02*
X68078571Y-84222805D01*
X68078571Y-84222805D02*
X68192857Y-84337091D01*
X68192857Y-84337091D02*
X68250000Y-84565662D01*
X68250000Y-84565662D02*
X68250000Y-84965662D01*
X68250000Y-84965662D02*
X68192857Y-85194234D01*
X68192857Y-85194234D02*
X68078571Y-85308520D01*
X68078571Y-85308520D02*
X67964286Y-85365662D01*
X67964286Y-85365662D02*
X67735714Y-85365662D01*
X67735714Y-85365662D02*
X67621429Y-85308520D01*
X67621429Y-85308520D02*
X67507143Y-85194234D01*
X67507143Y-85194234D02*
X67450000Y-84965662D01*
X67450000Y-84965662D02*
X67450000Y-84565662D01*
X67450000Y-84565662D02*
X67507143Y-84337091D01*
X67507143Y-84337091D02*
X67621429Y-84222805D01*
X67621429Y-84222805D02*
X67735714Y-84165662D01*
X68707143Y-84279948D02*
X68764286Y-84222805D01*
X68764286Y-84222805D02*
X68878572Y-84165662D01*
X68878572Y-84165662D02*
X69164286Y-84165662D01*
X69164286Y-84165662D02*
X69278572Y-84222805D01*
X69278572Y-84222805D02*
X69335714Y-84279948D01*
X69335714Y-84279948D02*
X69392857Y-84394234D01*
X69392857Y-84394234D02*
X69392857Y-84508520D01*
X69392857Y-84508520D02*
X69335714Y-84679948D01*
X69335714Y-84679948D02*
X68650000Y-85365662D01*
X68650000Y-85365662D02*
X69392857Y-85365662D01*
X59997179Y-86865662D02*
X60111465Y-86865662D01*
X60111465Y-86865662D02*
X60225751Y-86922805D01*
X60225751Y-86922805D02*
X60282894Y-86979948D01*
X60282894Y-86979948D02*
X60340036Y-87094234D01*
X60340036Y-87094234D02*
X60397179Y-87322805D01*
X60397179Y-87322805D02*
X60397179Y-87608520D01*
X60397179Y-87608520D02*
X60340036Y-87837091D01*
X60340036Y-87837091D02*
X60282894Y-87951377D01*
X60282894Y-87951377D02*
X60225751Y-88008520D01*
X60225751Y-88008520D02*
X60111465Y-88065662D01*
X60111465Y-88065662D02*
X59997179Y-88065662D01*
X59997179Y-88065662D02*
X59882894Y-88008520D01*
X59882894Y-88008520D02*
X59825751Y-87951377D01*
X59825751Y-87951377D02*
X59768608Y-87837091D01*
X59768608Y-87837091D02*
X59711465Y-87608520D01*
X59711465Y-87608520D02*
X59711465Y-87322805D01*
X59711465Y-87322805D02*
X59768608Y-87094234D01*
X59768608Y-87094234D02*
X59825751Y-86979948D01*
X59825751Y-86979948D02*
X59882894Y-86922805D01*
X59882894Y-86922805D02*
X59997179Y-86865662D01*
X60797179Y-86865662D02*
X61597179Y-86865662D01*
X61597179Y-86865662D02*
X61082893Y-88065662D01*
X62054322Y-87951377D02*
X62111465Y-88008520D01*
X62111465Y-88008520D02*
X62054322Y-88065662D01*
X62054322Y-88065662D02*
X61997179Y-88008520D01*
X61997179Y-88008520D02*
X62054322Y-87951377D01*
X62054322Y-87951377D02*
X62054322Y-88065662D01*
X62854322Y-86865662D02*
X62968608Y-86865662D01*
X62968608Y-86865662D02*
X63082894Y-86922805D01*
X63082894Y-86922805D02*
X63140037Y-86979948D01*
X63140037Y-86979948D02*
X63197179Y-87094234D01*
X63197179Y-87094234D02*
X63254322Y-87322805D01*
X63254322Y-87322805D02*
X63254322Y-87608520D01*
X63254322Y-87608520D02*
X63197179Y-87837091D01*
X63197179Y-87837091D02*
X63140037Y-87951377D01*
X63140037Y-87951377D02*
X63082894Y-88008520D01*
X63082894Y-88008520D02*
X62968608Y-88065662D01*
X62968608Y-88065662D02*
X62854322Y-88065662D01*
X62854322Y-88065662D02*
X62740037Y-88008520D01*
X62740037Y-88008520D02*
X62682894Y-87951377D01*
X62682894Y-87951377D02*
X62625751Y-87837091D01*
X62625751Y-87837091D02*
X62568608Y-87608520D01*
X62568608Y-87608520D02*
X62568608Y-87322805D01*
X62568608Y-87322805D02*
X62625751Y-87094234D01*
X62625751Y-87094234D02*
X62682894Y-86979948D01*
X62682894Y-86979948D02*
X62740037Y-86922805D01*
X62740037Y-86922805D02*
X62854322Y-86865662D01*
X64282894Y-87265662D02*
X64282894Y-88065662D01*
X63997179Y-86808520D02*
X63711465Y-87665662D01*
X63711465Y-87665662D02*
X64454322Y-87665662D01*
X64911465Y-87951377D02*
X64968608Y-88008520D01*
X64968608Y-88008520D02*
X64911465Y-88065662D01*
X64911465Y-88065662D02*
X64854322Y-88008520D01*
X64854322Y-88008520D02*
X64911465Y-87951377D01*
X64911465Y-87951377D02*
X64911465Y-88065662D01*
X65425751Y-86979948D02*
X65482894Y-86922805D01*
X65482894Y-86922805D02*
X65597180Y-86865662D01*
X65597180Y-86865662D02*
X65882894Y-86865662D01*
X65882894Y-86865662D02*
X65997180Y-86922805D01*
X65997180Y-86922805D02*
X66054322Y-86979948D01*
X66054322Y-86979948D02*
X66111465Y-87094234D01*
X66111465Y-87094234D02*
X66111465Y-87208520D01*
X66111465Y-87208520D02*
X66054322Y-87379948D01*
X66054322Y-87379948D02*
X65368608Y-88065662D01*
X65368608Y-88065662D02*
X66111465Y-88065662D01*
X66854322Y-86865662D02*
X66968608Y-86865662D01*
X66968608Y-86865662D02*
X67082894Y-86922805D01*
X67082894Y-86922805D02*
X67140037Y-86979948D01*
X67140037Y-86979948D02*
X67197179Y-87094234D01*
X67197179Y-87094234D02*
X67254322Y-87322805D01*
X67254322Y-87322805D02*
X67254322Y-87608520D01*
X67254322Y-87608520D02*
X67197179Y-87837091D01*
X67197179Y-87837091D02*
X67140037Y-87951377D01*
X67140037Y-87951377D02*
X67082894Y-88008520D01*
X67082894Y-88008520D02*
X66968608Y-88065662D01*
X66968608Y-88065662D02*
X66854322Y-88065662D01*
X66854322Y-88065662D02*
X66740037Y-88008520D01*
X66740037Y-88008520D02*
X66682894Y-87951377D01*
X66682894Y-87951377D02*
X66625751Y-87837091D01*
X66625751Y-87837091D02*
X66568608Y-87608520D01*
X66568608Y-87608520D02*
X66568608Y-87322805D01*
X66568608Y-87322805D02*
X66625751Y-87094234D01*
X66625751Y-87094234D02*
X66682894Y-86979948D01*
X66682894Y-86979948D02*
X66740037Y-86922805D01*
X66740037Y-86922805D02*
X66854322Y-86865662D01*
X67711465Y-86979948D02*
X67768608Y-86922805D01*
X67768608Y-86922805D02*
X67882894Y-86865662D01*
X67882894Y-86865662D02*
X68168608Y-86865662D01*
X68168608Y-86865662D02*
X68282894Y-86922805D01*
X68282894Y-86922805D02*
X68340036Y-86979948D01*
X68340036Y-86979948D02*
X68397179Y-87094234D01*
X68397179Y-87094234D02*
X68397179Y-87208520D01*
X68397179Y-87208520D02*
X68340036Y-87379948D01*
X68340036Y-87379948D02*
X67654322Y-88065662D01*
X67654322Y-88065662D02*
X68397179Y-88065662D01*
X69425751Y-86865662D02*
X69197179Y-86865662D01*
X69197179Y-86865662D02*
X69082893Y-86922805D01*
X69082893Y-86922805D02*
X69025751Y-86979948D01*
X69025751Y-86979948D02*
X68911465Y-87151377D01*
X68911465Y-87151377D02*
X68854322Y-87379948D01*
X68854322Y-87379948D02*
X68854322Y-87837091D01*
X68854322Y-87837091D02*
X68911465Y-87951377D01*
X68911465Y-87951377D02*
X68968608Y-88008520D01*
X68968608Y-88008520D02*
X69082893Y-88065662D01*
X69082893Y-88065662D02*
X69311465Y-88065662D01*
X69311465Y-88065662D02*
X69425751Y-88008520D01*
X69425751Y-88008520D02*
X69482893Y-87951377D01*
X69482893Y-87951377D02*
X69540036Y-87837091D01*
X69540036Y-87837091D02*
X69540036Y-87551377D01*
X69540036Y-87551377D02*
X69482893Y-87437091D01*
X69482893Y-87437091D02*
X69425751Y-87379948D01*
X69425751Y-87379948D02*
X69311465Y-87322805D01*
X69311465Y-87322805D02*
X69082893Y-87322805D01*
X69082893Y-87322805D02*
X68968608Y-87379948D01*
X68968608Y-87379948D02*
X68911465Y-87437091D01*
X68911465Y-87437091D02*
X68854322Y-87551377D01*
D12*
X116664786Y-46693775D02*
X116207643Y-46693775D01*
X116436215Y-46693775D02*
X116436215Y-45893775D01*
X116436215Y-45893775D02*
X116360024Y-46008060D01*
X116360024Y-46008060D02*
X116283834Y-46084251D01*
X116283834Y-46084251D02*
X116207643Y-46122346D01*
X117007644Y-46693775D02*
X117007644Y-45893775D01*
X117464787Y-46693775D02*
X117121929Y-46236632D01*
X117464787Y-45893775D02*
X117007644Y-46350918D01*
X118468775Y-80660213D02*
X118468775Y-81117356D01*
X118468775Y-80888784D02*
X117668775Y-80888784D01*
X117668775Y-80888784D02*
X117783060Y-80964975D01*
X117783060Y-80964975D02*
X117859251Y-81041165D01*
X117859251Y-81041165D02*
X117897346Y-81117356D01*
X118468775Y-80317355D02*
X117668775Y-80317355D01*
X118468775Y-79860212D02*
X118011632Y-80203070D01*
X117668775Y-79860212D02*
X118125918Y-80317355D01*
X119218775Y-57435213D02*
X119218775Y-57892356D01*
X119218775Y-57663784D02*
X118418775Y-57663784D01*
X118418775Y-57663784D02*
X118533060Y-57739975D01*
X118533060Y-57739975D02*
X118609251Y-57816165D01*
X118609251Y-57816165D02*
X118647346Y-57892356D01*
X119218775Y-57092355D02*
X118418775Y-57092355D01*
X119218775Y-56635212D02*
X118761632Y-56978070D01*
X118418775Y-56635212D02*
X118875918Y-57092355D01*
X118868775Y-68810213D02*
X118868775Y-69267356D01*
X118868775Y-69038784D02*
X118068775Y-69038784D01*
X118068775Y-69038784D02*
X118183060Y-69114975D01*
X118183060Y-69114975D02*
X118259251Y-69191165D01*
X118259251Y-69191165D02*
X118297346Y-69267356D01*
X118868775Y-68467355D02*
X118068775Y-68467355D01*
X118868775Y-68010212D02*
X118411632Y-68353070D01*
X118068775Y-68010212D02*
X118525918Y-68467355D01*
X114618775Y-57435213D02*
X114618775Y-57892356D01*
X114618775Y-57663784D02*
X113818775Y-57663784D01*
X113818775Y-57663784D02*
X113933060Y-57739975D01*
X113933060Y-57739975D02*
X114009251Y-57816165D01*
X114009251Y-57816165D02*
X114047346Y-57892356D01*
X113818775Y-56939974D02*
X113818775Y-56863784D01*
X113818775Y-56863784D02*
X113856870Y-56787593D01*
X113856870Y-56787593D02*
X113894965Y-56749498D01*
X113894965Y-56749498D02*
X113971156Y-56711403D01*
X113971156Y-56711403D02*
X114123537Y-56673308D01*
X114123537Y-56673308D02*
X114314013Y-56673308D01*
X114314013Y-56673308D02*
X114466394Y-56711403D01*
X114466394Y-56711403D02*
X114542584Y-56749498D01*
X114542584Y-56749498D02*
X114580680Y-56787593D01*
X114580680Y-56787593D02*
X114618775Y-56863784D01*
X114618775Y-56863784D02*
X114618775Y-56939974D01*
X114618775Y-56939974D02*
X114580680Y-57016165D01*
X114580680Y-57016165D02*
X114542584Y-57054260D01*
X114542584Y-57054260D02*
X114466394Y-57092355D01*
X114466394Y-57092355D02*
X114314013Y-57130451D01*
X114314013Y-57130451D02*
X114123537Y-57130451D01*
X114123537Y-57130451D02*
X113971156Y-57092355D01*
X113971156Y-57092355D02*
X113894965Y-57054260D01*
X113894965Y-57054260D02*
X113856870Y-57016165D01*
X113856870Y-57016165D02*
X113818775Y-56939974D01*
X113818775Y-56178069D02*
X113818775Y-56101879D01*
X113818775Y-56101879D02*
X113856870Y-56025688D01*
X113856870Y-56025688D02*
X113894965Y-55987593D01*
X113894965Y-55987593D02*
X113971156Y-55949498D01*
X113971156Y-55949498D02*
X114123537Y-55911403D01*
X114123537Y-55911403D02*
X114314013Y-55911403D01*
X114314013Y-55911403D02*
X114466394Y-55949498D01*
X114466394Y-55949498D02*
X114542584Y-55987593D01*
X114542584Y-55987593D02*
X114580680Y-56025688D01*
X114580680Y-56025688D02*
X114618775Y-56101879D01*
X114618775Y-56101879D02*
X114618775Y-56178069D01*
X114618775Y-56178069D02*
X114580680Y-56254260D01*
X114580680Y-56254260D02*
X114542584Y-56292355D01*
X114542584Y-56292355D02*
X114466394Y-56330450D01*
X114466394Y-56330450D02*
X114314013Y-56368546D01*
X114314013Y-56368546D02*
X114123537Y-56368546D01*
X114123537Y-56368546D02*
X113971156Y-56330450D01*
X113971156Y-56330450D02*
X113894965Y-56292355D01*
X113894965Y-56292355D02*
X113856870Y-56254260D01*
X113856870Y-56254260D02*
X113818775Y-56178069D01*
X114085441Y-55568545D02*
X114618775Y-55568545D01*
X114161632Y-55568545D02*
X114123537Y-55530450D01*
X114123537Y-55530450D02*
X114085441Y-55454260D01*
X114085441Y-55454260D02*
X114085441Y-55339974D01*
X114085441Y-55339974D02*
X114123537Y-55263783D01*
X114123537Y-55263783D02*
X114199727Y-55225688D01*
X114199727Y-55225688D02*
X114618775Y-55225688D01*
X114343775Y-68935213D02*
X114343775Y-69392356D01*
X114343775Y-69163784D02*
X113543775Y-69163784D01*
X113543775Y-69163784D02*
X113658060Y-69239975D01*
X113658060Y-69239975D02*
X113734251Y-69316165D01*
X113734251Y-69316165D02*
X113772346Y-69392356D01*
X113543775Y-68439974D02*
X113543775Y-68363784D01*
X113543775Y-68363784D02*
X113581870Y-68287593D01*
X113581870Y-68287593D02*
X113619965Y-68249498D01*
X113619965Y-68249498D02*
X113696156Y-68211403D01*
X113696156Y-68211403D02*
X113848537Y-68173308D01*
X113848537Y-68173308D02*
X114039013Y-68173308D01*
X114039013Y-68173308D02*
X114191394Y-68211403D01*
X114191394Y-68211403D02*
X114267584Y-68249498D01*
X114267584Y-68249498D02*
X114305680Y-68287593D01*
X114305680Y-68287593D02*
X114343775Y-68363784D01*
X114343775Y-68363784D02*
X114343775Y-68439974D01*
X114343775Y-68439974D02*
X114305680Y-68516165D01*
X114305680Y-68516165D02*
X114267584Y-68554260D01*
X114267584Y-68554260D02*
X114191394Y-68592355D01*
X114191394Y-68592355D02*
X114039013Y-68630451D01*
X114039013Y-68630451D02*
X113848537Y-68630451D01*
X113848537Y-68630451D02*
X113696156Y-68592355D01*
X113696156Y-68592355D02*
X113619965Y-68554260D01*
X113619965Y-68554260D02*
X113581870Y-68516165D01*
X113581870Y-68516165D02*
X113543775Y-68439974D01*
X113543775Y-67678069D02*
X113543775Y-67601879D01*
X113543775Y-67601879D02*
X113581870Y-67525688D01*
X113581870Y-67525688D02*
X113619965Y-67487593D01*
X113619965Y-67487593D02*
X113696156Y-67449498D01*
X113696156Y-67449498D02*
X113848537Y-67411403D01*
X113848537Y-67411403D02*
X114039013Y-67411403D01*
X114039013Y-67411403D02*
X114191394Y-67449498D01*
X114191394Y-67449498D02*
X114267584Y-67487593D01*
X114267584Y-67487593D02*
X114305680Y-67525688D01*
X114305680Y-67525688D02*
X114343775Y-67601879D01*
X114343775Y-67601879D02*
X114343775Y-67678069D01*
X114343775Y-67678069D02*
X114305680Y-67754260D01*
X114305680Y-67754260D02*
X114267584Y-67792355D01*
X114267584Y-67792355D02*
X114191394Y-67830450D01*
X114191394Y-67830450D02*
X114039013Y-67868546D01*
X114039013Y-67868546D02*
X113848537Y-67868546D01*
X113848537Y-67868546D02*
X113696156Y-67830450D01*
X113696156Y-67830450D02*
X113619965Y-67792355D01*
X113619965Y-67792355D02*
X113581870Y-67754260D01*
X113581870Y-67754260D02*
X113543775Y-67678069D01*
X113810441Y-67068545D02*
X114343775Y-67068545D01*
X113886632Y-67068545D02*
X113848537Y-67030450D01*
X113848537Y-67030450D02*
X113810441Y-66954260D01*
X113810441Y-66954260D02*
X113810441Y-66839974D01*
X113810441Y-66839974D02*
X113848537Y-66763783D01*
X113848537Y-66763783D02*
X113924727Y-66725688D01*
X113924727Y-66725688D02*
X114343775Y-66725688D01*
X114093775Y-81185213D02*
X114093775Y-81642356D01*
X114093775Y-81413784D02*
X113293775Y-81413784D01*
X113293775Y-81413784D02*
X113408060Y-81489975D01*
X113408060Y-81489975D02*
X113484251Y-81566165D01*
X113484251Y-81566165D02*
X113522346Y-81642356D01*
X113293775Y-80689974D02*
X113293775Y-80613784D01*
X113293775Y-80613784D02*
X113331870Y-80537593D01*
X113331870Y-80537593D02*
X113369965Y-80499498D01*
X113369965Y-80499498D02*
X113446156Y-80461403D01*
X113446156Y-80461403D02*
X113598537Y-80423308D01*
X113598537Y-80423308D02*
X113789013Y-80423308D01*
X113789013Y-80423308D02*
X113941394Y-80461403D01*
X113941394Y-80461403D02*
X114017584Y-80499498D01*
X114017584Y-80499498D02*
X114055680Y-80537593D01*
X114055680Y-80537593D02*
X114093775Y-80613784D01*
X114093775Y-80613784D02*
X114093775Y-80689974D01*
X114093775Y-80689974D02*
X114055680Y-80766165D01*
X114055680Y-80766165D02*
X114017584Y-80804260D01*
X114017584Y-80804260D02*
X113941394Y-80842355D01*
X113941394Y-80842355D02*
X113789013Y-80880451D01*
X113789013Y-80880451D02*
X113598537Y-80880451D01*
X113598537Y-80880451D02*
X113446156Y-80842355D01*
X113446156Y-80842355D02*
X113369965Y-80804260D01*
X113369965Y-80804260D02*
X113331870Y-80766165D01*
X113331870Y-80766165D02*
X113293775Y-80689974D01*
X113293775Y-79928069D02*
X113293775Y-79851879D01*
X113293775Y-79851879D02*
X113331870Y-79775688D01*
X113331870Y-79775688D02*
X113369965Y-79737593D01*
X113369965Y-79737593D02*
X113446156Y-79699498D01*
X113446156Y-79699498D02*
X113598537Y-79661403D01*
X113598537Y-79661403D02*
X113789013Y-79661403D01*
X113789013Y-79661403D02*
X113941394Y-79699498D01*
X113941394Y-79699498D02*
X114017584Y-79737593D01*
X114017584Y-79737593D02*
X114055680Y-79775688D01*
X114055680Y-79775688D02*
X114093775Y-79851879D01*
X114093775Y-79851879D02*
X114093775Y-79928069D01*
X114093775Y-79928069D02*
X114055680Y-80004260D01*
X114055680Y-80004260D02*
X114017584Y-80042355D01*
X114017584Y-80042355D02*
X113941394Y-80080450D01*
X113941394Y-80080450D02*
X113789013Y-80118546D01*
X113789013Y-80118546D02*
X113598537Y-80118546D01*
X113598537Y-80118546D02*
X113446156Y-80080450D01*
X113446156Y-80080450D02*
X113369965Y-80042355D01*
X113369965Y-80042355D02*
X113331870Y-80004260D01*
X113331870Y-80004260D02*
X113293775Y-79928069D01*
X113560441Y-79318545D02*
X114093775Y-79318545D01*
X113636632Y-79318545D02*
X113598537Y-79280450D01*
X113598537Y-79280450D02*
X113560441Y-79204260D01*
X113560441Y-79204260D02*
X113560441Y-79089974D01*
X113560441Y-79089974D02*
X113598537Y-79013783D01*
X113598537Y-79013783D02*
X113674727Y-78975688D01*
X113674727Y-78975688D02*
X114093775Y-78975688D01*
D13*
X76263884Y-85982419D02*
X76263884Y-84982419D01*
X76263884Y-84982419D02*
X76597217Y-85696704D01*
X76597217Y-85696704D02*
X76930550Y-84982419D01*
X76930550Y-84982419D02*
X76930550Y-85982419D01*
X77359122Y-85696704D02*
X77835312Y-85696704D01*
X77263884Y-85982419D02*
X77597217Y-84982419D01*
X77597217Y-84982419D02*
X77930550Y-85982419D01*
X78168646Y-84982419D02*
X78835312Y-85982419D01*
X78835312Y-84982419D02*
X78168646Y-85982419D01*
X79121027Y-84982419D02*
X79740074Y-84982419D01*
X79740074Y-84982419D02*
X79406741Y-85363371D01*
X79406741Y-85363371D02*
X79549598Y-85363371D01*
X79549598Y-85363371D02*
X79644836Y-85410990D01*
X79644836Y-85410990D02*
X79692455Y-85458609D01*
X79692455Y-85458609D02*
X79740074Y-85553847D01*
X79740074Y-85553847D02*
X79740074Y-85791942D01*
X79740074Y-85791942D02*
X79692455Y-85887180D01*
X79692455Y-85887180D02*
X79644836Y-85934800D01*
X79644836Y-85934800D02*
X79549598Y-85982419D01*
X79549598Y-85982419D02*
X79263884Y-85982419D01*
X79263884Y-85982419D02*
X79168646Y-85934800D01*
X79168646Y-85934800D02*
X79121027Y-85887180D01*
X80359122Y-84982419D02*
X80454360Y-84982419D01*
X80454360Y-84982419D02*
X80549598Y-85030038D01*
X80549598Y-85030038D02*
X80597217Y-85077657D01*
X80597217Y-85077657D02*
X80644836Y-85172895D01*
X80644836Y-85172895D02*
X80692455Y-85363371D01*
X80692455Y-85363371D02*
X80692455Y-85601466D01*
X80692455Y-85601466D02*
X80644836Y-85791942D01*
X80644836Y-85791942D02*
X80597217Y-85887180D01*
X80597217Y-85887180D02*
X80549598Y-85934800D01*
X80549598Y-85934800D02*
X80454360Y-85982419D01*
X80454360Y-85982419D02*
X80359122Y-85982419D01*
X80359122Y-85982419D02*
X80263884Y-85934800D01*
X80263884Y-85934800D02*
X80216265Y-85887180D01*
X80216265Y-85887180D02*
X80168646Y-85791942D01*
X80168646Y-85791942D02*
X80121027Y-85601466D01*
X80121027Y-85601466D02*
X80121027Y-85363371D01*
X80121027Y-85363371D02*
X80168646Y-85172895D01*
X80168646Y-85172895D02*
X80216265Y-85077657D01*
X80216265Y-85077657D02*
X80263884Y-85030038D01*
X80263884Y-85030038D02*
X80359122Y-84982419D01*
X81644836Y-85982419D02*
X81073408Y-85982419D01*
X81359122Y-85982419D02*
X81359122Y-84982419D01*
X81359122Y-84982419D02*
X81263884Y-85125276D01*
X81263884Y-85125276D02*
X81168646Y-85220514D01*
X81168646Y-85220514D02*
X81073408Y-85268133D01*
X82263884Y-84982419D02*
X82359122Y-84982419D01*
X82359122Y-84982419D02*
X82454360Y-85030038D01*
X82454360Y-85030038D02*
X82501979Y-85077657D01*
X82501979Y-85077657D02*
X82549598Y-85172895D01*
X82549598Y-85172895D02*
X82597217Y-85363371D01*
X82597217Y-85363371D02*
X82597217Y-85601466D01*
X82597217Y-85601466D02*
X82549598Y-85791942D01*
X82549598Y-85791942D02*
X82501979Y-85887180D01*
X82501979Y-85887180D02*
X82454360Y-85934800D01*
X82454360Y-85934800D02*
X82359122Y-85982419D01*
X82359122Y-85982419D02*
X82263884Y-85982419D01*
X82263884Y-85982419D02*
X82168646Y-85934800D01*
X82168646Y-85934800D02*
X82121027Y-85887180D01*
X82121027Y-85887180D02*
X82073408Y-85791942D01*
X82073408Y-85791942D02*
X82025789Y-85601466D01*
X82025789Y-85601466D02*
X82025789Y-85363371D01*
X82025789Y-85363371D02*
X82073408Y-85172895D01*
X82073408Y-85172895D02*
X82121027Y-85077657D01*
X82121027Y-85077657D02*
X82168646Y-85030038D01*
X82168646Y-85030038D02*
X82263884Y-84982419D01*
X82978170Y-85077657D02*
X83025789Y-85030038D01*
X83025789Y-85030038D02*
X83121027Y-84982419D01*
X83121027Y-84982419D02*
X83359122Y-84982419D01*
X83359122Y-84982419D02*
X83454360Y-85030038D01*
X83454360Y-85030038D02*
X83501979Y-85077657D01*
X83501979Y-85077657D02*
X83549598Y-85172895D01*
X83549598Y-85172895D02*
X83549598Y-85268133D01*
X83549598Y-85268133D02*
X83501979Y-85410990D01*
X83501979Y-85410990D02*
X82930551Y-85982419D01*
X82930551Y-85982419D02*
X83549598Y-85982419D01*
X69336265Y-55704800D02*
X69479122Y-55752419D01*
X69479122Y-55752419D02*
X69717217Y-55752419D01*
X69717217Y-55752419D02*
X69812455Y-55704800D01*
X69812455Y-55704800D02*
X69860074Y-55657180D01*
X69860074Y-55657180D02*
X69907693Y-55561942D01*
X69907693Y-55561942D02*
X69907693Y-55466704D01*
X69907693Y-55466704D02*
X69860074Y-55371466D01*
X69860074Y-55371466D02*
X69812455Y-55323847D01*
X69812455Y-55323847D02*
X69717217Y-55276228D01*
X69717217Y-55276228D02*
X69526741Y-55228609D01*
X69526741Y-55228609D02*
X69431503Y-55180990D01*
X69431503Y-55180990D02*
X69383884Y-55133371D01*
X69383884Y-55133371D02*
X69336265Y-55038133D01*
X69336265Y-55038133D02*
X69336265Y-54942895D01*
X69336265Y-54942895D02*
X69383884Y-54847657D01*
X69383884Y-54847657D02*
X69431503Y-54800038D01*
X69431503Y-54800038D02*
X69526741Y-54752419D01*
X69526741Y-54752419D02*
X69764836Y-54752419D01*
X69764836Y-54752419D02*
X69907693Y-54800038D01*
X70288646Y-55704800D02*
X70431503Y-55752419D01*
X70431503Y-55752419D02*
X70669598Y-55752419D01*
X70669598Y-55752419D02*
X70764836Y-55704800D01*
X70764836Y-55704800D02*
X70812455Y-55657180D01*
X70812455Y-55657180D02*
X70860074Y-55561942D01*
X70860074Y-55561942D02*
X70860074Y-55466704D01*
X70860074Y-55466704D02*
X70812455Y-55371466D01*
X70812455Y-55371466D02*
X70764836Y-55323847D01*
X70764836Y-55323847D02*
X70669598Y-55276228D01*
X70669598Y-55276228D02*
X70479122Y-55228609D01*
X70479122Y-55228609D02*
X70383884Y-55180990D01*
X70383884Y-55180990D02*
X70336265Y-55133371D01*
X70336265Y-55133371D02*
X70288646Y-55038133D01*
X70288646Y-55038133D02*
X70288646Y-54942895D01*
X70288646Y-54942895D02*
X70336265Y-54847657D01*
X70336265Y-54847657D02*
X70383884Y-54800038D01*
X70383884Y-54800038D02*
X70479122Y-54752419D01*
X70479122Y-54752419D02*
X70717217Y-54752419D01*
X70717217Y-54752419D02*
X70860074Y-54800038D01*
X71288646Y-55752419D02*
X71288646Y-54752419D01*
X71288646Y-54752419D02*
X71526741Y-54752419D01*
X71526741Y-54752419D02*
X71669598Y-54800038D01*
X71669598Y-54800038D02*
X71764836Y-54895276D01*
X71764836Y-54895276D02*
X71812455Y-54990514D01*
X71812455Y-54990514D02*
X71860074Y-55180990D01*
X71860074Y-55180990D02*
X71860074Y-55323847D01*
X71860074Y-55323847D02*
X71812455Y-55514323D01*
X71812455Y-55514323D02*
X71764836Y-55609561D01*
X71764836Y-55609561D02*
X71669598Y-55704800D01*
X71669598Y-55704800D02*
X71526741Y-55752419D01*
X71526741Y-55752419D02*
X71288646Y-55752419D01*
X72812455Y-55752419D02*
X72241027Y-55752419D01*
X72526741Y-55752419D02*
X72526741Y-54752419D01*
X72526741Y-54752419D02*
X72431503Y-54895276D01*
X72431503Y-54895276D02*
X72336265Y-54990514D01*
X72336265Y-54990514D02*
X72241027Y-55038133D01*
X73145789Y-54752419D02*
X73764836Y-54752419D01*
X73764836Y-54752419D02*
X73431503Y-55133371D01*
X73431503Y-55133371D02*
X73574360Y-55133371D01*
X73574360Y-55133371D02*
X73669598Y-55180990D01*
X73669598Y-55180990D02*
X73717217Y-55228609D01*
X73717217Y-55228609D02*
X73764836Y-55323847D01*
X73764836Y-55323847D02*
X73764836Y-55561942D01*
X73764836Y-55561942D02*
X73717217Y-55657180D01*
X73717217Y-55657180D02*
X73669598Y-55704800D01*
X73669598Y-55704800D02*
X73574360Y-55752419D01*
X73574360Y-55752419D02*
X73288646Y-55752419D01*
X73288646Y-55752419D02*
X73193408Y-55704800D01*
X73193408Y-55704800D02*
X73145789Y-55657180D01*
X74383884Y-54752419D02*
X74479122Y-54752419D01*
X74479122Y-54752419D02*
X74574360Y-54800038D01*
X74574360Y-54800038D02*
X74621979Y-54847657D01*
X74621979Y-54847657D02*
X74669598Y-54942895D01*
X74669598Y-54942895D02*
X74717217Y-55133371D01*
X74717217Y-55133371D02*
X74717217Y-55371466D01*
X74717217Y-55371466D02*
X74669598Y-55561942D01*
X74669598Y-55561942D02*
X74621979Y-55657180D01*
X74621979Y-55657180D02*
X74574360Y-55704800D01*
X74574360Y-55704800D02*
X74479122Y-55752419D01*
X74479122Y-55752419D02*
X74383884Y-55752419D01*
X74383884Y-55752419D02*
X74288646Y-55704800D01*
X74288646Y-55704800D02*
X74241027Y-55657180D01*
X74241027Y-55657180D02*
X74193408Y-55561942D01*
X74193408Y-55561942D02*
X74145789Y-55371466D01*
X74145789Y-55371466D02*
X74145789Y-55133371D01*
X74145789Y-55133371D02*
X74193408Y-54942895D01*
X74193408Y-54942895D02*
X74241027Y-54847657D01*
X74241027Y-54847657D02*
X74288646Y-54800038D01*
X74288646Y-54800038D02*
X74383884Y-54752419D01*
X75574360Y-54752419D02*
X75383884Y-54752419D01*
X75383884Y-54752419D02*
X75288646Y-54800038D01*
X75288646Y-54800038D02*
X75241027Y-54847657D01*
X75241027Y-54847657D02*
X75145789Y-54990514D01*
X75145789Y-54990514D02*
X75098170Y-55180990D01*
X75098170Y-55180990D02*
X75098170Y-55561942D01*
X75098170Y-55561942D02*
X75145789Y-55657180D01*
X75145789Y-55657180D02*
X75193408Y-55704800D01*
X75193408Y-55704800D02*
X75288646Y-55752419D01*
X75288646Y-55752419D02*
X75479122Y-55752419D01*
X75479122Y-55752419D02*
X75574360Y-55704800D01*
X75574360Y-55704800D02*
X75621979Y-55657180D01*
X75621979Y-55657180D02*
X75669598Y-55561942D01*
X75669598Y-55561942D02*
X75669598Y-55323847D01*
X75669598Y-55323847D02*
X75621979Y-55228609D01*
X75621979Y-55228609D02*
X75574360Y-55180990D01*
X75574360Y-55180990D02*
X75479122Y-55133371D01*
X75479122Y-55133371D02*
X75288646Y-55133371D01*
X75288646Y-55133371D02*
X75193408Y-55180990D01*
X75193408Y-55180990D02*
X75145789Y-55228609D01*
X75145789Y-55228609D02*
X75098170Y-55323847D01*
X94716265Y-65706704D02*
X95192455Y-65706704D01*
X94621027Y-65992419D02*
X94954360Y-64992419D01*
X94954360Y-64992419D02*
X95287693Y-65992419D01*
X95621027Y-65992419D02*
X95621027Y-65325752D01*
X95621027Y-65516228D02*
X95668646Y-65420990D01*
X95668646Y-65420990D02*
X95716265Y-65373371D01*
X95716265Y-65373371D02*
X95811503Y-65325752D01*
X95811503Y-65325752D02*
X95906741Y-65325752D01*
X96668646Y-65992419D02*
X96668646Y-64992419D01*
X96668646Y-65944800D02*
X96573408Y-65992419D01*
X96573408Y-65992419D02*
X96382932Y-65992419D01*
X96382932Y-65992419D02*
X96287694Y-65944800D01*
X96287694Y-65944800D02*
X96240075Y-65897180D01*
X96240075Y-65897180D02*
X96192456Y-65801942D01*
X96192456Y-65801942D02*
X96192456Y-65516228D01*
X96192456Y-65516228D02*
X96240075Y-65420990D01*
X96240075Y-65420990D02*
X96287694Y-65373371D01*
X96287694Y-65373371D02*
X96382932Y-65325752D01*
X96382932Y-65325752D02*
X96573408Y-65325752D01*
X96573408Y-65325752D02*
X96668646Y-65373371D01*
X97573408Y-65325752D02*
X97573408Y-65992419D01*
X97144837Y-65325752D02*
X97144837Y-65849561D01*
X97144837Y-65849561D02*
X97192456Y-65944800D01*
X97192456Y-65944800D02*
X97287694Y-65992419D01*
X97287694Y-65992419D02*
X97430551Y-65992419D01*
X97430551Y-65992419D02*
X97525789Y-65944800D01*
X97525789Y-65944800D02*
X97573408Y-65897180D01*
X98049599Y-65992419D02*
X98049599Y-65325752D01*
X98049599Y-64992419D02*
X98001980Y-65040038D01*
X98001980Y-65040038D02*
X98049599Y-65087657D01*
X98049599Y-65087657D02*
X98097218Y-65040038D01*
X98097218Y-65040038D02*
X98049599Y-64992419D01*
X98049599Y-64992419D02*
X98049599Y-65087657D01*
X98525789Y-65325752D02*
X98525789Y-65992419D01*
X98525789Y-65420990D02*
X98573408Y-65373371D01*
X98573408Y-65373371D02*
X98668646Y-65325752D01*
X98668646Y-65325752D02*
X98811503Y-65325752D01*
X98811503Y-65325752D02*
X98906741Y-65373371D01*
X98906741Y-65373371D02*
X98954360Y-65468609D01*
X98954360Y-65468609D02*
X98954360Y-65992419D01*
X99573408Y-65992419D02*
X99478170Y-65944800D01*
X99478170Y-65944800D02*
X99430551Y-65897180D01*
X99430551Y-65897180D02*
X99382932Y-65801942D01*
X99382932Y-65801942D02*
X99382932Y-65516228D01*
X99382932Y-65516228D02*
X99430551Y-65420990D01*
X99430551Y-65420990D02*
X99478170Y-65373371D01*
X99478170Y-65373371D02*
X99573408Y-65325752D01*
X99573408Y-65325752D02*
X99716265Y-65325752D01*
X99716265Y-65325752D02*
X99811503Y-65373371D01*
X99811503Y-65373371D02*
X99859122Y-65420990D01*
X99859122Y-65420990D02*
X99906741Y-65516228D01*
X99906741Y-65516228D02*
X99906741Y-65801942D01*
X99906741Y-65801942D02*
X99859122Y-65897180D01*
X99859122Y-65897180D02*
X99811503Y-65944800D01*
X99811503Y-65944800D02*
X99716265Y-65992419D01*
X99716265Y-65992419D02*
X99573408Y-65992419D01*
X101097218Y-65992419D02*
X101097218Y-64992419D01*
X101097218Y-64992419D02*
X101668646Y-65992419D01*
X101668646Y-65992419D02*
X101668646Y-64992419D01*
X102573408Y-65992419D02*
X102573408Y-65468609D01*
X102573408Y-65468609D02*
X102525789Y-65373371D01*
X102525789Y-65373371D02*
X102430551Y-65325752D01*
X102430551Y-65325752D02*
X102240075Y-65325752D01*
X102240075Y-65325752D02*
X102144837Y-65373371D01*
X102573408Y-65944800D02*
X102478170Y-65992419D01*
X102478170Y-65992419D02*
X102240075Y-65992419D01*
X102240075Y-65992419D02*
X102144837Y-65944800D01*
X102144837Y-65944800D02*
X102097218Y-65849561D01*
X102097218Y-65849561D02*
X102097218Y-65754323D01*
X102097218Y-65754323D02*
X102144837Y-65659085D01*
X102144837Y-65659085D02*
X102240075Y-65611466D01*
X102240075Y-65611466D02*
X102478170Y-65611466D01*
X102478170Y-65611466D02*
X102573408Y-65563847D01*
X103049599Y-65325752D02*
X103049599Y-65992419D01*
X103049599Y-65420990D02*
X103097218Y-65373371D01*
X103097218Y-65373371D02*
X103192456Y-65325752D01*
X103192456Y-65325752D02*
X103335313Y-65325752D01*
X103335313Y-65325752D02*
X103430551Y-65373371D01*
X103430551Y-65373371D02*
X103478170Y-65468609D01*
X103478170Y-65468609D02*
X103478170Y-65992419D01*
X104097218Y-65992419D02*
X104001980Y-65944800D01*
X104001980Y-65944800D02*
X103954361Y-65897180D01*
X103954361Y-65897180D02*
X103906742Y-65801942D01*
X103906742Y-65801942D02*
X103906742Y-65516228D01*
X103906742Y-65516228D02*
X103954361Y-65420990D01*
X103954361Y-65420990D02*
X104001980Y-65373371D01*
X104001980Y-65373371D02*
X104097218Y-65325752D01*
X104097218Y-65325752D02*
X104240075Y-65325752D01*
X104240075Y-65325752D02*
X104335313Y-65373371D01*
X104335313Y-65373371D02*
X104382932Y-65420990D01*
X104382932Y-65420990D02*
X104430551Y-65516228D01*
X104430551Y-65516228D02*
X104430551Y-65801942D01*
X104430551Y-65801942D02*
X104382932Y-65897180D01*
X104382932Y-65897180D02*
X104335313Y-65944800D01*
X104335313Y-65944800D02*
X104240075Y-65992419D01*
X104240075Y-65992419D02*
X104097218Y-65992419D01*
D10*
X124867143Y-50499104D02*
X125343333Y-50499104D01*
X124771905Y-50784819D02*
X125105238Y-49784819D01*
X125105238Y-49784819D02*
X125438571Y-50784819D01*
X126248095Y-50784819D02*
X125771905Y-50784819D01*
X125771905Y-50784819D02*
X125771905Y-49784819D01*
X126533810Y-50499104D02*
X127010000Y-50499104D01*
X126438572Y-50784819D02*
X126771905Y-49784819D01*
X126771905Y-49784819D02*
X127105238Y-50784819D01*
X128010000Y-50784819D02*
X127676667Y-50308628D01*
X127438572Y-50784819D02*
X127438572Y-49784819D01*
X127438572Y-49784819D02*
X127819524Y-49784819D01*
X127819524Y-49784819D02*
X127914762Y-49832438D01*
X127914762Y-49832438D02*
X127962381Y-49880057D01*
X127962381Y-49880057D02*
X128010000Y-49975295D01*
X128010000Y-49975295D02*
X128010000Y-50118152D01*
X128010000Y-50118152D02*
X127962381Y-50213390D01*
X127962381Y-50213390D02*
X127914762Y-50261009D01*
X127914762Y-50261009D02*
X127819524Y-50308628D01*
X127819524Y-50308628D02*
X127438572Y-50308628D01*
X128438572Y-50784819D02*
X128438572Y-49784819D01*
X128438572Y-49784819D02*
X128771905Y-50499104D01*
X128771905Y-50499104D02*
X129105238Y-49784819D01*
X129105238Y-49784819D02*
X129105238Y-50784819D01*
D13*
X84398095Y-88927419D02*
X84398095Y-89736942D01*
X84398095Y-89736942D02*
X84445714Y-89832180D01*
X84445714Y-89832180D02*
X84493333Y-89879800D01*
X84493333Y-89879800D02*
X84588571Y-89927419D01*
X84588571Y-89927419D02*
X84779047Y-89927419D01*
X84779047Y-89927419D02*
X84874285Y-89879800D01*
X84874285Y-89879800D02*
X84921904Y-89832180D01*
X84921904Y-89832180D02*
X84969523Y-89736942D01*
X84969523Y-89736942D02*
X84969523Y-88927419D01*
X85969523Y-89927419D02*
X85398095Y-89927419D01*
X85683809Y-89927419D02*
X85683809Y-88927419D01*
X85683809Y-88927419D02*
X85588571Y-89070276D01*
X85588571Y-89070276D02*
X85493333Y-89165514D01*
X85493333Y-89165514D02*
X85398095Y-89213133D01*
D10*
X75449819Y-79227220D02*
X74449819Y-79227220D01*
X75449819Y-78751030D02*
X74449819Y-78751030D01*
X74449819Y-78751030D02*
X75449819Y-78179602D01*
X75449819Y-78179602D02*
X74449819Y-78179602D01*
X74449819Y-77846268D02*
X74449819Y-77274840D01*
X75449819Y-77560554D02*
X74449819Y-77560554D01*
X77902200Y-79274839D02*
X77949819Y-79131982D01*
X77949819Y-79131982D02*
X77949819Y-78893887D01*
X77949819Y-78893887D02*
X77902200Y-78798649D01*
X77902200Y-78798649D02*
X77854580Y-78751030D01*
X77854580Y-78751030D02*
X77759342Y-78703411D01*
X77759342Y-78703411D02*
X77664104Y-78703411D01*
X77664104Y-78703411D02*
X77568866Y-78751030D01*
X77568866Y-78751030D02*
X77521247Y-78798649D01*
X77521247Y-78798649D02*
X77473628Y-78893887D01*
X77473628Y-78893887D02*
X77426009Y-79084363D01*
X77426009Y-79084363D02*
X77378390Y-79179601D01*
X77378390Y-79179601D02*
X77330771Y-79227220D01*
X77330771Y-79227220D02*
X77235533Y-79274839D01*
X77235533Y-79274839D02*
X77140295Y-79274839D01*
X77140295Y-79274839D02*
X77045057Y-79227220D01*
X77045057Y-79227220D02*
X76997438Y-79179601D01*
X76997438Y-79179601D02*
X76949819Y-79084363D01*
X76949819Y-79084363D02*
X76949819Y-78846268D01*
X76949819Y-78846268D02*
X76997438Y-78703411D01*
X77949819Y-78274839D02*
X76949819Y-78274839D01*
X76949819Y-78274839D02*
X76949819Y-78036744D01*
X76949819Y-78036744D02*
X76997438Y-77893887D01*
X76997438Y-77893887D02*
X77092676Y-77798649D01*
X77092676Y-77798649D02*
X77187914Y-77751030D01*
X77187914Y-77751030D02*
X77378390Y-77703411D01*
X77378390Y-77703411D02*
X77521247Y-77703411D01*
X77521247Y-77703411D02*
X77711723Y-77751030D01*
X77711723Y-77751030D02*
X77806961Y-77798649D01*
X77806961Y-77798649D02*
X77902200Y-77893887D01*
X77902200Y-77893887D02*
X77949819Y-78036744D01*
X77949819Y-78036744D02*
X77949819Y-78274839D01*
X77664104Y-77322458D02*
X77664104Y-76846268D01*
X77949819Y-77417696D02*
X76949819Y-77084363D01*
X76949819Y-77084363D02*
X77949819Y-76751030D01*
X80402200Y-79274839D02*
X80449819Y-79131982D01*
X80449819Y-79131982D02*
X80449819Y-78893887D01*
X80449819Y-78893887D02*
X80402200Y-78798649D01*
X80402200Y-78798649D02*
X80354580Y-78751030D01*
X80354580Y-78751030D02*
X80259342Y-78703411D01*
X80259342Y-78703411D02*
X80164104Y-78703411D01*
X80164104Y-78703411D02*
X80068866Y-78751030D01*
X80068866Y-78751030D02*
X80021247Y-78798649D01*
X80021247Y-78798649D02*
X79973628Y-78893887D01*
X79973628Y-78893887D02*
X79926009Y-79084363D01*
X79926009Y-79084363D02*
X79878390Y-79179601D01*
X79878390Y-79179601D02*
X79830771Y-79227220D01*
X79830771Y-79227220D02*
X79735533Y-79274839D01*
X79735533Y-79274839D02*
X79640295Y-79274839D01*
X79640295Y-79274839D02*
X79545057Y-79227220D01*
X79545057Y-79227220D02*
X79497438Y-79179601D01*
X79497438Y-79179601D02*
X79449819Y-79084363D01*
X79449819Y-79084363D02*
X79449819Y-78846268D01*
X79449819Y-78846268D02*
X79497438Y-78703411D01*
X80354580Y-77703411D02*
X80402200Y-77751030D01*
X80402200Y-77751030D02*
X80449819Y-77893887D01*
X80449819Y-77893887D02*
X80449819Y-77989125D01*
X80449819Y-77989125D02*
X80402200Y-78131982D01*
X80402200Y-78131982D02*
X80306961Y-78227220D01*
X80306961Y-78227220D02*
X80211723Y-78274839D01*
X80211723Y-78274839D02*
X80021247Y-78322458D01*
X80021247Y-78322458D02*
X79878390Y-78322458D01*
X79878390Y-78322458D02*
X79687914Y-78274839D01*
X79687914Y-78274839D02*
X79592676Y-78227220D01*
X79592676Y-78227220D02*
X79497438Y-78131982D01*
X79497438Y-78131982D02*
X79449819Y-77989125D01*
X79449819Y-77989125D02*
X79449819Y-77893887D01*
X79449819Y-77893887D02*
X79497438Y-77751030D01*
X79497438Y-77751030D02*
X79545057Y-77703411D01*
X80449819Y-76798649D02*
X80449819Y-77274839D01*
X80449819Y-77274839D02*
X79449819Y-77274839D01*
X81997438Y-78703411D02*
X81949819Y-78798649D01*
X81949819Y-78798649D02*
X81949819Y-78941506D01*
X81949819Y-78941506D02*
X81997438Y-79084363D01*
X81997438Y-79084363D02*
X82092676Y-79179601D01*
X82092676Y-79179601D02*
X82187914Y-79227220D01*
X82187914Y-79227220D02*
X82378390Y-79274839D01*
X82378390Y-79274839D02*
X82521247Y-79274839D01*
X82521247Y-79274839D02*
X82711723Y-79227220D01*
X82711723Y-79227220D02*
X82806961Y-79179601D01*
X82806961Y-79179601D02*
X82902200Y-79084363D01*
X82902200Y-79084363D02*
X82949819Y-78941506D01*
X82949819Y-78941506D02*
X82949819Y-78846268D01*
X82949819Y-78846268D02*
X82902200Y-78703411D01*
X82902200Y-78703411D02*
X82854580Y-78655792D01*
X82854580Y-78655792D02*
X82521247Y-78655792D01*
X82521247Y-78655792D02*
X82521247Y-78846268D01*
X82949819Y-78227220D02*
X81949819Y-78227220D01*
X81949819Y-78227220D02*
X82949819Y-77655792D01*
X82949819Y-77655792D02*
X81949819Y-77655792D01*
X82949819Y-77179601D02*
X81949819Y-77179601D01*
X81949819Y-77179601D02*
X81949819Y-76941506D01*
X81949819Y-76941506D02*
X81997438Y-76798649D01*
X81997438Y-76798649D02*
X82092676Y-76703411D01*
X82092676Y-76703411D02*
X82187914Y-76655792D01*
X82187914Y-76655792D02*
X82378390Y-76608173D01*
X82378390Y-76608173D02*
X82521247Y-76608173D01*
X82521247Y-76608173D02*
X82711723Y-76655792D01*
X82711723Y-76655792D02*
X82806961Y-76703411D01*
X82806961Y-76703411D02*
X82902200Y-76798649D01*
X82902200Y-76798649D02*
X82949819Y-76941506D01*
X82949819Y-76941506D02*
X82949819Y-77179601D01*
X84449819Y-79370077D02*
X85449819Y-79036744D01*
X85449819Y-79036744D02*
X84449819Y-78703411D01*
X85354580Y-77798649D02*
X85402200Y-77846268D01*
X85402200Y-77846268D02*
X85449819Y-77989125D01*
X85449819Y-77989125D02*
X85449819Y-78084363D01*
X85449819Y-78084363D02*
X85402200Y-78227220D01*
X85402200Y-78227220D02*
X85306961Y-78322458D01*
X85306961Y-78322458D02*
X85211723Y-78370077D01*
X85211723Y-78370077D02*
X85021247Y-78417696D01*
X85021247Y-78417696D02*
X84878390Y-78417696D01*
X84878390Y-78417696D02*
X84687914Y-78370077D01*
X84687914Y-78370077D02*
X84592676Y-78322458D01*
X84592676Y-78322458D02*
X84497438Y-78227220D01*
X84497438Y-78227220D02*
X84449819Y-78084363D01*
X84449819Y-78084363D02*
X84449819Y-77989125D01*
X84449819Y-77989125D02*
X84497438Y-77846268D01*
X84497438Y-77846268D02*
X84545057Y-77798649D01*
X85354580Y-76798649D02*
X85402200Y-76846268D01*
X85402200Y-76846268D02*
X85449819Y-76989125D01*
X85449819Y-76989125D02*
X85449819Y-77084363D01*
X85449819Y-77084363D02*
X85402200Y-77227220D01*
X85402200Y-77227220D02*
X85306961Y-77322458D01*
X85306961Y-77322458D02*
X85211723Y-77370077D01*
X85211723Y-77370077D02*
X85021247Y-77417696D01*
X85021247Y-77417696D02*
X84878390Y-77417696D01*
X84878390Y-77417696D02*
X84687914Y-77370077D01*
X84687914Y-77370077D02*
X84592676Y-77322458D01*
X84592676Y-77322458D02*
X84497438Y-77227220D01*
X84497438Y-77227220D02*
X84449819Y-77084363D01*
X84449819Y-77084363D02*
X84449819Y-76989125D01*
X84449819Y-76989125D02*
X84497438Y-76846268D01*
X84497438Y-76846268D02*
X84545057Y-76798649D01*
X98905714Y-88289104D02*
X99381904Y-88289104D01*
X98810476Y-88574819D02*
X99143809Y-87574819D01*
X99143809Y-87574819D02*
X99477142Y-88574819D01*
X100334285Y-88574819D02*
X99762857Y-88574819D01*
X100048571Y-88574819D02*
X100048571Y-87574819D01*
X100048571Y-87574819D02*
X99953333Y-87717676D01*
X99953333Y-87717676D02*
X99858095Y-87812914D01*
X99858095Y-87812914D02*
X99762857Y-87860533D01*
X100881904Y-48025180D02*
X100881904Y-47215657D01*
X100881904Y-47215657D02*
X100834285Y-47120419D01*
X100834285Y-47120419D02*
X100786666Y-47072800D01*
X100786666Y-47072800D02*
X100691428Y-47025180D01*
X100691428Y-47025180D02*
X100500952Y-47025180D01*
X100500952Y-47025180D02*
X100405714Y-47072800D01*
X100405714Y-47072800D02*
X100358095Y-47120419D01*
X100358095Y-47120419D02*
X100310476Y-47215657D01*
X100310476Y-47215657D02*
X100310476Y-48025180D01*
X99881904Y-47072800D02*
X99739047Y-47025180D01*
X99739047Y-47025180D02*
X99500952Y-47025180D01*
X99500952Y-47025180D02*
X99405714Y-47072800D01*
X99405714Y-47072800D02*
X99358095Y-47120419D01*
X99358095Y-47120419D02*
X99310476Y-47215657D01*
X99310476Y-47215657D02*
X99310476Y-47310895D01*
X99310476Y-47310895D02*
X99358095Y-47406133D01*
X99358095Y-47406133D02*
X99405714Y-47453752D01*
X99405714Y-47453752D02*
X99500952Y-47501371D01*
X99500952Y-47501371D02*
X99691428Y-47548990D01*
X99691428Y-47548990D02*
X99786666Y-47596609D01*
X99786666Y-47596609D02*
X99834285Y-47644228D01*
X99834285Y-47644228D02*
X99881904Y-47739466D01*
X99881904Y-47739466D02*
X99881904Y-47834704D01*
X99881904Y-47834704D02*
X99834285Y-47929942D01*
X99834285Y-47929942D02*
X99786666Y-47977561D01*
X99786666Y-47977561D02*
X99691428Y-48025180D01*
X99691428Y-48025180D02*
X99453333Y-48025180D01*
X99453333Y-48025180D02*
X99310476Y-47977561D01*
X98548571Y-47548990D02*
X98405714Y-47501371D01*
X98405714Y-47501371D02*
X98358095Y-47453752D01*
X98358095Y-47453752D02*
X98310476Y-47358514D01*
X98310476Y-47358514D02*
X98310476Y-47215657D01*
X98310476Y-47215657D02*
X98358095Y-47120419D01*
X98358095Y-47120419D02*
X98405714Y-47072800D01*
X98405714Y-47072800D02*
X98500952Y-47025180D01*
X98500952Y-47025180D02*
X98881904Y-47025180D01*
X98881904Y-47025180D02*
X98881904Y-48025180D01*
X98881904Y-48025180D02*
X98548571Y-48025180D01*
X98548571Y-48025180D02*
X98453333Y-47977561D01*
X98453333Y-47977561D02*
X98405714Y-47929942D01*
X98405714Y-47929942D02*
X98358095Y-47834704D01*
X98358095Y-47834704D02*
X98358095Y-47739466D01*
X98358095Y-47739466D02*
X98405714Y-47644228D01*
X98405714Y-47644228D02*
X98453333Y-47596609D01*
X98453333Y-47596609D02*
X98548571Y-47548990D01*
X98548571Y-47548990D02*
X98881904Y-47548990D01*
X121054819Y-80376666D02*
X120578628Y-80709999D01*
X121054819Y-80948094D02*
X120054819Y-80948094D01*
X120054819Y-80948094D02*
X120054819Y-80567142D01*
X120054819Y-80567142D02*
X120102438Y-80471904D01*
X120102438Y-80471904D02*
X120150057Y-80424285D01*
X120150057Y-80424285D02*
X120245295Y-80376666D01*
X120245295Y-80376666D02*
X120388152Y-80376666D01*
X120388152Y-80376666D02*
X120483390Y-80424285D01*
X120483390Y-80424285D02*
X120531009Y-80471904D01*
X120531009Y-80471904D02*
X120578628Y-80567142D01*
X120578628Y-80567142D02*
X120578628Y-80948094D01*
X121054819Y-79424285D02*
X121054819Y-79995713D01*
X121054819Y-79709999D02*
X120054819Y-79709999D01*
X120054819Y-79709999D02*
X120197676Y-79805237D01*
X120197676Y-79805237D02*
X120292914Y-79900475D01*
X120292914Y-79900475D02*
X120340533Y-79995713D01*
D13*
X84048095Y-70207419D02*
X84048095Y-71016942D01*
X84048095Y-71016942D02*
X84095714Y-71112180D01*
X84095714Y-71112180D02*
X84143333Y-71159800D01*
X84143333Y-71159800D02*
X84238571Y-71207419D01*
X84238571Y-71207419D02*
X84429047Y-71207419D01*
X84429047Y-71207419D02*
X84524285Y-71159800D01*
X84524285Y-71159800D02*
X84571904Y-71112180D01*
X84571904Y-71112180D02*
X84619523Y-71016942D01*
X84619523Y-71016942D02*
X84619523Y-70207419D01*
X85048095Y-70302657D02*
X85095714Y-70255038D01*
X85095714Y-70255038D02*
X85190952Y-70207419D01*
X85190952Y-70207419D02*
X85429047Y-70207419D01*
X85429047Y-70207419D02*
X85524285Y-70255038D01*
X85524285Y-70255038D02*
X85571904Y-70302657D01*
X85571904Y-70302657D02*
X85619523Y-70397895D01*
X85619523Y-70397895D02*
X85619523Y-70493133D01*
X85619523Y-70493133D02*
X85571904Y-70635990D01*
X85571904Y-70635990D02*
X85000476Y-71207419D01*
X85000476Y-71207419D02*
X85619523Y-71207419D01*
D10*
X76957200Y-46755839D02*
X77004819Y-46612982D01*
X77004819Y-46612982D02*
X77004819Y-46374887D01*
X77004819Y-46374887D02*
X76957200Y-46279649D01*
X76957200Y-46279649D02*
X76909580Y-46232030D01*
X76909580Y-46232030D02*
X76814342Y-46184411D01*
X76814342Y-46184411D02*
X76719104Y-46184411D01*
X76719104Y-46184411D02*
X76623866Y-46232030D01*
X76623866Y-46232030D02*
X76576247Y-46279649D01*
X76576247Y-46279649D02*
X76528628Y-46374887D01*
X76528628Y-46374887D02*
X76481009Y-46565363D01*
X76481009Y-46565363D02*
X76433390Y-46660601D01*
X76433390Y-46660601D02*
X76385771Y-46708220D01*
X76385771Y-46708220D02*
X76290533Y-46755839D01*
X76290533Y-46755839D02*
X76195295Y-46755839D01*
X76195295Y-46755839D02*
X76100057Y-46708220D01*
X76100057Y-46708220D02*
X76052438Y-46660601D01*
X76052438Y-46660601D02*
X76004819Y-46565363D01*
X76004819Y-46565363D02*
X76004819Y-46327268D01*
X76004819Y-46327268D02*
X76052438Y-46184411D01*
X77004819Y-45755839D02*
X76004819Y-45755839D01*
X76004819Y-45755839D02*
X76004819Y-45517744D01*
X76004819Y-45517744D02*
X76052438Y-45374887D01*
X76052438Y-45374887D02*
X76147676Y-45279649D01*
X76147676Y-45279649D02*
X76242914Y-45232030D01*
X76242914Y-45232030D02*
X76433390Y-45184411D01*
X76433390Y-45184411D02*
X76576247Y-45184411D01*
X76576247Y-45184411D02*
X76766723Y-45232030D01*
X76766723Y-45232030D02*
X76861961Y-45279649D01*
X76861961Y-45279649D02*
X76957200Y-45374887D01*
X76957200Y-45374887D02*
X77004819Y-45517744D01*
X77004819Y-45517744D02*
X77004819Y-45755839D01*
X76719104Y-44803458D02*
X76719104Y-44327268D01*
X77004819Y-44898696D02*
X76004819Y-44565363D01*
X76004819Y-44565363D02*
X77004819Y-44232030D01*
X74417200Y-46755839D02*
X74464819Y-46612982D01*
X74464819Y-46612982D02*
X74464819Y-46374887D01*
X74464819Y-46374887D02*
X74417200Y-46279649D01*
X74417200Y-46279649D02*
X74369580Y-46232030D01*
X74369580Y-46232030D02*
X74274342Y-46184411D01*
X74274342Y-46184411D02*
X74179104Y-46184411D01*
X74179104Y-46184411D02*
X74083866Y-46232030D01*
X74083866Y-46232030D02*
X74036247Y-46279649D01*
X74036247Y-46279649D02*
X73988628Y-46374887D01*
X73988628Y-46374887D02*
X73941009Y-46565363D01*
X73941009Y-46565363D02*
X73893390Y-46660601D01*
X73893390Y-46660601D02*
X73845771Y-46708220D01*
X73845771Y-46708220D02*
X73750533Y-46755839D01*
X73750533Y-46755839D02*
X73655295Y-46755839D01*
X73655295Y-46755839D02*
X73560057Y-46708220D01*
X73560057Y-46708220D02*
X73512438Y-46660601D01*
X73512438Y-46660601D02*
X73464819Y-46565363D01*
X73464819Y-46565363D02*
X73464819Y-46327268D01*
X73464819Y-46327268D02*
X73512438Y-46184411D01*
X74369580Y-45184411D02*
X74417200Y-45232030D01*
X74417200Y-45232030D02*
X74464819Y-45374887D01*
X74464819Y-45374887D02*
X74464819Y-45470125D01*
X74464819Y-45470125D02*
X74417200Y-45612982D01*
X74417200Y-45612982D02*
X74321961Y-45708220D01*
X74321961Y-45708220D02*
X74226723Y-45755839D01*
X74226723Y-45755839D02*
X74036247Y-45803458D01*
X74036247Y-45803458D02*
X73893390Y-45803458D01*
X73893390Y-45803458D02*
X73702914Y-45755839D01*
X73702914Y-45755839D02*
X73607676Y-45708220D01*
X73607676Y-45708220D02*
X73512438Y-45612982D01*
X73512438Y-45612982D02*
X73464819Y-45470125D01*
X73464819Y-45470125D02*
X73464819Y-45374887D01*
X73464819Y-45374887D02*
X73512438Y-45232030D01*
X73512438Y-45232030D02*
X73560057Y-45184411D01*
X74464819Y-44279649D02*
X74464819Y-44755839D01*
X74464819Y-44755839D02*
X73464819Y-44755839D01*
X70924819Y-46851077D02*
X71924819Y-46517744D01*
X71924819Y-46517744D02*
X70924819Y-46184411D01*
X71829580Y-45279649D02*
X71877200Y-45327268D01*
X71877200Y-45327268D02*
X71924819Y-45470125D01*
X71924819Y-45470125D02*
X71924819Y-45565363D01*
X71924819Y-45565363D02*
X71877200Y-45708220D01*
X71877200Y-45708220D02*
X71781961Y-45803458D01*
X71781961Y-45803458D02*
X71686723Y-45851077D01*
X71686723Y-45851077D02*
X71496247Y-45898696D01*
X71496247Y-45898696D02*
X71353390Y-45898696D01*
X71353390Y-45898696D02*
X71162914Y-45851077D01*
X71162914Y-45851077D02*
X71067676Y-45803458D01*
X71067676Y-45803458D02*
X70972438Y-45708220D01*
X70972438Y-45708220D02*
X70924819Y-45565363D01*
X70924819Y-45565363D02*
X70924819Y-45470125D01*
X70924819Y-45470125D02*
X70972438Y-45327268D01*
X70972438Y-45327268D02*
X71020057Y-45279649D01*
X71829580Y-44279649D02*
X71877200Y-44327268D01*
X71877200Y-44327268D02*
X71924819Y-44470125D01*
X71924819Y-44470125D02*
X71924819Y-44565363D01*
X71924819Y-44565363D02*
X71877200Y-44708220D01*
X71877200Y-44708220D02*
X71781961Y-44803458D01*
X71781961Y-44803458D02*
X71686723Y-44851077D01*
X71686723Y-44851077D02*
X71496247Y-44898696D01*
X71496247Y-44898696D02*
X71353390Y-44898696D01*
X71353390Y-44898696D02*
X71162914Y-44851077D01*
X71162914Y-44851077D02*
X71067676Y-44803458D01*
X71067676Y-44803458D02*
X70972438Y-44708220D01*
X70972438Y-44708220D02*
X70924819Y-44565363D01*
X70924819Y-44565363D02*
X70924819Y-44470125D01*
X70924819Y-44470125D02*
X70972438Y-44327268D01*
X70972438Y-44327268D02*
X71020057Y-44279649D01*
X68432438Y-46184411D02*
X68384819Y-46279649D01*
X68384819Y-46279649D02*
X68384819Y-46422506D01*
X68384819Y-46422506D02*
X68432438Y-46565363D01*
X68432438Y-46565363D02*
X68527676Y-46660601D01*
X68527676Y-46660601D02*
X68622914Y-46708220D01*
X68622914Y-46708220D02*
X68813390Y-46755839D01*
X68813390Y-46755839D02*
X68956247Y-46755839D01*
X68956247Y-46755839D02*
X69146723Y-46708220D01*
X69146723Y-46708220D02*
X69241961Y-46660601D01*
X69241961Y-46660601D02*
X69337200Y-46565363D01*
X69337200Y-46565363D02*
X69384819Y-46422506D01*
X69384819Y-46422506D02*
X69384819Y-46327268D01*
X69384819Y-46327268D02*
X69337200Y-46184411D01*
X69337200Y-46184411D02*
X69289580Y-46136792D01*
X69289580Y-46136792D02*
X68956247Y-46136792D01*
X68956247Y-46136792D02*
X68956247Y-46327268D01*
X69384819Y-45708220D02*
X68384819Y-45708220D01*
X68384819Y-45708220D02*
X69384819Y-45136792D01*
X69384819Y-45136792D02*
X68384819Y-45136792D01*
X69384819Y-44660601D02*
X68384819Y-44660601D01*
X68384819Y-44660601D02*
X68384819Y-44422506D01*
X68384819Y-44422506D02*
X68432438Y-44279649D01*
X68432438Y-44279649D02*
X68527676Y-44184411D01*
X68527676Y-44184411D02*
X68622914Y-44136792D01*
X68622914Y-44136792D02*
X68813390Y-44089173D01*
X68813390Y-44089173D02*
X68956247Y-44089173D01*
X68956247Y-44089173D02*
X69146723Y-44136792D01*
X69146723Y-44136792D02*
X69241961Y-44184411D01*
X69241961Y-44184411D02*
X69337200Y-44279649D01*
X69337200Y-44279649D02*
X69384819Y-44422506D01*
X69384819Y-44422506D02*
X69384819Y-44660601D01*
X125041667Y-53329819D02*
X125041667Y-52329819D01*
X125041667Y-52329819D02*
X125375000Y-53044104D01*
X125375000Y-53044104D02*
X125708333Y-52329819D01*
X125708333Y-52329819D02*
X125708333Y-53329819D01*
X126184524Y-52806009D02*
X126517857Y-52806009D01*
X126660714Y-53329819D02*
X126184524Y-53329819D01*
X126184524Y-53329819D02*
X126184524Y-52329819D01*
X126184524Y-52329819D02*
X126660714Y-52329819D01*
X127089286Y-53329819D02*
X127089286Y-52329819D01*
X127089286Y-52329819D02*
X127660714Y-53329819D01*
X127660714Y-53329819D02*
X127660714Y-52329819D01*
X128136905Y-52329819D02*
X128136905Y-53139342D01*
X128136905Y-53139342D02*
X128184524Y-53234580D01*
X128184524Y-53234580D02*
X128232143Y-53282200D01*
X128232143Y-53282200D02*
X128327381Y-53329819D01*
X128327381Y-53329819D02*
X128517857Y-53329819D01*
X128517857Y-53329819D02*
X128613095Y-53282200D01*
X128613095Y-53282200D02*
X128660714Y-53234580D01*
X128660714Y-53234580D02*
X128708333Y-53139342D01*
X128708333Y-53139342D02*
X128708333Y-52329819D01*
X111629580Y-80446666D02*
X111677200Y-80494285D01*
X111677200Y-80494285D02*
X111724819Y-80637142D01*
X111724819Y-80637142D02*
X111724819Y-80732380D01*
X111724819Y-80732380D02*
X111677200Y-80875237D01*
X111677200Y-80875237D02*
X111581961Y-80970475D01*
X111581961Y-80970475D02*
X111486723Y-81018094D01*
X111486723Y-81018094D02*
X111296247Y-81065713D01*
X111296247Y-81065713D02*
X111153390Y-81065713D01*
X111153390Y-81065713D02*
X110962914Y-81018094D01*
X110962914Y-81018094D02*
X110867676Y-80970475D01*
X110867676Y-80970475D02*
X110772438Y-80875237D01*
X110772438Y-80875237D02*
X110724819Y-80732380D01*
X110724819Y-80732380D02*
X110724819Y-80637142D01*
X110724819Y-80637142D02*
X110772438Y-80494285D01*
X110772438Y-80494285D02*
X110820057Y-80446666D01*
X111724819Y-79494285D02*
X111724819Y-80065713D01*
X111724819Y-79779999D02*
X110724819Y-79779999D01*
X110724819Y-79779999D02*
X110867676Y-79875237D01*
X110867676Y-79875237D02*
X110962914Y-79970475D01*
X110962914Y-79970475D02*
X111010533Y-80065713D01*
X121394819Y-68856666D02*
X120918628Y-69189999D01*
X121394819Y-69428094D02*
X120394819Y-69428094D01*
X120394819Y-69428094D02*
X120394819Y-69047142D01*
X120394819Y-69047142D02*
X120442438Y-68951904D01*
X120442438Y-68951904D02*
X120490057Y-68904285D01*
X120490057Y-68904285D02*
X120585295Y-68856666D01*
X120585295Y-68856666D02*
X120728152Y-68856666D01*
X120728152Y-68856666D02*
X120823390Y-68904285D01*
X120823390Y-68904285D02*
X120871009Y-68951904D01*
X120871009Y-68951904D02*
X120918628Y-69047142D01*
X120918628Y-69047142D02*
X120918628Y-69428094D01*
X120490057Y-68475713D02*
X120442438Y-68428094D01*
X120442438Y-68428094D02*
X120394819Y-68332856D01*
X120394819Y-68332856D02*
X120394819Y-68094761D01*
X120394819Y-68094761D02*
X120442438Y-67999523D01*
X120442438Y-67999523D02*
X120490057Y-67951904D01*
X120490057Y-67951904D02*
X120585295Y-67904285D01*
X120585295Y-67904285D02*
X120680533Y-67904285D01*
X120680533Y-67904285D02*
X120823390Y-67951904D01*
X120823390Y-67951904D02*
X121394819Y-68523332D01*
X121394819Y-68523332D02*
X121394819Y-67904285D01*
X116733333Y-44494819D02*
X116400000Y-44018628D01*
X116161905Y-44494819D02*
X116161905Y-43494819D01*
X116161905Y-43494819D02*
X116542857Y-43494819D01*
X116542857Y-43494819D02*
X116638095Y-43542438D01*
X116638095Y-43542438D02*
X116685714Y-43590057D01*
X116685714Y-43590057D02*
X116733333Y-43685295D01*
X116733333Y-43685295D02*
X116733333Y-43828152D01*
X116733333Y-43828152D02*
X116685714Y-43923390D01*
X116685714Y-43923390D02*
X116638095Y-43971009D01*
X116638095Y-43971009D02*
X116542857Y-44018628D01*
X116542857Y-44018628D02*
X116161905Y-44018628D01*
X117590476Y-43828152D02*
X117590476Y-44494819D01*
X117352381Y-43447200D02*
X117114286Y-44161485D01*
X117114286Y-44161485D02*
X117733333Y-44161485D01*
X121744819Y-57566666D02*
X121268628Y-57899999D01*
X121744819Y-58138094D02*
X120744819Y-58138094D01*
X120744819Y-58138094D02*
X120744819Y-57757142D01*
X120744819Y-57757142D02*
X120792438Y-57661904D01*
X120792438Y-57661904D02*
X120840057Y-57614285D01*
X120840057Y-57614285D02*
X120935295Y-57566666D01*
X120935295Y-57566666D02*
X121078152Y-57566666D01*
X121078152Y-57566666D02*
X121173390Y-57614285D01*
X121173390Y-57614285D02*
X121221009Y-57661904D01*
X121221009Y-57661904D02*
X121268628Y-57757142D01*
X121268628Y-57757142D02*
X121268628Y-58138094D01*
X120744819Y-57233332D02*
X120744819Y-56614285D01*
X120744819Y-56614285D02*
X121125771Y-56947618D01*
X121125771Y-56947618D02*
X121125771Y-56804761D01*
X121125771Y-56804761D02*
X121173390Y-56709523D01*
X121173390Y-56709523D02*
X121221009Y-56661904D01*
X121221009Y-56661904D02*
X121316247Y-56614285D01*
X121316247Y-56614285D02*
X121554342Y-56614285D01*
X121554342Y-56614285D02*
X121649580Y-56661904D01*
X121649580Y-56661904D02*
X121697200Y-56709523D01*
X121697200Y-56709523D02*
X121744819Y-56804761D01*
X121744819Y-56804761D02*
X121744819Y-57090475D01*
X121744819Y-57090475D02*
X121697200Y-57185713D01*
X121697200Y-57185713D02*
X121649580Y-57233332D01*
X126089286Y-64204819D02*
X126089286Y-65014342D01*
X126089286Y-65014342D02*
X126136905Y-65109580D01*
X126136905Y-65109580D02*
X126184524Y-65157200D01*
X126184524Y-65157200D02*
X126279762Y-65204819D01*
X126279762Y-65204819D02*
X126470238Y-65204819D01*
X126470238Y-65204819D02*
X126565476Y-65157200D01*
X126565476Y-65157200D02*
X126613095Y-65109580D01*
X126613095Y-65109580D02*
X126660714Y-65014342D01*
X126660714Y-65014342D02*
X126660714Y-64204819D01*
X127136905Y-65204819D02*
X127136905Y-64204819D01*
X127136905Y-64204819D02*
X127517857Y-64204819D01*
X127517857Y-64204819D02*
X127613095Y-64252438D01*
X127613095Y-64252438D02*
X127660714Y-64300057D01*
X127660714Y-64300057D02*
X127708333Y-64395295D01*
X127708333Y-64395295D02*
X127708333Y-64538152D01*
X127708333Y-64538152D02*
X127660714Y-64633390D01*
X127660714Y-64633390D02*
X127613095Y-64681009D01*
X127613095Y-64681009D02*
X127517857Y-64728628D01*
X127517857Y-64728628D02*
X127136905Y-64728628D01*
X112259580Y-56766666D02*
X112307200Y-56814285D01*
X112307200Y-56814285D02*
X112354819Y-56957142D01*
X112354819Y-56957142D02*
X112354819Y-57052380D01*
X112354819Y-57052380D02*
X112307200Y-57195237D01*
X112307200Y-57195237D02*
X112211961Y-57290475D01*
X112211961Y-57290475D02*
X112116723Y-57338094D01*
X112116723Y-57338094D02*
X111926247Y-57385713D01*
X111926247Y-57385713D02*
X111783390Y-57385713D01*
X111783390Y-57385713D02*
X111592914Y-57338094D01*
X111592914Y-57338094D02*
X111497676Y-57290475D01*
X111497676Y-57290475D02*
X111402438Y-57195237D01*
X111402438Y-57195237D02*
X111354819Y-57052380D01*
X111354819Y-57052380D02*
X111354819Y-56957142D01*
X111354819Y-56957142D02*
X111402438Y-56814285D01*
X111402438Y-56814285D02*
X111450057Y-56766666D01*
X111354819Y-56433332D02*
X111354819Y-55814285D01*
X111354819Y-55814285D02*
X111735771Y-56147618D01*
X111735771Y-56147618D02*
X111735771Y-56004761D01*
X111735771Y-56004761D02*
X111783390Y-55909523D01*
X111783390Y-55909523D02*
X111831009Y-55861904D01*
X111831009Y-55861904D02*
X111926247Y-55814285D01*
X111926247Y-55814285D02*
X112164342Y-55814285D01*
X112164342Y-55814285D02*
X112259580Y-55861904D01*
X112259580Y-55861904D02*
X112307200Y-55909523D01*
X112307200Y-55909523D02*
X112354819Y-56004761D01*
X112354819Y-56004761D02*
X112354819Y-56290475D01*
X112354819Y-56290475D02*
X112307200Y-56385713D01*
X112307200Y-56385713D02*
X112259580Y-56433332D01*
X111939580Y-68226666D02*
X111987200Y-68274285D01*
X111987200Y-68274285D02*
X112034819Y-68417142D01*
X112034819Y-68417142D02*
X112034819Y-68512380D01*
X112034819Y-68512380D02*
X111987200Y-68655237D01*
X111987200Y-68655237D02*
X111891961Y-68750475D01*
X111891961Y-68750475D02*
X111796723Y-68798094D01*
X111796723Y-68798094D02*
X111606247Y-68845713D01*
X111606247Y-68845713D02*
X111463390Y-68845713D01*
X111463390Y-68845713D02*
X111272914Y-68798094D01*
X111272914Y-68798094D02*
X111177676Y-68750475D01*
X111177676Y-68750475D02*
X111082438Y-68655237D01*
X111082438Y-68655237D02*
X111034819Y-68512380D01*
X111034819Y-68512380D02*
X111034819Y-68417142D01*
X111034819Y-68417142D02*
X111082438Y-68274285D01*
X111082438Y-68274285D02*
X111130057Y-68226666D01*
X111130057Y-67845713D02*
X111082438Y-67798094D01*
X111082438Y-67798094D02*
X111034819Y-67702856D01*
X111034819Y-67702856D02*
X111034819Y-67464761D01*
X111034819Y-67464761D02*
X111082438Y-67369523D01*
X111082438Y-67369523D02*
X111130057Y-67321904D01*
X111130057Y-67321904D02*
X111225295Y-67274285D01*
X111225295Y-67274285D02*
X111320533Y-67274285D01*
X111320533Y-67274285D02*
X111463390Y-67321904D01*
X111463390Y-67321904D02*
X112034819Y-67893332D01*
X112034819Y-67893332D02*
X112034819Y-67274285D01*
X124994048Y-76679819D02*
X124994048Y-75679819D01*
X124994048Y-75679819D02*
X125232143Y-75679819D01*
X125232143Y-75679819D02*
X125375000Y-75727438D01*
X125375000Y-75727438D02*
X125470238Y-75822676D01*
X125470238Y-75822676D02*
X125517857Y-75917914D01*
X125517857Y-75917914D02*
X125565476Y-76108390D01*
X125565476Y-76108390D02*
X125565476Y-76251247D01*
X125565476Y-76251247D02*
X125517857Y-76441723D01*
X125517857Y-76441723D02*
X125470238Y-76536961D01*
X125470238Y-76536961D02*
X125375000Y-76632200D01*
X125375000Y-76632200D02*
X125232143Y-76679819D01*
X125232143Y-76679819D02*
X124994048Y-76679819D01*
X126184524Y-75679819D02*
X126375000Y-75679819D01*
X126375000Y-75679819D02*
X126470238Y-75727438D01*
X126470238Y-75727438D02*
X126565476Y-75822676D01*
X126565476Y-75822676D02*
X126613095Y-76013152D01*
X126613095Y-76013152D02*
X126613095Y-76346485D01*
X126613095Y-76346485D02*
X126565476Y-76536961D01*
X126565476Y-76536961D02*
X126470238Y-76632200D01*
X126470238Y-76632200D02*
X126375000Y-76679819D01*
X126375000Y-76679819D02*
X126184524Y-76679819D01*
X126184524Y-76679819D02*
X126089286Y-76632200D01*
X126089286Y-76632200D02*
X125994048Y-76536961D01*
X125994048Y-76536961D02*
X125946429Y-76346485D01*
X125946429Y-76346485D02*
X125946429Y-76013152D01*
X125946429Y-76013152D02*
X125994048Y-75822676D01*
X125994048Y-75822676D02*
X126089286Y-75727438D01*
X126089286Y-75727438D02*
X126184524Y-75679819D01*
X126946429Y-75679819D02*
X127184524Y-76679819D01*
X127184524Y-76679819D02*
X127375000Y-75965533D01*
X127375000Y-75965533D02*
X127565476Y-76679819D01*
X127565476Y-76679819D02*
X127803572Y-75679819D01*
X128184524Y-76679819D02*
X128184524Y-75679819D01*
X128184524Y-75679819D02*
X128755952Y-76679819D01*
X128755952Y-76679819D02*
X128755952Y-75679819D01*
D14*
G36*
X66661637Y-74912338D02*
G01*
X66849669Y-74923461D01*
X66916666Y-74931964D01*
X67100000Y-74961137D01*
X66653482Y-75021083D01*
X66002904Y-75134889D01*
X65390674Y-75295984D01*
X64820143Y-75503184D01*
X64294660Y-75755304D01*
X63900000Y-75994549D01*
X63760787Y-76091674D01*
X63632028Y-76188032D01*
X63524588Y-76274798D01*
X63449332Y-76343148D01*
X63417125Y-76384257D01*
X63416666Y-76387126D01*
X63446350Y-76387712D01*
X63523914Y-76376446D01*
X63625000Y-76357274D01*
X63999578Y-76303820D01*
X64396221Y-76289822D01*
X64797379Y-76313762D01*
X65185505Y-76374121D01*
X65543051Y-76469381D01*
X65727693Y-76539249D01*
X65815593Y-76574079D01*
X65872025Y-76590971D01*
X65883333Y-76589777D01*
X65865435Y-76558118D01*
X65816097Y-76481540D01*
X65741851Y-76369917D01*
X65649230Y-76233126D01*
X65595835Y-76155126D01*
X65495592Y-76004817D01*
X65415308Y-75875753D01*
X65360461Y-75777406D01*
X65336530Y-75719248D01*
X65337502Y-75708510D01*
X65386331Y-75678830D01*
X65479268Y-75635876D01*
X65602153Y-75584905D01*
X65740830Y-75531171D01*
X65881141Y-75479929D01*
X66008929Y-75436437D01*
X66110037Y-75405948D01*
X66170308Y-75393719D01*
X66180374Y-75395617D01*
X66206195Y-75430280D01*
X66264543Y-75511477D01*
X66349691Y-75631143D01*
X66455909Y-75781214D01*
X66577471Y-75953626D01*
X66651099Y-76058333D01*
X66909372Y-76425787D01*
X67165880Y-76790365D01*
X67415254Y-77144453D01*
X67652125Y-77480440D01*
X67871124Y-77790713D01*
X68066882Y-78067662D01*
X68234030Y-78303673D01*
X68342971Y-78457089D01*
X68451667Y-78612026D01*
X68522475Y-78718606D01*
X68557975Y-78781452D01*
X68560745Y-78805187D01*
X68533364Y-78794432D01*
X68529968Y-78792234D01*
X68221102Y-78598278D01*
X67885616Y-78403975D01*
X67541736Y-78219012D01*
X67207693Y-78053074D01*
X66901713Y-77915850D01*
X66812189Y-77879380D01*
X66127737Y-77640760D01*
X65448754Y-77468506D01*
X64774651Y-77362595D01*
X64104838Y-77323001D01*
X63438727Y-77349701D01*
X62775727Y-77442671D01*
X62115250Y-77601885D01*
X61876520Y-77675895D01*
X61434006Y-77842704D01*
X60974886Y-78055339D01*
X60518527Y-78303495D01*
X60084294Y-78576869D01*
X59800000Y-78780655D01*
X59749819Y-78817177D01*
X59735200Y-78820552D01*
X59758227Y-78784832D01*
X59820985Y-78704071D01*
X59831484Y-78690820D01*
X60055219Y-78419858D01*
X60311546Y-78128370D01*
X60588289Y-77828976D01*
X60873270Y-77534296D01*
X61154312Y-77256950D01*
X61419238Y-77009560D01*
X61633333Y-76823362D01*
X62231855Y-76362786D01*
X62846645Y-75961613D01*
X63474642Y-75621387D01*
X64112786Y-75343655D01*
X64758016Y-75129963D01*
X65200000Y-75021865D01*
X65403389Y-74986812D01*
X65644175Y-74957362D01*
X65906376Y-74934353D01*
X66174008Y-74918622D01*
X66431089Y-74911004D01*
X66661637Y-74912338D01*
G37*
G36*
X64172214Y-72503553D02*
G01*
X64228176Y-72578295D01*
X64313567Y-72695713D01*
X64424064Y-72849781D01*
X64555349Y-73034474D01*
X64703099Y-73243766D01*
X64862996Y-73471630D01*
X64871583Y-73483905D01*
X65576500Y-74491666D01*
X65421583Y-74514234D01*
X65140334Y-74553587D01*
X64904036Y-74583296D01*
X64717384Y-74602895D01*
X64585075Y-74611918D01*
X64511802Y-74609897D01*
X64500000Y-74605835D01*
X64467812Y-74569056D01*
X64407370Y-74490245D01*
X64328313Y-74382223D01*
X64266666Y-74295531D01*
X64182117Y-74178771D01*
X64110673Y-74086633D01*
X64061238Y-74030219D01*
X64044020Y-74018012D01*
X64019353Y-74045597D01*
X63964809Y-74116962D01*
X63887698Y-74221772D01*
X63795330Y-74349691D01*
X63695018Y-74490384D01*
X63594071Y-74633515D01*
X63499801Y-74768749D01*
X63419519Y-74885750D01*
X63360536Y-74974182D01*
X63330162Y-75023711D01*
X63327781Y-75030559D01*
X63361588Y-75028631D01*
X63437013Y-75014789D01*
X63466666Y-75008333D01*
X63551150Y-74991828D01*
X63602099Y-74986703D01*
X63607485Y-74988041D01*
X63584384Y-75006271D01*
X63514684Y-75046944D01*
X63411383Y-75102634D01*
X63362760Y-75127865D01*
X63109454Y-75266634D01*
X62822434Y-75438518D01*
X62518122Y-75632693D01*
X62212943Y-75838335D01*
X61923317Y-76044618D01*
X61665668Y-76240719D01*
X61624832Y-76273392D01*
X61525799Y-76351758D01*
X61447667Y-76410671D01*
X61403881Y-76440085D01*
X61399637Y-76441666D01*
X61410943Y-76416606D01*
X61454424Y-76348710D01*
X61522833Y-76248902D01*
X61593104Y-76150000D01*
X61707132Y-75990226D01*
X61837799Y-75804802D01*
X61964348Y-75623264D01*
X62020631Y-75541666D01*
X62110386Y-75411339D01*
X62227700Y-75241627D01*
X62361981Y-75047818D01*
X62502639Y-74845199D01*
X62632623Y-74658333D01*
X62915269Y-74252322D01*
X63161583Y-73898191D01*
X63373458Y-73593199D01*
X63552788Y-73334608D01*
X63701470Y-73119679D01*
X63821396Y-72945673D01*
X63914461Y-72809850D01*
X63982559Y-72709473D01*
X64027586Y-72641800D01*
X64031835Y-72635275D01*
X64090056Y-72549548D01*
X64133967Y-72492164D01*
X64150000Y-72477514D01*
X64172214Y-72503553D01*
G37*
D15*
X129510000Y-46370000D02*
G75*
G02*
X124510000Y-46370000I-2500000J0D01*
G01*
X124510000Y-46370000D02*
G75*
G02*
X129510000Y-46370000I2500000J0D01*
G01*
X124020000Y-46370000D02*
G75*
G02*
X129570000Y-44825170I2990000J0D01*
G01*
X129570000Y-47914830D02*
G75*
G02*
X124020000Y-46370000I-2560000J1544830D01*
G01*
X129570000Y-47915000D02*
X129570000Y-44825000D01*
D13*
X73080000Y-73580000D02*
X87080000Y-73580000D01*
X73080000Y-87580000D02*
X73080000Y-73580000D01*
X87080000Y-73580000D02*
X87080000Y-87580000D01*
X87080000Y-87580000D02*
X73080000Y-87580000D01*
D15*
X108640000Y-86980000D02*
X108640000Y-84310000D01*
X108640000Y-81770000D02*
X108640000Y-43540000D01*
X108640000Y-43540000D02*
X103560000Y-43540000D01*
X105970000Y-84310000D02*
X108640000Y-84310000D01*
X105970000Y-81770000D02*
X108640000Y-81770000D01*
X105970000Y-81770000D02*
X105970000Y-84310000D01*
X105970000Y-81770000D02*
X105970000Y-46210000D01*
X105970000Y-46210000D02*
X108640000Y-46210000D01*
X103560000Y-51420000D02*
X95680000Y-51420000D01*
X103560000Y-41000000D02*
X103560000Y-51420000D01*
X95680000Y-51420000D02*
X95680000Y-41000000D01*
X95680000Y-41000000D02*
X103560000Y-41000000D01*
X93270000Y-84310000D02*
X93270000Y-46210000D01*
X93270000Y-84310000D02*
X90600000Y-84310000D01*
X93270000Y-46210000D02*
X90600000Y-46210000D01*
X90600000Y-86980000D02*
X108640000Y-86980000D01*
X90600000Y-43540000D02*
X95680000Y-43540000D01*
X90600000Y-43540000D02*
X90600000Y-86980000D01*
X119600000Y-76940000D02*
X119600000Y-83480000D01*
X119270000Y-76940000D02*
X119600000Y-76940000D01*
X117190000Y-76940000D02*
X116860000Y-76940000D01*
X116860000Y-76940000D02*
X116860000Y-83480000D01*
X119600000Y-83480000D02*
X119270000Y-83480000D01*
X116860000Y-83480000D02*
X117190000Y-83480000D01*
D13*
X58690000Y-41300000D02*
X86690000Y-41300000D01*
X58690000Y-69300000D02*
X58690000Y-41300000D01*
X86690000Y-41300000D02*
X86690000Y-69300000D01*
X86690000Y-69300000D02*
X58690000Y-69300000D01*
X58690000Y-41300000D02*
X86690000Y-41300000D01*
X86690000Y-69300000D01*
X58690000Y-69300000D01*
X58690000Y-41300000D01*
D15*
X123375000Y-56375000D02*
X123375000Y-57875000D01*
X124625000Y-60375000D02*
X129125000Y-60375000D01*
X129125000Y-53875000D02*
X124625000Y-53875000D01*
X130375000Y-57875000D02*
X130375000Y-56375000D01*
X112400000Y-82750000D02*
X112400000Y-77810000D01*
X112730000Y-82750000D02*
X112400000Y-82750000D01*
X115140000Y-82750000D02*
X114810000Y-82750000D01*
X112400000Y-77810000D02*
X112730000Y-77810000D01*
X114810000Y-77810000D02*
X115140000Y-77810000D01*
X115140000Y-77810000D02*
X115140000Y-82750000D01*
X119940000Y-65420000D02*
X119940000Y-71960000D01*
X119610000Y-65420000D02*
X119940000Y-65420000D01*
X117530000Y-65420000D02*
X117200000Y-65420000D01*
X117200000Y-65420000D02*
X117200000Y-71960000D01*
X119940000Y-71960000D02*
X119610000Y-71960000D01*
X117200000Y-71960000D02*
X117530000Y-71960000D01*
X113630000Y-45040000D02*
X120170000Y-45040000D01*
X113630000Y-45370000D02*
X113630000Y-45040000D01*
X113630000Y-47450000D02*
X113630000Y-47780000D01*
X113630000Y-47780000D02*
X120170000Y-47780000D01*
X120170000Y-45040000D02*
X120170000Y-45370000D01*
X120170000Y-47780000D02*
X120170000Y-47450000D01*
X120290000Y-54130000D02*
X120290000Y-60670000D01*
X119960000Y-54130000D02*
X120290000Y-54130000D01*
X117880000Y-54130000D02*
X117550000Y-54130000D01*
X117550000Y-54130000D02*
X117550000Y-60670000D01*
X120290000Y-60670000D02*
X119960000Y-60670000D01*
X117550000Y-60670000D02*
X117880000Y-60670000D01*
X123375000Y-68250000D02*
X123375000Y-69750000D01*
X124625000Y-72250000D02*
X129125000Y-72250000D01*
X129125000Y-65750000D02*
X124625000Y-65750000D01*
X130375000Y-69750000D02*
X130375000Y-68250000D01*
X113030000Y-59070000D02*
X113030000Y-54130000D01*
X113360000Y-59070000D02*
X113030000Y-59070000D01*
X115770000Y-59070000D02*
X115440000Y-59070000D01*
X113030000Y-54130000D02*
X113360000Y-54130000D01*
X115440000Y-54130000D02*
X115770000Y-54130000D01*
X115770000Y-54130000D02*
X115770000Y-59070000D01*
X112710000Y-70530000D02*
X112710000Y-65590000D01*
X113040000Y-70530000D02*
X112710000Y-70530000D01*
X115450000Y-70530000D02*
X115120000Y-70530000D01*
X112710000Y-65590000D02*
X113040000Y-65590000D01*
X115120000Y-65590000D02*
X115450000Y-65590000D01*
X115450000Y-65590000D02*
X115450000Y-70530000D01*
X123375000Y-79725000D02*
X123375000Y-81225000D01*
X124625000Y-83725000D02*
X129125000Y-83725000D01*
X129125000Y-77225000D02*
X124625000Y-77225000D01*
X130375000Y-81225000D02*
X130375000Y-79725000D01*
M02*
