G04 #@! TF.GenerationSoftware,KiCad,Pcbnew,10.0.0*
G04 #@! TF.CreationDate,2026-04-07T21:09:56+03:00*
G04 #@! TF.ProjectId,beginning-project,62656769-6e6e-4696-9e67-2d70726f6a65,rev?*
G04 #@! TF.SameCoordinates,Original*
G04 #@! TF.FileFunction,Soldermask,Top*
G04 #@! TF.FilePolarity,Negative*
%FSLAX46Y46*%
G04 Gerber Fmt 4.6, Leading zero omitted, Abs format (unit mm)*
G04 Created by KiCad (PCBNEW 10.0.0) date 2026-04-07 21:09:56*
%MOMM*%
%LPD*%
G01*
G04 APERTURE LIST*
%ADD10C,1.800000*%
%ADD11R,1.800000X1.800000*%
%ADD12R,1.524000X1.524000*%
%ADD13C,1.524000*%
%ADD14R,1.600000X1.600000*%
%ADD15O,1.600000X1.600000*%
%ADD16C,1.600000*%
%ADD17C,2.000000*%
G04 APERTURE END LIST*
D10*
X125740000Y-46370000D03*
D11*
X128280000Y-46370000D03*
D12*
X75000000Y-75500000D03*
D13*
X77540000Y-75500000D03*
X80080000Y-75500000D03*
X82620000Y-75500000D03*
X85160000Y-75500000D03*
D14*
X107240000Y-83040000D03*
D15*
X107240000Y-80500000D03*
X107240000Y-77960000D03*
X107240000Y-75420000D03*
X107240000Y-72880000D03*
X107240000Y-70340000D03*
X107240000Y-67800000D03*
X107240000Y-65260000D03*
X107240000Y-62720000D03*
X107240000Y-60180000D03*
X107240000Y-57640000D03*
X107240000Y-55100000D03*
X107240000Y-52560000D03*
X107240000Y-50020000D03*
X107240000Y-47480000D03*
X92000000Y-47480000D03*
X92000000Y-50020000D03*
X92000000Y-52560000D03*
X92000000Y-55100000D03*
X92000000Y-57640000D03*
X92000000Y-60180000D03*
X92000000Y-62720000D03*
X92000000Y-65260000D03*
X92000000Y-67800000D03*
X92000000Y-70340000D03*
X92000000Y-72880000D03*
X92000000Y-75420000D03*
X92000000Y-77960000D03*
X92000000Y-80500000D03*
X92000000Y-83040000D03*
D16*
X118230000Y-76400000D03*
X118230000Y-84020000D03*
D12*
X68880000Y-42600000D03*
D13*
X71420000Y-42600000D03*
X73960000Y-42600000D03*
X76500000Y-42600000D03*
D17*
X123625000Y-54875000D03*
X130125000Y-54875000D03*
X123625000Y-59375000D03*
X130125000Y-59375000D03*
D16*
X113770000Y-82780000D03*
X113770000Y-77780000D03*
X118570000Y-64880000D03*
X118570000Y-72500000D03*
X113090000Y-46410000D03*
X120710000Y-46410000D03*
X118920000Y-53590000D03*
X118920000Y-61210000D03*
D17*
X123625000Y-66750000D03*
X130125000Y-66750000D03*
X123625000Y-71250000D03*
X130125000Y-71250000D03*
D16*
X114400000Y-59100000D03*
X114400000Y-54100000D03*
X114080000Y-70560000D03*
X114080000Y-65560000D03*
D17*
X123625000Y-78225000D03*
X130125000Y-78225000D03*
X123625000Y-82725000D03*
X130125000Y-82725000D03*
M02*
