%TF.GenerationSoftware,KiCad,Pcbnew,10.0.0*%
%TF.CreationDate,2026-04-07T21:07:38+03:00*%
%TF.ProjectId,beginning-project,62656769-6e6e-4696-9e67-2d70726f6a65,rev?*%
%TF.SameCoordinates,Original*%
%TF.FileFunction,Drillmap*%
%TF.FilePolarity,Positive*%
%FSLAX45Y45*%
G04 Gerber Fmt 4.5, Leading zero omitted, Abs format (unit mm)*
G04 Created by KiCad (PCBNEW 10.0.0) date 2026-04-07 21:07:38*
%MOMM*%
%LPD*%
G01*
G04 APERTURE LIST*
%ADD10C,0.050000*%
%ADD11C,0.200000*%
%ADD12C,0.100000*%
%ADD13C,0.110000*%
G04 APERTURE END LIST*
D10*
X5700000Y-4000000D02*
X5700000Y-9100000D01*
X5700000Y-9100000D02*
X13400000Y-9100000D01*
X13400000Y-4000000D02*
X5700000Y-4000000D01*
X13400000Y-4000000D02*
X13400000Y-9100000D01*
D11*
D12*
X8385000Y-7245000D02*
X8415000Y-7275000D01*
X8415000Y-7245000D02*
X8385000Y-7275000D01*
X8804000Y-6500000D02*
X8834000Y-6530000D01*
X8834000Y-6500000D02*
X8804000Y-6530000D01*
X12070000Y-7160000D02*
X12100000Y-7190000D01*
X12100000Y-7160000D02*
X12070000Y-7190000D01*
X12110000Y-6020000D02*
X12140000Y-6050000D01*
X12140000Y-6020000D02*
X12110000Y-6050000D01*
X6928000Y-4260000D02*
G75*
G02*
X6848000Y-4260000I-40000J0D01*
G01*
X6848000Y-4260000D02*
G75*
G02*
X6928000Y-4260000I40000J0D01*
G01*
X7182000Y-4260000D02*
G75*
G02*
X7102000Y-4260000I-40000J0D01*
G01*
X7102000Y-4260000D02*
G75*
G02*
X7182000Y-4260000I40000J0D01*
G01*
X7436000Y-4260000D02*
G75*
G02*
X7356000Y-4260000I-40000J0D01*
G01*
X7356000Y-4260000D02*
G75*
G02*
X7436000Y-4260000I40000J0D01*
G01*
X7540000Y-7550000D02*
G75*
G02*
X7460000Y-7550000I-40000J0D01*
G01*
X7460000Y-7550000D02*
G75*
G02*
X7540000Y-7550000I40000J0D01*
G01*
X7690000Y-4260000D02*
G75*
G02*
X7610000Y-4260000I-40000J0D01*
G01*
X7610000Y-4260000D02*
G75*
G02*
X7690000Y-4260000I40000J0D01*
G01*
X7794000Y-7550000D02*
G75*
G02*
X7714000Y-7550000I-40000J0D01*
G01*
X7714000Y-7550000D02*
G75*
G02*
X7794000Y-7550000I40000J0D01*
G01*
X8048000Y-7550000D02*
G75*
G02*
X7968000Y-7550000I-40000J0D01*
G01*
X7968000Y-7550000D02*
G75*
G02*
X8048000Y-7550000I40000J0D01*
G01*
X8302000Y-7550000D02*
G75*
G02*
X8222000Y-7550000I-40000J0D01*
G01*
X8222000Y-7550000D02*
G75*
G02*
X8302000Y-7550000I40000J0D01*
G01*
X8556000Y-7550000D02*
G75*
G02*
X8476000Y-7550000I-40000J0D01*
G01*
X8476000Y-7550000D02*
G75*
G02*
X8556000Y-7550000I40000J0D01*
G01*
X11349000Y-4641000D02*
G75*
G02*
X11269000Y-4641000I-40000J0D01*
G01*
X11269000Y-4641000D02*
G75*
G02*
X11349000Y-4641000I40000J0D01*
G01*
X11417000Y-7778000D02*
G75*
G02*
X11337000Y-7778000I-40000J0D01*
G01*
X11337000Y-7778000D02*
G75*
G02*
X11417000Y-7778000I40000J0D01*
G01*
X11417000Y-8278000D02*
G75*
G02*
X11337000Y-8278000I-40000J0D01*
G01*
X11337000Y-8278000D02*
G75*
G02*
X11417000Y-8278000I40000J0D01*
G01*
X11448000Y-6556000D02*
G75*
G02*
X11368000Y-6556000I-40000J0D01*
G01*
X11368000Y-6556000D02*
G75*
G02*
X11448000Y-6556000I40000J0D01*
G01*
X11448000Y-7056000D02*
G75*
G02*
X11368000Y-7056000I-40000J0D01*
G01*
X11368000Y-7056000D02*
G75*
G02*
X11448000Y-7056000I40000J0D01*
G01*
X11480000Y-5410000D02*
G75*
G02*
X11400000Y-5410000I-40000J0D01*
G01*
X11400000Y-5410000D02*
G75*
G02*
X11480000Y-5410000I40000J0D01*
G01*
X11480000Y-5910000D02*
G75*
G02*
X11400000Y-5910000I-40000J0D01*
G01*
X11400000Y-5910000D02*
G75*
G02*
X11480000Y-5910000I40000J0D01*
G01*
X11863000Y-7640000D02*
G75*
G02*
X11783000Y-7640000I-40000J0D01*
G01*
X11783000Y-7640000D02*
G75*
G02*
X11863000Y-7640000I40000J0D01*
G01*
X11863000Y-8402000D02*
G75*
G02*
X11783000Y-8402000I-40000J0D01*
G01*
X11783000Y-8402000D02*
G75*
G02*
X11863000Y-8402000I40000J0D01*
G01*
X11897000Y-6488000D02*
G75*
G02*
X11817000Y-6488000I-40000J0D01*
G01*
X11817000Y-6488000D02*
G75*
G02*
X11897000Y-6488000I40000J0D01*
G01*
X11897000Y-7250000D02*
G75*
G02*
X11817000Y-7250000I-40000J0D01*
G01*
X11817000Y-7250000D02*
G75*
G02*
X11897000Y-7250000I40000J0D01*
G01*
X11932000Y-5359000D02*
G75*
G02*
X11852000Y-5359000I-40000J0D01*
G01*
X11852000Y-5359000D02*
G75*
G02*
X11932000Y-5359000I40000J0D01*
G01*
X11932000Y-6121000D02*
G75*
G02*
X11852000Y-6121000I-40000J0D01*
G01*
X11852000Y-6121000D02*
G75*
G02*
X11932000Y-6121000I40000J0D01*
G01*
X12111000Y-4641000D02*
G75*
G02*
X12031000Y-4641000I-40000J0D01*
G01*
X12031000Y-4641000D02*
G75*
G02*
X12111000Y-4641000I40000J0D01*
G01*
X12574000Y-4592000D02*
X12574000Y-4682000D01*
X12529000Y-4637000D02*
X12619000Y-4637000D01*
X12828000Y-4592000D02*
X12828000Y-4682000D01*
X12783000Y-4637000D02*
X12873000Y-4637000D01*
X9235356Y-4783356D02*
X9235356Y-4712644D01*
X9164644Y-4712644D01*
X9164644Y-4783356D01*
X9235356Y-4783356D01*
X9235356Y-5037356D02*
X9235356Y-4966644D01*
X9164644Y-4966644D01*
X9164644Y-5037356D01*
X9235356Y-5037356D01*
X9235356Y-5291356D02*
X9235356Y-5220644D01*
X9164644Y-5220644D01*
X9164644Y-5291356D01*
X9235356Y-5291356D01*
X9235356Y-5545356D02*
X9235356Y-5474644D01*
X9164644Y-5474644D01*
X9164644Y-5545356D01*
X9235356Y-5545356D01*
X9235356Y-5799356D02*
X9235356Y-5728644D01*
X9164644Y-5728644D01*
X9164644Y-5799356D01*
X9235356Y-5799356D01*
X9235356Y-6053356D02*
X9235356Y-5982644D01*
X9164644Y-5982644D01*
X9164644Y-6053356D01*
X9235356Y-6053356D01*
X9235356Y-6307356D02*
X9235356Y-6236644D01*
X9164644Y-6236644D01*
X9164644Y-6307356D01*
X9235356Y-6307356D01*
X9235356Y-6561356D02*
X9235356Y-6490644D01*
X9164644Y-6490644D01*
X9164644Y-6561356D01*
X9235356Y-6561356D01*
X9235356Y-6815356D02*
X9235356Y-6744644D01*
X9164644Y-6744644D01*
X9164644Y-6815356D01*
X9235356Y-6815356D01*
X9235356Y-7069356D02*
X9235356Y-6998644D01*
X9164644Y-6998644D01*
X9164644Y-7069356D01*
X9235356Y-7069356D01*
X9235356Y-7323356D02*
X9235356Y-7252644D01*
X9164644Y-7252644D01*
X9164644Y-7323356D01*
X9235356Y-7323356D01*
X9235356Y-7577356D02*
X9235356Y-7506644D01*
X9164644Y-7506644D01*
X9164644Y-7577356D01*
X9235356Y-7577356D01*
X9235356Y-7831356D02*
X9235356Y-7760644D01*
X9164644Y-7760644D01*
X9164644Y-7831356D01*
X9235356Y-7831356D01*
X9235356Y-8085356D02*
X9235356Y-8014644D01*
X9164644Y-8014644D01*
X9164644Y-8085356D01*
X9235356Y-8085356D01*
X9235356Y-8339356D02*
X9235356Y-8268644D01*
X9164644Y-8268644D01*
X9164644Y-8339356D01*
X9235356Y-8339356D01*
X10759356Y-4783356D02*
X10759356Y-4712644D01*
X10688644Y-4712644D01*
X10688644Y-4783356D01*
X10759356Y-4783356D01*
X10759356Y-5037356D02*
X10759356Y-4966644D01*
X10688644Y-4966644D01*
X10688644Y-5037356D01*
X10759356Y-5037356D01*
X10759356Y-5291356D02*
X10759356Y-5220644D01*
X10688644Y-5220644D01*
X10688644Y-5291356D01*
X10759356Y-5291356D01*
X10759356Y-5545356D02*
X10759356Y-5474644D01*
X10688644Y-5474644D01*
X10688644Y-5545356D01*
X10759356Y-5545356D01*
X10759356Y-5799356D02*
X10759356Y-5728644D01*
X10688644Y-5728644D01*
X10688644Y-5799356D01*
X10759356Y-5799356D01*
X10759356Y-6053356D02*
X10759356Y-5982644D01*
X10688644Y-5982644D01*
X10688644Y-6053356D01*
X10759356Y-6053356D01*
X10759356Y-6307356D02*
X10759356Y-6236644D01*
X10688644Y-6236644D01*
X10688644Y-6307356D01*
X10759356Y-6307356D01*
X10759356Y-6561356D02*
X10759356Y-6490644D01*
X10688644Y-6490644D01*
X10688644Y-6561356D01*
X10759356Y-6561356D01*
X10759356Y-6815356D02*
X10759356Y-6744644D01*
X10688644Y-6744644D01*
X10688644Y-6815356D01*
X10759356Y-6815356D01*
X10759356Y-7069356D02*
X10759356Y-6998644D01*
X10688644Y-6998644D01*
X10688644Y-7069356D01*
X10759356Y-7069356D01*
X10759356Y-7323356D02*
X10759356Y-7252644D01*
X10688644Y-7252644D01*
X10688644Y-7323356D01*
X10759356Y-7323356D01*
X10759356Y-7577356D02*
X10759356Y-7506644D01*
X10688644Y-7506644D01*
X10688644Y-7577356D01*
X10759356Y-7577356D01*
X10759356Y-7831356D02*
X10759356Y-7760644D01*
X10688644Y-7760644D01*
X10688644Y-7831356D01*
X10759356Y-7831356D01*
X10759356Y-8085356D02*
X10759356Y-8014644D01*
X10688644Y-8014644D01*
X10688644Y-8085356D01*
X10759356Y-8085356D01*
X10759356Y-8339356D02*
X10759356Y-8268644D01*
X10688644Y-8268644D01*
X10688644Y-8339356D01*
X10759356Y-8339356D01*
D13*
X12362500Y-5542500D02*
X12417500Y-5487500D01*
X12362500Y-5432500D01*
X12307500Y-5487500D01*
X12362500Y-5542500D01*
X12362500Y-5992500D02*
X12417500Y-5937500D01*
X12362500Y-5882500D01*
X12307500Y-5937500D01*
X12362500Y-5992500D01*
X12362500Y-6730000D02*
X12417500Y-6675000D01*
X12362500Y-6620000D01*
X12307500Y-6675000D01*
X12362500Y-6730000D01*
X12362500Y-7180000D02*
X12417500Y-7125000D01*
X12362500Y-7070000D01*
X12307500Y-7125000D01*
X12362500Y-7180000D01*
X12362500Y-7877500D02*
X12417500Y-7822500D01*
X12362500Y-7767500D01*
X12307500Y-7822500D01*
X12362500Y-7877500D01*
X12362500Y-8327500D02*
X12417500Y-8272500D01*
X12362500Y-8217500D01*
X12307500Y-8272500D01*
X12362500Y-8327500D01*
X13012500Y-5542500D02*
X13067500Y-5487500D01*
X13012500Y-5432500D01*
X12957500Y-5487500D01*
X13012500Y-5542500D01*
X13012500Y-5992500D02*
X13067500Y-5937500D01*
X13012500Y-5882500D01*
X12957500Y-5937500D01*
X13012500Y-5992500D01*
X13012500Y-6730000D02*
X13067500Y-6675000D01*
X13012500Y-6620000D01*
X12957500Y-6675000D01*
X13012500Y-6730000D01*
X13012500Y-7180000D02*
X13067500Y-7125000D01*
X13012500Y-7070000D01*
X12957500Y-7125000D01*
X13012500Y-7180000D01*
X13012500Y-7877500D02*
X13067500Y-7822500D01*
X13012500Y-7767500D01*
X12957500Y-7822500D01*
X13012500Y-7877500D01*
X13012500Y-8327500D02*
X13067500Y-8272500D01*
X13012500Y-8217500D01*
X12957500Y-8272500D01*
X13012500Y-8327500D01*
D11*
X5958277Y-9413984D02*
X5958277Y-9213984D01*
X5958277Y-9213984D02*
X6005896Y-9213984D01*
X6005896Y-9213984D02*
X6034467Y-9223508D01*
X6034467Y-9223508D02*
X6053515Y-9242555D01*
X6053515Y-9242555D02*
X6063039Y-9261603D01*
X6063039Y-9261603D02*
X6072562Y-9299698D01*
X6072562Y-9299698D02*
X6072562Y-9328270D01*
X6072562Y-9328270D02*
X6063039Y-9366365D01*
X6063039Y-9366365D02*
X6053515Y-9385412D01*
X6053515Y-9385412D02*
X6034467Y-9404460D01*
X6034467Y-9404460D02*
X6005896Y-9413984D01*
X6005896Y-9413984D02*
X5958277Y-9413984D01*
X6158277Y-9413984D02*
X6158277Y-9280650D01*
X6158277Y-9318746D02*
X6167801Y-9299698D01*
X6167801Y-9299698D02*
X6177324Y-9290174D01*
X6177324Y-9290174D02*
X6196372Y-9280650D01*
X6196372Y-9280650D02*
X6215420Y-9280650D01*
X6282086Y-9413984D02*
X6282086Y-9280650D01*
X6282086Y-9213984D02*
X6272562Y-9223508D01*
X6272562Y-9223508D02*
X6282086Y-9233031D01*
X6282086Y-9233031D02*
X6291610Y-9223508D01*
X6291610Y-9223508D02*
X6282086Y-9213984D01*
X6282086Y-9213984D02*
X6282086Y-9233031D01*
X6405896Y-9413984D02*
X6386848Y-9404460D01*
X6386848Y-9404460D02*
X6377324Y-9385412D01*
X6377324Y-9385412D02*
X6377324Y-9213984D01*
X6510658Y-9413984D02*
X6491610Y-9404460D01*
X6491610Y-9404460D02*
X6482086Y-9385412D01*
X6482086Y-9385412D02*
X6482086Y-9213984D01*
X6739229Y-9413984D02*
X6739229Y-9213984D01*
X6739229Y-9213984D02*
X6805896Y-9356841D01*
X6805896Y-9356841D02*
X6872562Y-9213984D01*
X6872562Y-9213984D02*
X6872562Y-9413984D01*
X7053515Y-9413984D02*
X7053515Y-9309222D01*
X7053515Y-9309222D02*
X7043991Y-9290174D01*
X7043991Y-9290174D02*
X7024943Y-9280650D01*
X7024943Y-9280650D02*
X6986848Y-9280650D01*
X6986848Y-9280650D02*
X6967801Y-9290174D01*
X7053515Y-9404460D02*
X7034467Y-9413984D01*
X7034467Y-9413984D02*
X6986848Y-9413984D01*
X6986848Y-9413984D02*
X6967801Y-9404460D01*
X6967801Y-9404460D02*
X6958277Y-9385412D01*
X6958277Y-9385412D02*
X6958277Y-9366365D01*
X6958277Y-9366365D02*
X6967801Y-9347317D01*
X6967801Y-9347317D02*
X6986848Y-9337793D01*
X6986848Y-9337793D02*
X7034467Y-9337793D01*
X7034467Y-9337793D02*
X7053515Y-9328270D01*
X7148753Y-9280650D02*
X7148753Y-9480650D01*
X7148753Y-9290174D02*
X7167801Y-9280650D01*
X7167801Y-9280650D02*
X7205896Y-9280650D01*
X7205896Y-9280650D02*
X7224943Y-9290174D01*
X7224943Y-9290174D02*
X7234467Y-9299698D01*
X7234467Y-9299698D02*
X7243991Y-9318746D01*
X7243991Y-9318746D02*
X7243991Y-9375889D01*
X7243991Y-9375889D02*
X7234467Y-9394936D01*
X7234467Y-9394936D02*
X7224943Y-9404460D01*
X7224943Y-9404460D02*
X7205896Y-9413984D01*
X7205896Y-9413984D02*
X7167801Y-9413984D01*
X7167801Y-9413984D02*
X7148753Y-9404460D01*
X7329705Y-9394936D02*
X7339229Y-9404460D01*
X7339229Y-9404460D02*
X7329705Y-9413984D01*
X7329705Y-9413984D02*
X7320182Y-9404460D01*
X7320182Y-9404460D02*
X7329705Y-9394936D01*
X7329705Y-9394936D02*
X7329705Y-9413984D01*
X7329705Y-9290174D02*
X7339229Y-9299698D01*
X7339229Y-9299698D02*
X7329705Y-9309222D01*
X7329705Y-9309222D02*
X7320182Y-9299698D01*
X7320182Y-9299698D02*
X7329705Y-9290174D01*
X7329705Y-9290174D02*
X7329705Y-9309222D01*
D12*
X5667500Y-9727500D02*
X5697500Y-9757500D01*
X5697500Y-9727500D02*
X5667500Y-9757500D01*
D11*
X5996372Y-9633984D02*
X6015420Y-9633984D01*
X6015420Y-9633984D02*
X6034467Y-9643508D01*
X6034467Y-9643508D02*
X6043991Y-9653031D01*
X6043991Y-9653031D02*
X6053515Y-9672079D01*
X6053515Y-9672079D02*
X6063039Y-9710174D01*
X6063039Y-9710174D02*
X6063039Y-9757793D01*
X6063039Y-9757793D02*
X6053515Y-9795889D01*
X6053515Y-9795889D02*
X6043991Y-9814936D01*
X6043991Y-9814936D02*
X6034467Y-9824460D01*
X6034467Y-9824460D02*
X6015420Y-9833984D01*
X6015420Y-9833984D02*
X5996372Y-9833984D01*
X5996372Y-9833984D02*
X5977324Y-9824460D01*
X5977324Y-9824460D02*
X5967801Y-9814936D01*
X5967801Y-9814936D02*
X5958277Y-9795889D01*
X5958277Y-9795889D02*
X5948753Y-9757793D01*
X5948753Y-9757793D02*
X5948753Y-9710174D01*
X5948753Y-9710174D02*
X5958277Y-9672079D01*
X5958277Y-9672079D02*
X5967801Y-9653031D01*
X5967801Y-9653031D02*
X5977324Y-9643508D01*
X5977324Y-9643508D02*
X5996372Y-9633984D01*
X6148753Y-9814936D02*
X6158277Y-9824460D01*
X6158277Y-9824460D02*
X6148753Y-9833984D01*
X6148753Y-9833984D02*
X6139229Y-9824460D01*
X6139229Y-9824460D02*
X6148753Y-9814936D01*
X6148753Y-9814936D02*
X6148753Y-9833984D01*
X6224943Y-9633984D02*
X6348753Y-9633984D01*
X6348753Y-9633984D02*
X6282086Y-9710174D01*
X6282086Y-9710174D02*
X6310658Y-9710174D01*
X6310658Y-9710174D02*
X6329705Y-9719698D01*
X6329705Y-9719698D02*
X6339229Y-9729222D01*
X6339229Y-9729222D02*
X6348753Y-9748270D01*
X6348753Y-9748270D02*
X6348753Y-9795889D01*
X6348753Y-9795889D02*
X6339229Y-9814936D01*
X6339229Y-9814936D02*
X6329705Y-9824460D01*
X6329705Y-9824460D02*
X6310658Y-9833984D01*
X6310658Y-9833984D02*
X6253515Y-9833984D01*
X6253515Y-9833984D02*
X6234467Y-9824460D01*
X6234467Y-9824460D02*
X6224943Y-9814936D01*
X6472562Y-9633984D02*
X6491610Y-9633984D01*
X6491610Y-9633984D02*
X6510658Y-9643508D01*
X6510658Y-9643508D02*
X6520182Y-9653031D01*
X6520182Y-9653031D02*
X6529705Y-9672079D01*
X6529705Y-9672079D02*
X6539229Y-9710174D01*
X6539229Y-9710174D02*
X6539229Y-9757793D01*
X6539229Y-9757793D02*
X6529705Y-9795889D01*
X6529705Y-9795889D02*
X6520182Y-9814936D01*
X6520182Y-9814936D02*
X6510658Y-9824460D01*
X6510658Y-9824460D02*
X6491610Y-9833984D01*
X6491610Y-9833984D02*
X6472562Y-9833984D01*
X6472562Y-9833984D02*
X6453515Y-9824460D01*
X6453515Y-9824460D02*
X6443991Y-9814936D01*
X6443991Y-9814936D02*
X6434467Y-9795889D01*
X6434467Y-9795889D02*
X6424943Y-9757793D01*
X6424943Y-9757793D02*
X6424943Y-9710174D01*
X6424943Y-9710174D02*
X6434467Y-9672079D01*
X6434467Y-9672079D02*
X6443991Y-9653031D01*
X6443991Y-9653031D02*
X6453515Y-9643508D01*
X6453515Y-9643508D02*
X6472562Y-9633984D01*
X6663039Y-9633984D02*
X6682086Y-9633984D01*
X6682086Y-9633984D02*
X6701134Y-9643508D01*
X6701134Y-9643508D02*
X6710658Y-9653031D01*
X6710658Y-9653031D02*
X6720182Y-9672079D01*
X6720182Y-9672079D02*
X6729705Y-9710174D01*
X6729705Y-9710174D02*
X6729705Y-9757793D01*
X6729705Y-9757793D02*
X6720182Y-9795889D01*
X6720182Y-9795889D02*
X6710658Y-9814936D01*
X6710658Y-9814936D02*
X6701134Y-9824460D01*
X6701134Y-9824460D02*
X6682086Y-9833984D01*
X6682086Y-9833984D02*
X6663039Y-9833984D01*
X6663039Y-9833984D02*
X6643991Y-9824460D01*
X6643991Y-9824460D02*
X6634467Y-9814936D01*
X6634467Y-9814936D02*
X6624943Y-9795889D01*
X6624943Y-9795889D02*
X6615420Y-9757793D01*
X6615420Y-9757793D02*
X6615420Y-9710174D01*
X6615420Y-9710174D02*
X6624943Y-9672079D01*
X6624943Y-9672079D02*
X6634467Y-9653031D01*
X6634467Y-9653031D02*
X6643991Y-9643508D01*
X6643991Y-9643508D02*
X6663039Y-9633984D01*
X6815420Y-9833984D02*
X6815420Y-9700650D01*
X6815420Y-9719698D02*
X6824943Y-9710174D01*
X6824943Y-9710174D02*
X6843991Y-9700650D01*
X6843991Y-9700650D02*
X6872563Y-9700650D01*
X6872563Y-9700650D02*
X6891610Y-9710174D01*
X6891610Y-9710174D02*
X6901134Y-9729222D01*
X6901134Y-9729222D02*
X6901134Y-9833984D01*
X6901134Y-9729222D02*
X6910658Y-9710174D01*
X6910658Y-9710174D02*
X6929705Y-9700650D01*
X6929705Y-9700650D02*
X6958277Y-9700650D01*
X6958277Y-9700650D02*
X6977324Y-9710174D01*
X6977324Y-9710174D02*
X6986848Y-9729222D01*
X6986848Y-9729222D02*
X6986848Y-9833984D01*
X7082086Y-9833984D02*
X7082086Y-9700650D01*
X7082086Y-9719698D02*
X7091610Y-9710174D01*
X7091610Y-9710174D02*
X7110658Y-9700650D01*
X7110658Y-9700650D02*
X7139229Y-9700650D01*
X7139229Y-9700650D02*
X7158277Y-9710174D01*
X7158277Y-9710174D02*
X7167801Y-9729222D01*
X7167801Y-9729222D02*
X7167801Y-9833984D01*
X7167801Y-9729222D02*
X7177324Y-9710174D01*
X7177324Y-9710174D02*
X7196372Y-9700650D01*
X7196372Y-9700650D02*
X7224943Y-9700650D01*
X7224943Y-9700650D02*
X7243991Y-9710174D01*
X7243991Y-9710174D02*
X7253515Y-9729222D01*
X7253515Y-9729222D02*
X7253515Y-9833984D01*
X7643991Y-9624460D02*
X7472563Y-9881603D01*
X7901134Y-9633984D02*
X7920182Y-9633984D01*
X7920182Y-9633984D02*
X7939229Y-9643508D01*
X7939229Y-9643508D02*
X7948753Y-9653031D01*
X7948753Y-9653031D02*
X7958277Y-9672079D01*
X7958277Y-9672079D02*
X7967801Y-9710174D01*
X7967801Y-9710174D02*
X7967801Y-9757793D01*
X7967801Y-9757793D02*
X7958277Y-9795889D01*
X7958277Y-9795889D02*
X7948753Y-9814936D01*
X7948753Y-9814936D02*
X7939229Y-9824460D01*
X7939229Y-9824460D02*
X7920182Y-9833984D01*
X7920182Y-9833984D02*
X7901134Y-9833984D01*
X7901134Y-9833984D02*
X7882086Y-9824460D01*
X7882086Y-9824460D02*
X7872563Y-9814936D01*
X7872563Y-9814936D02*
X7863039Y-9795889D01*
X7863039Y-9795889D02*
X7853515Y-9757793D01*
X7853515Y-9757793D02*
X7853515Y-9710174D01*
X7853515Y-9710174D02*
X7863039Y-9672079D01*
X7863039Y-9672079D02*
X7872563Y-9653031D01*
X7872563Y-9653031D02*
X7882086Y-9643508D01*
X7882086Y-9643508D02*
X7901134Y-9633984D01*
X8053515Y-9814936D02*
X8063039Y-9824460D01*
X8063039Y-9824460D02*
X8053515Y-9833984D01*
X8053515Y-9833984D02*
X8043991Y-9824460D01*
X8043991Y-9824460D02*
X8053515Y-9814936D01*
X8053515Y-9814936D02*
X8053515Y-9833984D01*
X8186848Y-9633984D02*
X8205896Y-9633984D01*
X8205896Y-9633984D02*
X8224944Y-9643508D01*
X8224944Y-9643508D02*
X8234467Y-9653031D01*
X8234467Y-9653031D02*
X8243991Y-9672079D01*
X8243991Y-9672079D02*
X8253515Y-9710174D01*
X8253515Y-9710174D02*
X8253515Y-9757793D01*
X8253515Y-9757793D02*
X8243991Y-9795889D01*
X8243991Y-9795889D02*
X8234467Y-9814936D01*
X8234467Y-9814936D02*
X8224944Y-9824460D01*
X8224944Y-9824460D02*
X8205896Y-9833984D01*
X8205896Y-9833984D02*
X8186848Y-9833984D01*
X8186848Y-9833984D02*
X8167801Y-9824460D01*
X8167801Y-9824460D02*
X8158277Y-9814936D01*
X8158277Y-9814936D02*
X8148753Y-9795889D01*
X8148753Y-9795889D02*
X8139229Y-9757793D01*
X8139229Y-9757793D02*
X8139229Y-9710174D01*
X8139229Y-9710174D02*
X8148753Y-9672079D01*
X8148753Y-9672079D02*
X8158277Y-9653031D01*
X8158277Y-9653031D02*
X8167801Y-9643508D01*
X8167801Y-9643508D02*
X8186848Y-9633984D01*
X8443991Y-9833984D02*
X8329706Y-9833984D01*
X8386848Y-9833984D02*
X8386848Y-9633984D01*
X8386848Y-9633984D02*
X8367801Y-9662555D01*
X8367801Y-9662555D02*
X8348753Y-9681603D01*
X8348753Y-9681603D02*
X8329706Y-9691127D01*
X8634468Y-9833984D02*
X8520182Y-9833984D01*
X8577325Y-9833984D02*
X8577325Y-9633984D01*
X8577325Y-9633984D02*
X8558277Y-9662555D01*
X8558277Y-9662555D02*
X8539229Y-9681603D01*
X8539229Y-9681603D02*
X8520182Y-9691127D01*
X8748753Y-9719698D02*
X8729706Y-9710174D01*
X8729706Y-9710174D02*
X8720182Y-9700650D01*
X8720182Y-9700650D02*
X8710658Y-9681603D01*
X8710658Y-9681603D02*
X8710658Y-9672079D01*
X8710658Y-9672079D02*
X8720182Y-9653031D01*
X8720182Y-9653031D02*
X8729706Y-9643508D01*
X8729706Y-9643508D02*
X8748753Y-9633984D01*
X8748753Y-9633984D02*
X8786849Y-9633984D01*
X8786849Y-9633984D02*
X8805896Y-9643508D01*
X8805896Y-9643508D02*
X8815420Y-9653031D01*
X8815420Y-9653031D02*
X8824944Y-9672079D01*
X8824944Y-9672079D02*
X8824944Y-9681603D01*
X8824944Y-9681603D02*
X8815420Y-9700650D01*
X8815420Y-9700650D02*
X8805896Y-9710174D01*
X8805896Y-9710174D02*
X8786849Y-9719698D01*
X8786849Y-9719698D02*
X8748753Y-9719698D01*
X8748753Y-9719698D02*
X8729706Y-9729222D01*
X8729706Y-9729222D02*
X8720182Y-9738746D01*
X8720182Y-9738746D02*
X8710658Y-9757793D01*
X8710658Y-9757793D02*
X8710658Y-9795889D01*
X8710658Y-9795889D02*
X8720182Y-9814936D01*
X8720182Y-9814936D02*
X8729706Y-9824460D01*
X8729706Y-9824460D02*
X8748753Y-9833984D01*
X8748753Y-9833984D02*
X8786849Y-9833984D01*
X8786849Y-9833984D02*
X8805896Y-9824460D01*
X8805896Y-9824460D02*
X8815420Y-9814936D01*
X8815420Y-9814936D02*
X8824944Y-9795889D01*
X8824944Y-9795889D02*
X8824944Y-9757793D01*
X8824944Y-9757793D02*
X8815420Y-9738746D01*
X8815420Y-9738746D02*
X8805896Y-9729222D01*
X8805896Y-9729222D02*
X8786849Y-9719698D01*
X8901134Y-9633984D02*
X8901134Y-9672079D01*
X8977325Y-9633984D02*
X8977325Y-9672079D01*
X9272563Y-9910174D02*
X9263039Y-9900650D01*
X9263039Y-9900650D02*
X9243991Y-9872079D01*
X9243991Y-9872079D02*
X9234468Y-9853031D01*
X9234468Y-9853031D02*
X9224944Y-9824460D01*
X9224944Y-9824460D02*
X9215420Y-9776841D01*
X9215420Y-9776841D02*
X9215420Y-9738746D01*
X9215420Y-9738746D02*
X9224944Y-9691127D01*
X9224944Y-9691127D02*
X9234468Y-9662555D01*
X9234468Y-9662555D02*
X9243991Y-9643508D01*
X9243991Y-9643508D02*
X9263039Y-9614936D01*
X9263039Y-9614936D02*
X9272563Y-9605412D01*
X9434468Y-9700650D02*
X9434468Y-9833984D01*
X9386849Y-9624460D02*
X9339230Y-9767317D01*
X9339230Y-9767317D02*
X9463039Y-9767317D01*
X9691611Y-9833984D02*
X9691611Y-9633984D01*
X9777325Y-9833984D02*
X9777325Y-9729222D01*
X9777325Y-9729222D02*
X9767801Y-9710174D01*
X9767801Y-9710174D02*
X9748753Y-9700650D01*
X9748753Y-9700650D02*
X9720182Y-9700650D01*
X9720182Y-9700650D02*
X9701134Y-9710174D01*
X9701134Y-9710174D02*
X9691611Y-9719698D01*
X9901134Y-9833984D02*
X9882087Y-9824460D01*
X9882087Y-9824460D02*
X9872563Y-9814936D01*
X9872563Y-9814936D02*
X9863039Y-9795889D01*
X9863039Y-9795889D02*
X9863039Y-9738746D01*
X9863039Y-9738746D02*
X9872563Y-9719698D01*
X9872563Y-9719698D02*
X9882087Y-9710174D01*
X9882087Y-9710174D02*
X9901134Y-9700650D01*
X9901134Y-9700650D02*
X9929706Y-9700650D01*
X9929706Y-9700650D02*
X9948753Y-9710174D01*
X9948753Y-9710174D02*
X9958277Y-9719698D01*
X9958277Y-9719698D02*
X9967801Y-9738746D01*
X9967801Y-9738746D02*
X9967801Y-9795889D01*
X9967801Y-9795889D02*
X9958277Y-9814936D01*
X9958277Y-9814936D02*
X9948753Y-9824460D01*
X9948753Y-9824460D02*
X9929706Y-9833984D01*
X9929706Y-9833984D02*
X9901134Y-9833984D01*
X10082087Y-9833984D02*
X10063039Y-9824460D01*
X10063039Y-9824460D02*
X10053515Y-9805412D01*
X10053515Y-9805412D02*
X10053515Y-9633984D01*
X10234468Y-9824460D02*
X10215420Y-9833984D01*
X10215420Y-9833984D02*
X10177325Y-9833984D01*
X10177325Y-9833984D02*
X10158277Y-9824460D01*
X10158277Y-9824460D02*
X10148753Y-9805412D01*
X10148753Y-9805412D02*
X10148753Y-9729222D01*
X10148753Y-9729222D02*
X10158277Y-9710174D01*
X10158277Y-9710174D02*
X10177325Y-9700650D01*
X10177325Y-9700650D02*
X10215420Y-9700650D01*
X10215420Y-9700650D02*
X10234468Y-9710174D01*
X10234468Y-9710174D02*
X10243992Y-9729222D01*
X10243992Y-9729222D02*
X10243992Y-9748270D01*
X10243992Y-9748270D02*
X10148753Y-9767317D01*
X10320182Y-9824460D02*
X10339230Y-9833984D01*
X10339230Y-9833984D02*
X10377325Y-9833984D01*
X10377325Y-9833984D02*
X10396373Y-9824460D01*
X10396373Y-9824460D02*
X10405896Y-9805412D01*
X10405896Y-9805412D02*
X10405896Y-9795889D01*
X10405896Y-9795889D02*
X10396373Y-9776841D01*
X10396373Y-9776841D02*
X10377325Y-9767317D01*
X10377325Y-9767317D02*
X10348753Y-9767317D01*
X10348753Y-9767317D02*
X10329706Y-9757793D01*
X10329706Y-9757793D02*
X10320182Y-9738746D01*
X10320182Y-9738746D02*
X10320182Y-9729222D01*
X10320182Y-9729222D02*
X10329706Y-9710174D01*
X10329706Y-9710174D02*
X10348753Y-9700650D01*
X10348753Y-9700650D02*
X10377325Y-9700650D01*
X10377325Y-9700650D02*
X10396373Y-9710174D01*
X10472563Y-9910174D02*
X10482087Y-9900650D01*
X10482087Y-9900650D02*
X10501134Y-9872079D01*
X10501134Y-9872079D02*
X10510658Y-9853031D01*
X10510658Y-9853031D02*
X10520182Y-9824460D01*
X10520182Y-9824460D02*
X10529706Y-9776841D01*
X10529706Y-9776841D02*
X10529706Y-9738746D01*
X10529706Y-9738746D02*
X10520182Y-9691127D01*
X10520182Y-9691127D02*
X10510658Y-9662555D01*
X10510658Y-9662555D02*
X10501134Y-9643508D01*
X10501134Y-9643508D02*
X10482087Y-9614936D01*
X10482087Y-9614936D02*
X10472563Y-9605412D01*
D12*
X5697500Y-10006500D02*
G75*
G02*
X5617500Y-10006500I-40000J0D01*
G01*
X5617500Y-10006500D02*
G75*
G02*
X5697500Y-10006500I40000J0D01*
G01*
D11*
X5996372Y-9897984D02*
X6015420Y-9897984D01*
X6015420Y-9897984D02*
X6034467Y-9907508D01*
X6034467Y-9907508D02*
X6043991Y-9917031D01*
X6043991Y-9917031D02*
X6053515Y-9936079D01*
X6053515Y-9936079D02*
X6063039Y-9974174D01*
X6063039Y-9974174D02*
X6063039Y-10021793D01*
X6063039Y-10021793D02*
X6053515Y-10059889D01*
X6053515Y-10059889D02*
X6043991Y-10078936D01*
X6043991Y-10078936D02*
X6034467Y-10088460D01*
X6034467Y-10088460D02*
X6015420Y-10097984D01*
X6015420Y-10097984D02*
X5996372Y-10097984D01*
X5996372Y-10097984D02*
X5977324Y-10088460D01*
X5977324Y-10088460D02*
X5967801Y-10078936D01*
X5967801Y-10078936D02*
X5958277Y-10059889D01*
X5958277Y-10059889D02*
X5948753Y-10021793D01*
X5948753Y-10021793D02*
X5948753Y-9974174D01*
X5948753Y-9974174D02*
X5958277Y-9936079D01*
X5958277Y-9936079D02*
X5967801Y-9917031D01*
X5967801Y-9917031D02*
X5977324Y-9907508D01*
X5977324Y-9907508D02*
X5996372Y-9897984D01*
X6148753Y-10078936D02*
X6158277Y-10088460D01*
X6158277Y-10088460D02*
X6148753Y-10097984D01*
X6148753Y-10097984D02*
X6139229Y-10088460D01*
X6139229Y-10088460D02*
X6148753Y-10078936D01*
X6148753Y-10078936D02*
X6148753Y-10097984D01*
X6272562Y-9983698D02*
X6253515Y-9974174D01*
X6253515Y-9974174D02*
X6243991Y-9964650D01*
X6243991Y-9964650D02*
X6234467Y-9945603D01*
X6234467Y-9945603D02*
X6234467Y-9936079D01*
X6234467Y-9936079D02*
X6243991Y-9917031D01*
X6243991Y-9917031D02*
X6253515Y-9907508D01*
X6253515Y-9907508D02*
X6272562Y-9897984D01*
X6272562Y-9897984D02*
X6310658Y-9897984D01*
X6310658Y-9897984D02*
X6329705Y-9907508D01*
X6329705Y-9907508D02*
X6339229Y-9917031D01*
X6339229Y-9917031D02*
X6348753Y-9936079D01*
X6348753Y-9936079D02*
X6348753Y-9945603D01*
X6348753Y-9945603D02*
X6339229Y-9964650D01*
X6339229Y-9964650D02*
X6329705Y-9974174D01*
X6329705Y-9974174D02*
X6310658Y-9983698D01*
X6310658Y-9983698D02*
X6272562Y-9983698D01*
X6272562Y-9983698D02*
X6253515Y-9993222D01*
X6253515Y-9993222D02*
X6243991Y-10002746D01*
X6243991Y-10002746D02*
X6234467Y-10021793D01*
X6234467Y-10021793D02*
X6234467Y-10059889D01*
X6234467Y-10059889D02*
X6243991Y-10078936D01*
X6243991Y-10078936D02*
X6253515Y-10088460D01*
X6253515Y-10088460D02*
X6272562Y-10097984D01*
X6272562Y-10097984D02*
X6310658Y-10097984D01*
X6310658Y-10097984D02*
X6329705Y-10088460D01*
X6329705Y-10088460D02*
X6339229Y-10078936D01*
X6339229Y-10078936D02*
X6348753Y-10059889D01*
X6348753Y-10059889D02*
X6348753Y-10021793D01*
X6348753Y-10021793D02*
X6339229Y-10002746D01*
X6339229Y-10002746D02*
X6329705Y-9993222D01*
X6329705Y-9993222D02*
X6310658Y-9983698D01*
X6472562Y-9897984D02*
X6491610Y-9897984D01*
X6491610Y-9897984D02*
X6510658Y-9907508D01*
X6510658Y-9907508D02*
X6520182Y-9917031D01*
X6520182Y-9917031D02*
X6529705Y-9936079D01*
X6529705Y-9936079D02*
X6539229Y-9974174D01*
X6539229Y-9974174D02*
X6539229Y-10021793D01*
X6539229Y-10021793D02*
X6529705Y-10059889D01*
X6529705Y-10059889D02*
X6520182Y-10078936D01*
X6520182Y-10078936D02*
X6510658Y-10088460D01*
X6510658Y-10088460D02*
X6491610Y-10097984D01*
X6491610Y-10097984D02*
X6472562Y-10097984D01*
X6472562Y-10097984D02*
X6453515Y-10088460D01*
X6453515Y-10088460D02*
X6443991Y-10078936D01*
X6443991Y-10078936D02*
X6434467Y-10059889D01*
X6434467Y-10059889D02*
X6424943Y-10021793D01*
X6424943Y-10021793D02*
X6424943Y-9974174D01*
X6424943Y-9974174D02*
X6434467Y-9936079D01*
X6434467Y-9936079D02*
X6443991Y-9917031D01*
X6443991Y-9917031D02*
X6453515Y-9907508D01*
X6453515Y-9907508D02*
X6472562Y-9897984D01*
X6663039Y-9897984D02*
X6682086Y-9897984D01*
X6682086Y-9897984D02*
X6701134Y-9907508D01*
X6701134Y-9907508D02*
X6710658Y-9917031D01*
X6710658Y-9917031D02*
X6720182Y-9936079D01*
X6720182Y-9936079D02*
X6729705Y-9974174D01*
X6729705Y-9974174D02*
X6729705Y-10021793D01*
X6729705Y-10021793D02*
X6720182Y-10059889D01*
X6720182Y-10059889D02*
X6710658Y-10078936D01*
X6710658Y-10078936D02*
X6701134Y-10088460D01*
X6701134Y-10088460D02*
X6682086Y-10097984D01*
X6682086Y-10097984D02*
X6663039Y-10097984D01*
X6663039Y-10097984D02*
X6643991Y-10088460D01*
X6643991Y-10088460D02*
X6634467Y-10078936D01*
X6634467Y-10078936D02*
X6624943Y-10059889D01*
X6624943Y-10059889D02*
X6615420Y-10021793D01*
X6615420Y-10021793D02*
X6615420Y-9974174D01*
X6615420Y-9974174D02*
X6624943Y-9936079D01*
X6624943Y-9936079D02*
X6634467Y-9917031D01*
X6634467Y-9917031D02*
X6643991Y-9907508D01*
X6643991Y-9907508D02*
X6663039Y-9897984D01*
X6815420Y-10097984D02*
X6815420Y-9964650D01*
X6815420Y-9983698D02*
X6824943Y-9974174D01*
X6824943Y-9974174D02*
X6843991Y-9964650D01*
X6843991Y-9964650D02*
X6872563Y-9964650D01*
X6872563Y-9964650D02*
X6891610Y-9974174D01*
X6891610Y-9974174D02*
X6901134Y-9993222D01*
X6901134Y-9993222D02*
X6901134Y-10097984D01*
X6901134Y-9993222D02*
X6910658Y-9974174D01*
X6910658Y-9974174D02*
X6929705Y-9964650D01*
X6929705Y-9964650D02*
X6958277Y-9964650D01*
X6958277Y-9964650D02*
X6977324Y-9974174D01*
X6977324Y-9974174D02*
X6986848Y-9993222D01*
X6986848Y-9993222D02*
X6986848Y-10097984D01*
X7082086Y-10097984D02*
X7082086Y-9964650D01*
X7082086Y-9983698D02*
X7091610Y-9974174D01*
X7091610Y-9974174D02*
X7110658Y-9964650D01*
X7110658Y-9964650D02*
X7139229Y-9964650D01*
X7139229Y-9964650D02*
X7158277Y-9974174D01*
X7158277Y-9974174D02*
X7167801Y-9993222D01*
X7167801Y-9993222D02*
X7167801Y-10097984D01*
X7167801Y-9993222D02*
X7177324Y-9974174D01*
X7177324Y-9974174D02*
X7196372Y-9964650D01*
X7196372Y-9964650D02*
X7224943Y-9964650D01*
X7224943Y-9964650D02*
X7243991Y-9974174D01*
X7243991Y-9974174D02*
X7253515Y-9993222D01*
X7253515Y-9993222D02*
X7253515Y-10097984D01*
X7643991Y-9888460D02*
X7472563Y-10145603D01*
X7901134Y-9897984D02*
X7920182Y-9897984D01*
X7920182Y-9897984D02*
X7939229Y-9907508D01*
X7939229Y-9907508D02*
X7948753Y-9917031D01*
X7948753Y-9917031D02*
X7958277Y-9936079D01*
X7958277Y-9936079D02*
X7967801Y-9974174D01*
X7967801Y-9974174D02*
X7967801Y-10021793D01*
X7967801Y-10021793D02*
X7958277Y-10059889D01*
X7958277Y-10059889D02*
X7948753Y-10078936D01*
X7948753Y-10078936D02*
X7939229Y-10088460D01*
X7939229Y-10088460D02*
X7920182Y-10097984D01*
X7920182Y-10097984D02*
X7901134Y-10097984D01*
X7901134Y-10097984D02*
X7882086Y-10088460D01*
X7882086Y-10088460D02*
X7872563Y-10078936D01*
X7872563Y-10078936D02*
X7863039Y-10059889D01*
X7863039Y-10059889D02*
X7853515Y-10021793D01*
X7853515Y-10021793D02*
X7853515Y-9974174D01*
X7853515Y-9974174D02*
X7863039Y-9936079D01*
X7863039Y-9936079D02*
X7872563Y-9917031D01*
X7872563Y-9917031D02*
X7882086Y-9907508D01*
X7882086Y-9907508D02*
X7901134Y-9897984D01*
X8053515Y-10078936D02*
X8063039Y-10088460D01*
X8063039Y-10088460D02*
X8053515Y-10097984D01*
X8053515Y-10097984D02*
X8043991Y-10088460D01*
X8043991Y-10088460D02*
X8053515Y-10078936D01*
X8053515Y-10078936D02*
X8053515Y-10097984D01*
X8186848Y-9897984D02*
X8205896Y-9897984D01*
X8205896Y-9897984D02*
X8224944Y-9907508D01*
X8224944Y-9907508D02*
X8234467Y-9917031D01*
X8234467Y-9917031D02*
X8243991Y-9936079D01*
X8243991Y-9936079D02*
X8253515Y-9974174D01*
X8253515Y-9974174D02*
X8253515Y-10021793D01*
X8253515Y-10021793D02*
X8243991Y-10059889D01*
X8243991Y-10059889D02*
X8234467Y-10078936D01*
X8234467Y-10078936D02*
X8224944Y-10088460D01*
X8224944Y-10088460D02*
X8205896Y-10097984D01*
X8205896Y-10097984D02*
X8186848Y-10097984D01*
X8186848Y-10097984D02*
X8167801Y-10088460D01*
X8167801Y-10088460D02*
X8158277Y-10078936D01*
X8158277Y-10078936D02*
X8148753Y-10059889D01*
X8148753Y-10059889D02*
X8139229Y-10021793D01*
X8139229Y-10021793D02*
X8139229Y-9974174D01*
X8139229Y-9974174D02*
X8148753Y-9936079D01*
X8148753Y-9936079D02*
X8158277Y-9917031D01*
X8158277Y-9917031D02*
X8167801Y-9907508D01*
X8167801Y-9907508D02*
X8186848Y-9897984D01*
X8320182Y-9897984D02*
X8443991Y-9897984D01*
X8443991Y-9897984D02*
X8377325Y-9974174D01*
X8377325Y-9974174D02*
X8405896Y-9974174D01*
X8405896Y-9974174D02*
X8424944Y-9983698D01*
X8424944Y-9983698D02*
X8434468Y-9993222D01*
X8434468Y-9993222D02*
X8443991Y-10012270D01*
X8443991Y-10012270D02*
X8443991Y-10059889D01*
X8443991Y-10059889D02*
X8434468Y-10078936D01*
X8434468Y-10078936D02*
X8424944Y-10088460D01*
X8424944Y-10088460D02*
X8405896Y-10097984D01*
X8405896Y-10097984D02*
X8348753Y-10097984D01*
X8348753Y-10097984D02*
X8329706Y-10088460D01*
X8329706Y-10088460D02*
X8320182Y-10078936D01*
X8634468Y-10097984D02*
X8520182Y-10097984D01*
X8577325Y-10097984D02*
X8577325Y-9897984D01*
X8577325Y-9897984D02*
X8558277Y-9926555D01*
X8558277Y-9926555D02*
X8539229Y-9945603D01*
X8539229Y-9945603D02*
X8520182Y-9955127D01*
X8815420Y-9897984D02*
X8720182Y-9897984D01*
X8720182Y-9897984D02*
X8710658Y-9993222D01*
X8710658Y-9993222D02*
X8720182Y-9983698D01*
X8720182Y-9983698D02*
X8739229Y-9974174D01*
X8739229Y-9974174D02*
X8786849Y-9974174D01*
X8786849Y-9974174D02*
X8805896Y-9983698D01*
X8805896Y-9983698D02*
X8815420Y-9993222D01*
X8815420Y-9993222D02*
X8824944Y-10012270D01*
X8824944Y-10012270D02*
X8824944Y-10059889D01*
X8824944Y-10059889D02*
X8815420Y-10078936D01*
X8815420Y-10078936D02*
X8805896Y-10088460D01*
X8805896Y-10088460D02*
X8786849Y-10097984D01*
X8786849Y-10097984D02*
X8739229Y-10097984D01*
X8739229Y-10097984D02*
X8720182Y-10088460D01*
X8720182Y-10088460D02*
X8710658Y-10078936D01*
X8901134Y-9897984D02*
X8901134Y-9936079D01*
X8977325Y-9897984D02*
X8977325Y-9936079D01*
X9272563Y-10174174D02*
X9263039Y-10164650D01*
X9263039Y-10164650D02*
X9243991Y-10136079D01*
X9243991Y-10136079D02*
X9234468Y-10117031D01*
X9234468Y-10117031D02*
X9224944Y-10088460D01*
X9224944Y-10088460D02*
X9215420Y-10040841D01*
X9215420Y-10040841D02*
X9215420Y-10002746D01*
X9215420Y-10002746D02*
X9224944Y-9955127D01*
X9224944Y-9955127D02*
X9234468Y-9926555D01*
X9234468Y-9926555D02*
X9243991Y-9907508D01*
X9243991Y-9907508D02*
X9263039Y-9878936D01*
X9263039Y-9878936D02*
X9272563Y-9869412D01*
X9339230Y-9917031D02*
X9348753Y-9907508D01*
X9348753Y-9907508D02*
X9367801Y-9897984D01*
X9367801Y-9897984D02*
X9415420Y-9897984D01*
X9415420Y-9897984D02*
X9434468Y-9907508D01*
X9434468Y-9907508D02*
X9443991Y-9917031D01*
X9443991Y-9917031D02*
X9453515Y-9936079D01*
X9453515Y-9936079D02*
X9453515Y-9955127D01*
X9453515Y-9955127D02*
X9443991Y-9983698D01*
X9443991Y-9983698D02*
X9329706Y-10097984D01*
X9329706Y-10097984D02*
X9453515Y-10097984D01*
X9520182Y-9897984D02*
X9643991Y-9897984D01*
X9643991Y-9897984D02*
X9577325Y-9974174D01*
X9577325Y-9974174D02*
X9605896Y-9974174D01*
X9605896Y-9974174D02*
X9624944Y-9983698D01*
X9624944Y-9983698D02*
X9634468Y-9993222D01*
X9634468Y-9993222D02*
X9643991Y-10012270D01*
X9643991Y-10012270D02*
X9643991Y-10059889D01*
X9643991Y-10059889D02*
X9634468Y-10078936D01*
X9634468Y-10078936D02*
X9624944Y-10088460D01*
X9624944Y-10088460D02*
X9605896Y-10097984D01*
X9605896Y-10097984D02*
X9548753Y-10097984D01*
X9548753Y-10097984D02*
X9529706Y-10088460D01*
X9529706Y-10088460D02*
X9520182Y-10078936D01*
X9882087Y-10097984D02*
X9882087Y-9897984D01*
X9967801Y-10097984D02*
X9967801Y-9993222D01*
X9967801Y-9993222D02*
X9958277Y-9974174D01*
X9958277Y-9974174D02*
X9939230Y-9964650D01*
X9939230Y-9964650D02*
X9910658Y-9964650D01*
X9910658Y-9964650D02*
X9891611Y-9974174D01*
X9891611Y-9974174D02*
X9882087Y-9983698D01*
X10091611Y-10097984D02*
X10072563Y-10088460D01*
X10072563Y-10088460D02*
X10063039Y-10078936D01*
X10063039Y-10078936D02*
X10053515Y-10059889D01*
X10053515Y-10059889D02*
X10053515Y-10002746D01*
X10053515Y-10002746D02*
X10063039Y-9983698D01*
X10063039Y-9983698D02*
X10072563Y-9974174D01*
X10072563Y-9974174D02*
X10091611Y-9964650D01*
X10091611Y-9964650D02*
X10120182Y-9964650D01*
X10120182Y-9964650D02*
X10139230Y-9974174D01*
X10139230Y-9974174D02*
X10148753Y-9983698D01*
X10148753Y-9983698D02*
X10158277Y-10002746D01*
X10158277Y-10002746D02*
X10158277Y-10059889D01*
X10158277Y-10059889D02*
X10148753Y-10078936D01*
X10148753Y-10078936D02*
X10139230Y-10088460D01*
X10139230Y-10088460D02*
X10120182Y-10097984D01*
X10120182Y-10097984D02*
X10091611Y-10097984D01*
X10272563Y-10097984D02*
X10253515Y-10088460D01*
X10253515Y-10088460D02*
X10243992Y-10069412D01*
X10243992Y-10069412D02*
X10243992Y-9897984D01*
X10424944Y-10088460D02*
X10405896Y-10097984D01*
X10405896Y-10097984D02*
X10367801Y-10097984D01*
X10367801Y-10097984D02*
X10348753Y-10088460D01*
X10348753Y-10088460D02*
X10339230Y-10069412D01*
X10339230Y-10069412D02*
X10339230Y-9993222D01*
X10339230Y-9993222D02*
X10348753Y-9974174D01*
X10348753Y-9974174D02*
X10367801Y-9964650D01*
X10367801Y-9964650D02*
X10405896Y-9964650D01*
X10405896Y-9964650D02*
X10424944Y-9974174D01*
X10424944Y-9974174D02*
X10434468Y-9993222D01*
X10434468Y-9993222D02*
X10434468Y-10012270D01*
X10434468Y-10012270D02*
X10339230Y-10031317D01*
X10510658Y-10088460D02*
X10529706Y-10097984D01*
X10529706Y-10097984D02*
X10567801Y-10097984D01*
X10567801Y-10097984D02*
X10586849Y-10088460D01*
X10586849Y-10088460D02*
X10596373Y-10069412D01*
X10596373Y-10069412D02*
X10596373Y-10059889D01*
X10596373Y-10059889D02*
X10586849Y-10040841D01*
X10586849Y-10040841D02*
X10567801Y-10031317D01*
X10567801Y-10031317D02*
X10539230Y-10031317D01*
X10539230Y-10031317D02*
X10520182Y-10021793D01*
X10520182Y-10021793D02*
X10510658Y-10002746D01*
X10510658Y-10002746D02*
X10510658Y-9993222D01*
X10510658Y-9993222D02*
X10520182Y-9974174D01*
X10520182Y-9974174D02*
X10539230Y-9964650D01*
X10539230Y-9964650D02*
X10567801Y-9964650D01*
X10567801Y-9964650D02*
X10586849Y-9974174D01*
X10663039Y-10174174D02*
X10672563Y-10164650D01*
X10672563Y-10164650D02*
X10691611Y-10136079D01*
X10691611Y-10136079D02*
X10701134Y-10117031D01*
X10701134Y-10117031D02*
X10710658Y-10088460D01*
X10710658Y-10088460D02*
X10720182Y-10040841D01*
X10720182Y-10040841D02*
X10720182Y-10002746D01*
X10720182Y-10002746D02*
X10710658Y-9955127D01*
X10710658Y-9955127D02*
X10701134Y-9926555D01*
X10701134Y-9926555D02*
X10691611Y-9907508D01*
X10691611Y-9907508D02*
X10672563Y-9878936D01*
X10672563Y-9878936D02*
X10663039Y-9869412D01*
D12*
X5652500Y-10225500D02*
X5652500Y-10315500D01*
X5607500Y-10270500D02*
X5697500Y-10270500D01*
D11*
X5996372Y-10161984D02*
X6015420Y-10161984D01*
X6015420Y-10161984D02*
X6034467Y-10171508D01*
X6034467Y-10171508D02*
X6043991Y-10181031D01*
X6043991Y-10181031D02*
X6053515Y-10200079D01*
X6053515Y-10200079D02*
X6063039Y-10238174D01*
X6063039Y-10238174D02*
X6063039Y-10285793D01*
X6063039Y-10285793D02*
X6053515Y-10323889D01*
X6053515Y-10323889D02*
X6043991Y-10342936D01*
X6043991Y-10342936D02*
X6034467Y-10352460D01*
X6034467Y-10352460D02*
X6015420Y-10361984D01*
X6015420Y-10361984D02*
X5996372Y-10361984D01*
X5996372Y-10361984D02*
X5977324Y-10352460D01*
X5977324Y-10352460D02*
X5967801Y-10342936D01*
X5967801Y-10342936D02*
X5958277Y-10323889D01*
X5958277Y-10323889D02*
X5948753Y-10285793D01*
X5948753Y-10285793D02*
X5948753Y-10238174D01*
X5948753Y-10238174D02*
X5958277Y-10200079D01*
X5958277Y-10200079D02*
X5967801Y-10181031D01*
X5967801Y-10181031D02*
X5977324Y-10171508D01*
X5977324Y-10171508D02*
X5996372Y-10161984D01*
X6148753Y-10342936D02*
X6158277Y-10352460D01*
X6158277Y-10352460D02*
X6148753Y-10361984D01*
X6148753Y-10361984D02*
X6139229Y-10352460D01*
X6139229Y-10352460D02*
X6148753Y-10342936D01*
X6148753Y-10342936D02*
X6148753Y-10361984D01*
X6253515Y-10361984D02*
X6291610Y-10361984D01*
X6291610Y-10361984D02*
X6310658Y-10352460D01*
X6310658Y-10352460D02*
X6320182Y-10342936D01*
X6320182Y-10342936D02*
X6339229Y-10314365D01*
X6339229Y-10314365D02*
X6348753Y-10276270D01*
X6348753Y-10276270D02*
X6348753Y-10200079D01*
X6348753Y-10200079D02*
X6339229Y-10181031D01*
X6339229Y-10181031D02*
X6329705Y-10171508D01*
X6329705Y-10171508D02*
X6310658Y-10161984D01*
X6310658Y-10161984D02*
X6272562Y-10161984D01*
X6272562Y-10161984D02*
X6253515Y-10171508D01*
X6253515Y-10171508D02*
X6243991Y-10181031D01*
X6243991Y-10181031D02*
X6234467Y-10200079D01*
X6234467Y-10200079D02*
X6234467Y-10247698D01*
X6234467Y-10247698D02*
X6243991Y-10266746D01*
X6243991Y-10266746D02*
X6253515Y-10276270D01*
X6253515Y-10276270D02*
X6272562Y-10285793D01*
X6272562Y-10285793D02*
X6310658Y-10285793D01*
X6310658Y-10285793D02*
X6329705Y-10276270D01*
X6329705Y-10276270D02*
X6339229Y-10266746D01*
X6339229Y-10266746D02*
X6348753Y-10247698D01*
X6472562Y-10161984D02*
X6491610Y-10161984D01*
X6491610Y-10161984D02*
X6510658Y-10171508D01*
X6510658Y-10171508D02*
X6520182Y-10181031D01*
X6520182Y-10181031D02*
X6529705Y-10200079D01*
X6529705Y-10200079D02*
X6539229Y-10238174D01*
X6539229Y-10238174D02*
X6539229Y-10285793D01*
X6539229Y-10285793D02*
X6529705Y-10323889D01*
X6529705Y-10323889D02*
X6520182Y-10342936D01*
X6520182Y-10342936D02*
X6510658Y-10352460D01*
X6510658Y-10352460D02*
X6491610Y-10361984D01*
X6491610Y-10361984D02*
X6472562Y-10361984D01*
X6472562Y-10361984D02*
X6453515Y-10352460D01*
X6453515Y-10352460D02*
X6443991Y-10342936D01*
X6443991Y-10342936D02*
X6434467Y-10323889D01*
X6434467Y-10323889D02*
X6424943Y-10285793D01*
X6424943Y-10285793D02*
X6424943Y-10238174D01*
X6424943Y-10238174D02*
X6434467Y-10200079D01*
X6434467Y-10200079D02*
X6443991Y-10181031D01*
X6443991Y-10181031D02*
X6453515Y-10171508D01*
X6453515Y-10171508D02*
X6472562Y-10161984D01*
X6663039Y-10161984D02*
X6682086Y-10161984D01*
X6682086Y-10161984D02*
X6701134Y-10171508D01*
X6701134Y-10171508D02*
X6710658Y-10181031D01*
X6710658Y-10181031D02*
X6720182Y-10200079D01*
X6720182Y-10200079D02*
X6729705Y-10238174D01*
X6729705Y-10238174D02*
X6729705Y-10285793D01*
X6729705Y-10285793D02*
X6720182Y-10323889D01*
X6720182Y-10323889D02*
X6710658Y-10342936D01*
X6710658Y-10342936D02*
X6701134Y-10352460D01*
X6701134Y-10352460D02*
X6682086Y-10361984D01*
X6682086Y-10361984D02*
X6663039Y-10361984D01*
X6663039Y-10361984D02*
X6643991Y-10352460D01*
X6643991Y-10352460D02*
X6634467Y-10342936D01*
X6634467Y-10342936D02*
X6624943Y-10323889D01*
X6624943Y-10323889D02*
X6615420Y-10285793D01*
X6615420Y-10285793D02*
X6615420Y-10238174D01*
X6615420Y-10238174D02*
X6624943Y-10200079D01*
X6624943Y-10200079D02*
X6634467Y-10181031D01*
X6634467Y-10181031D02*
X6643991Y-10171508D01*
X6643991Y-10171508D02*
X6663039Y-10161984D01*
X6815420Y-10361984D02*
X6815420Y-10228650D01*
X6815420Y-10247698D02*
X6824943Y-10238174D01*
X6824943Y-10238174D02*
X6843991Y-10228650D01*
X6843991Y-10228650D02*
X6872563Y-10228650D01*
X6872563Y-10228650D02*
X6891610Y-10238174D01*
X6891610Y-10238174D02*
X6901134Y-10257222D01*
X6901134Y-10257222D02*
X6901134Y-10361984D01*
X6901134Y-10257222D02*
X6910658Y-10238174D01*
X6910658Y-10238174D02*
X6929705Y-10228650D01*
X6929705Y-10228650D02*
X6958277Y-10228650D01*
X6958277Y-10228650D02*
X6977324Y-10238174D01*
X6977324Y-10238174D02*
X6986848Y-10257222D01*
X6986848Y-10257222D02*
X6986848Y-10361984D01*
X7082086Y-10361984D02*
X7082086Y-10228650D01*
X7082086Y-10247698D02*
X7091610Y-10238174D01*
X7091610Y-10238174D02*
X7110658Y-10228650D01*
X7110658Y-10228650D02*
X7139229Y-10228650D01*
X7139229Y-10228650D02*
X7158277Y-10238174D01*
X7158277Y-10238174D02*
X7167801Y-10257222D01*
X7167801Y-10257222D02*
X7167801Y-10361984D01*
X7167801Y-10257222D02*
X7177324Y-10238174D01*
X7177324Y-10238174D02*
X7196372Y-10228650D01*
X7196372Y-10228650D02*
X7224943Y-10228650D01*
X7224943Y-10228650D02*
X7243991Y-10238174D01*
X7243991Y-10238174D02*
X7253515Y-10257222D01*
X7253515Y-10257222D02*
X7253515Y-10361984D01*
X7643991Y-10152460D02*
X7472563Y-10409603D01*
X7901134Y-10161984D02*
X7920182Y-10161984D01*
X7920182Y-10161984D02*
X7939229Y-10171508D01*
X7939229Y-10171508D02*
X7948753Y-10181031D01*
X7948753Y-10181031D02*
X7958277Y-10200079D01*
X7958277Y-10200079D02*
X7967801Y-10238174D01*
X7967801Y-10238174D02*
X7967801Y-10285793D01*
X7967801Y-10285793D02*
X7958277Y-10323889D01*
X7958277Y-10323889D02*
X7948753Y-10342936D01*
X7948753Y-10342936D02*
X7939229Y-10352460D01*
X7939229Y-10352460D02*
X7920182Y-10361984D01*
X7920182Y-10361984D02*
X7901134Y-10361984D01*
X7901134Y-10361984D02*
X7882086Y-10352460D01*
X7882086Y-10352460D02*
X7872563Y-10342936D01*
X7872563Y-10342936D02*
X7863039Y-10323889D01*
X7863039Y-10323889D02*
X7853515Y-10285793D01*
X7853515Y-10285793D02*
X7853515Y-10238174D01*
X7853515Y-10238174D02*
X7863039Y-10200079D01*
X7863039Y-10200079D02*
X7872563Y-10181031D01*
X7872563Y-10181031D02*
X7882086Y-10171508D01*
X7882086Y-10171508D02*
X7901134Y-10161984D01*
X8053515Y-10342936D02*
X8063039Y-10352460D01*
X8063039Y-10352460D02*
X8053515Y-10361984D01*
X8053515Y-10361984D02*
X8043991Y-10352460D01*
X8043991Y-10352460D02*
X8053515Y-10342936D01*
X8053515Y-10342936D02*
X8053515Y-10361984D01*
X8186848Y-10161984D02*
X8205896Y-10161984D01*
X8205896Y-10161984D02*
X8224944Y-10171508D01*
X8224944Y-10171508D02*
X8234467Y-10181031D01*
X8234467Y-10181031D02*
X8243991Y-10200079D01*
X8243991Y-10200079D02*
X8253515Y-10238174D01*
X8253515Y-10238174D02*
X8253515Y-10285793D01*
X8253515Y-10285793D02*
X8243991Y-10323889D01*
X8243991Y-10323889D02*
X8234467Y-10342936D01*
X8234467Y-10342936D02*
X8224944Y-10352460D01*
X8224944Y-10352460D02*
X8205896Y-10361984D01*
X8205896Y-10361984D02*
X8186848Y-10361984D01*
X8186848Y-10361984D02*
X8167801Y-10352460D01*
X8167801Y-10352460D02*
X8158277Y-10342936D01*
X8158277Y-10342936D02*
X8148753Y-10323889D01*
X8148753Y-10323889D02*
X8139229Y-10285793D01*
X8139229Y-10285793D02*
X8139229Y-10238174D01*
X8139229Y-10238174D02*
X8148753Y-10200079D01*
X8148753Y-10200079D02*
X8158277Y-10181031D01*
X8158277Y-10181031D02*
X8167801Y-10171508D01*
X8167801Y-10171508D02*
X8186848Y-10161984D01*
X8320182Y-10161984D02*
X8443991Y-10161984D01*
X8443991Y-10161984D02*
X8377325Y-10238174D01*
X8377325Y-10238174D02*
X8405896Y-10238174D01*
X8405896Y-10238174D02*
X8424944Y-10247698D01*
X8424944Y-10247698D02*
X8434468Y-10257222D01*
X8434468Y-10257222D02*
X8443991Y-10276270D01*
X8443991Y-10276270D02*
X8443991Y-10323889D01*
X8443991Y-10323889D02*
X8434468Y-10342936D01*
X8434468Y-10342936D02*
X8424944Y-10352460D01*
X8424944Y-10352460D02*
X8405896Y-10361984D01*
X8405896Y-10361984D02*
X8348753Y-10361984D01*
X8348753Y-10361984D02*
X8329706Y-10352460D01*
X8329706Y-10352460D02*
X8320182Y-10342936D01*
X8624944Y-10161984D02*
X8529706Y-10161984D01*
X8529706Y-10161984D02*
X8520182Y-10257222D01*
X8520182Y-10257222D02*
X8529706Y-10247698D01*
X8529706Y-10247698D02*
X8548753Y-10238174D01*
X8548753Y-10238174D02*
X8596372Y-10238174D01*
X8596372Y-10238174D02*
X8615420Y-10247698D01*
X8615420Y-10247698D02*
X8624944Y-10257222D01*
X8624944Y-10257222D02*
X8634468Y-10276270D01*
X8634468Y-10276270D02*
X8634468Y-10323889D01*
X8634468Y-10323889D02*
X8624944Y-10342936D01*
X8624944Y-10342936D02*
X8615420Y-10352460D01*
X8615420Y-10352460D02*
X8596372Y-10361984D01*
X8596372Y-10361984D02*
X8548753Y-10361984D01*
X8548753Y-10361984D02*
X8529706Y-10352460D01*
X8529706Y-10352460D02*
X8520182Y-10342936D01*
X8805896Y-10228650D02*
X8805896Y-10361984D01*
X8758277Y-10152460D02*
X8710658Y-10295317D01*
X8710658Y-10295317D02*
X8834468Y-10295317D01*
X8901134Y-10161984D02*
X8901134Y-10200079D01*
X8977325Y-10161984D02*
X8977325Y-10200079D01*
X9272563Y-10438174D02*
X9263039Y-10428650D01*
X9263039Y-10428650D02*
X9243991Y-10400079D01*
X9243991Y-10400079D02*
X9234468Y-10381031D01*
X9234468Y-10381031D02*
X9224944Y-10352460D01*
X9224944Y-10352460D02*
X9215420Y-10304841D01*
X9215420Y-10304841D02*
X9215420Y-10266746D01*
X9215420Y-10266746D02*
X9224944Y-10219127D01*
X9224944Y-10219127D02*
X9234468Y-10190555D01*
X9234468Y-10190555D02*
X9243991Y-10171508D01*
X9243991Y-10171508D02*
X9263039Y-10142936D01*
X9263039Y-10142936D02*
X9272563Y-10133412D01*
X9339230Y-10181031D02*
X9348753Y-10171508D01*
X9348753Y-10171508D02*
X9367801Y-10161984D01*
X9367801Y-10161984D02*
X9415420Y-10161984D01*
X9415420Y-10161984D02*
X9434468Y-10171508D01*
X9434468Y-10171508D02*
X9443991Y-10181031D01*
X9443991Y-10181031D02*
X9453515Y-10200079D01*
X9453515Y-10200079D02*
X9453515Y-10219127D01*
X9453515Y-10219127D02*
X9443991Y-10247698D01*
X9443991Y-10247698D02*
X9329706Y-10361984D01*
X9329706Y-10361984D02*
X9453515Y-10361984D01*
X9691611Y-10361984D02*
X9691611Y-10161984D01*
X9777325Y-10361984D02*
X9777325Y-10257222D01*
X9777325Y-10257222D02*
X9767801Y-10238174D01*
X9767801Y-10238174D02*
X9748753Y-10228650D01*
X9748753Y-10228650D02*
X9720182Y-10228650D01*
X9720182Y-10228650D02*
X9701134Y-10238174D01*
X9701134Y-10238174D02*
X9691611Y-10247698D01*
X9901134Y-10361984D02*
X9882087Y-10352460D01*
X9882087Y-10352460D02*
X9872563Y-10342936D01*
X9872563Y-10342936D02*
X9863039Y-10323889D01*
X9863039Y-10323889D02*
X9863039Y-10266746D01*
X9863039Y-10266746D02*
X9872563Y-10247698D01*
X9872563Y-10247698D02*
X9882087Y-10238174D01*
X9882087Y-10238174D02*
X9901134Y-10228650D01*
X9901134Y-10228650D02*
X9929706Y-10228650D01*
X9929706Y-10228650D02*
X9948753Y-10238174D01*
X9948753Y-10238174D02*
X9958277Y-10247698D01*
X9958277Y-10247698D02*
X9967801Y-10266746D01*
X9967801Y-10266746D02*
X9967801Y-10323889D01*
X9967801Y-10323889D02*
X9958277Y-10342936D01*
X9958277Y-10342936D02*
X9948753Y-10352460D01*
X9948753Y-10352460D02*
X9929706Y-10361984D01*
X9929706Y-10361984D02*
X9901134Y-10361984D01*
X10082087Y-10361984D02*
X10063039Y-10352460D01*
X10063039Y-10352460D02*
X10053515Y-10333412D01*
X10053515Y-10333412D02*
X10053515Y-10161984D01*
X10234468Y-10352460D02*
X10215420Y-10361984D01*
X10215420Y-10361984D02*
X10177325Y-10361984D01*
X10177325Y-10361984D02*
X10158277Y-10352460D01*
X10158277Y-10352460D02*
X10148753Y-10333412D01*
X10148753Y-10333412D02*
X10148753Y-10257222D01*
X10148753Y-10257222D02*
X10158277Y-10238174D01*
X10158277Y-10238174D02*
X10177325Y-10228650D01*
X10177325Y-10228650D02*
X10215420Y-10228650D01*
X10215420Y-10228650D02*
X10234468Y-10238174D01*
X10234468Y-10238174D02*
X10243992Y-10257222D01*
X10243992Y-10257222D02*
X10243992Y-10276270D01*
X10243992Y-10276270D02*
X10148753Y-10295317D01*
X10320182Y-10352460D02*
X10339230Y-10361984D01*
X10339230Y-10361984D02*
X10377325Y-10361984D01*
X10377325Y-10361984D02*
X10396373Y-10352460D01*
X10396373Y-10352460D02*
X10405896Y-10333412D01*
X10405896Y-10333412D02*
X10405896Y-10323889D01*
X10405896Y-10323889D02*
X10396373Y-10304841D01*
X10396373Y-10304841D02*
X10377325Y-10295317D01*
X10377325Y-10295317D02*
X10348753Y-10295317D01*
X10348753Y-10295317D02*
X10329706Y-10285793D01*
X10329706Y-10285793D02*
X10320182Y-10266746D01*
X10320182Y-10266746D02*
X10320182Y-10257222D01*
X10320182Y-10257222D02*
X10329706Y-10238174D01*
X10329706Y-10238174D02*
X10348753Y-10228650D01*
X10348753Y-10228650D02*
X10377325Y-10228650D01*
X10377325Y-10228650D02*
X10396373Y-10238174D01*
X10472563Y-10438174D02*
X10482087Y-10428650D01*
X10482087Y-10428650D02*
X10501134Y-10400079D01*
X10501134Y-10400079D02*
X10510658Y-10381031D01*
X10510658Y-10381031D02*
X10520182Y-10352460D01*
X10520182Y-10352460D02*
X10529706Y-10304841D01*
X10529706Y-10304841D02*
X10529706Y-10266746D01*
X10529706Y-10266746D02*
X10520182Y-10219127D01*
X10520182Y-10219127D02*
X10510658Y-10190555D01*
X10510658Y-10190555D02*
X10501134Y-10171508D01*
X10501134Y-10171508D02*
X10482087Y-10142936D01*
X10482087Y-10142936D02*
X10472563Y-10133412D01*
D12*
X5682856Y-10569856D02*
X5682856Y-10499144D01*
X5612144Y-10499144D01*
X5612144Y-10569856D01*
X5682856Y-10569856D01*
D11*
X6063039Y-10625984D02*
X5948753Y-10625984D01*
X6005896Y-10625984D02*
X6005896Y-10425984D01*
X6005896Y-10425984D02*
X5986848Y-10454555D01*
X5986848Y-10454555D02*
X5967801Y-10473603D01*
X5967801Y-10473603D02*
X5948753Y-10483127D01*
X6148753Y-10606936D02*
X6158277Y-10616460D01*
X6158277Y-10616460D02*
X6148753Y-10625984D01*
X6148753Y-10625984D02*
X6139229Y-10616460D01*
X6139229Y-10616460D02*
X6148753Y-10606936D01*
X6148753Y-10606936D02*
X6148753Y-10625984D01*
X6282086Y-10425984D02*
X6301134Y-10425984D01*
X6301134Y-10425984D02*
X6320182Y-10435508D01*
X6320182Y-10435508D02*
X6329705Y-10445031D01*
X6329705Y-10445031D02*
X6339229Y-10464079D01*
X6339229Y-10464079D02*
X6348753Y-10502174D01*
X6348753Y-10502174D02*
X6348753Y-10549793D01*
X6348753Y-10549793D02*
X6339229Y-10587889D01*
X6339229Y-10587889D02*
X6329705Y-10606936D01*
X6329705Y-10606936D02*
X6320182Y-10616460D01*
X6320182Y-10616460D02*
X6301134Y-10625984D01*
X6301134Y-10625984D02*
X6282086Y-10625984D01*
X6282086Y-10625984D02*
X6263039Y-10616460D01*
X6263039Y-10616460D02*
X6253515Y-10606936D01*
X6253515Y-10606936D02*
X6243991Y-10587889D01*
X6243991Y-10587889D02*
X6234467Y-10549793D01*
X6234467Y-10549793D02*
X6234467Y-10502174D01*
X6234467Y-10502174D02*
X6243991Y-10464079D01*
X6243991Y-10464079D02*
X6253515Y-10445031D01*
X6253515Y-10445031D02*
X6263039Y-10435508D01*
X6263039Y-10435508D02*
X6282086Y-10425984D01*
X6472562Y-10425984D02*
X6491610Y-10425984D01*
X6491610Y-10425984D02*
X6510658Y-10435508D01*
X6510658Y-10435508D02*
X6520182Y-10445031D01*
X6520182Y-10445031D02*
X6529705Y-10464079D01*
X6529705Y-10464079D02*
X6539229Y-10502174D01*
X6539229Y-10502174D02*
X6539229Y-10549793D01*
X6539229Y-10549793D02*
X6529705Y-10587889D01*
X6529705Y-10587889D02*
X6520182Y-10606936D01*
X6520182Y-10606936D02*
X6510658Y-10616460D01*
X6510658Y-10616460D02*
X6491610Y-10625984D01*
X6491610Y-10625984D02*
X6472562Y-10625984D01*
X6472562Y-10625984D02*
X6453515Y-10616460D01*
X6453515Y-10616460D02*
X6443991Y-10606936D01*
X6443991Y-10606936D02*
X6434467Y-10587889D01*
X6434467Y-10587889D02*
X6424943Y-10549793D01*
X6424943Y-10549793D02*
X6424943Y-10502174D01*
X6424943Y-10502174D02*
X6434467Y-10464079D01*
X6434467Y-10464079D02*
X6443991Y-10445031D01*
X6443991Y-10445031D02*
X6453515Y-10435508D01*
X6453515Y-10435508D02*
X6472562Y-10425984D01*
X6663039Y-10425984D02*
X6682086Y-10425984D01*
X6682086Y-10425984D02*
X6701134Y-10435508D01*
X6701134Y-10435508D02*
X6710658Y-10445031D01*
X6710658Y-10445031D02*
X6720182Y-10464079D01*
X6720182Y-10464079D02*
X6729705Y-10502174D01*
X6729705Y-10502174D02*
X6729705Y-10549793D01*
X6729705Y-10549793D02*
X6720182Y-10587889D01*
X6720182Y-10587889D02*
X6710658Y-10606936D01*
X6710658Y-10606936D02*
X6701134Y-10616460D01*
X6701134Y-10616460D02*
X6682086Y-10625984D01*
X6682086Y-10625984D02*
X6663039Y-10625984D01*
X6663039Y-10625984D02*
X6643991Y-10616460D01*
X6643991Y-10616460D02*
X6634467Y-10606936D01*
X6634467Y-10606936D02*
X6624943Y-10587889D01*
X6624943Y-10587889D02*
X6615420Y-10549793D01*
X6615420Y-10549793D02*
X6615420Y-10502174D01*
X6615420Y-10502174D02*
X6624943Y-10464079D01*
X6624943Y-10464079D02*
X6634467Y-10445031D01*
X6634467Y-10445031D02*
X6643991Y-10435508D01*
X6643991Y-10435508D02*
X6663039Y-10425984D01*
X6815420Y-10625984D02*
X6815420Y-10492650D01*
X6815420Y-10511698D02*
X6824943Y-10502174D01*
X6824943Y-10502174D02*
X6843991Y-10492650D01*
X6843991Y-10492650D02*
X6872563Y-10492650D01*
X6872563Y-10492650D02*
X6891610Y-10502174D01*
X6891610Y-10502174D02*
X6901134Y-10521222D01*
X6901134Y-10521222D02*
X6901134Y-10625984D01*
X6901134Y-10521222D02*
X6910658Y-10502174D01*
X6910658Y-10502174D02*
X6929705Y-10492650D01*
X6929705Y-10492650D02*
X6958277Y-10492650D01*
X6958277Y-10492650D02*
X6977324Y-10502174D01*
X6977324Y-10502174D02*
X6986848Y-10521222D01*
X6986848Y-10521222D02*
X6986848Y-10625984D01*
X7082086Y-10625984D02*
X7082086Y-10492650D01*
X7082086Y-10511698D02*
X7091610Y-10502174D01*
X7091610Y-10502174D02*
X7110658Y-10492650D01*
X7110658Y-10492650D02*
X7139229Y-10492650D01*
X7139229Y-10492650D02*
X7158277Y-10502174D01*
X7158277Y-10502174D02*
X7167801Y-10521222D01*
X7167801Y-10521222D02*
X7167801Y-10625984D01*
X7167801Y-10521222D02*
X7177324Y-10502174D01*
X7177324Y-10502174D02*
X7196372Y-10492650D01*
X7196372Y-10492650D02*
X7224943Y-10492650D01*
X7224943Y-10492650D02*
X7243991Y-10502174D01*
X7243991Y-10502174D02*
X7253515Y-10521222D01*
X7253515Y-10521222D02*
X7253515Y-10625984D01*
X7643991Y-10416460D02*
X7472563Y-10673603D01*
X7901134Y-10425984D02*
X7920182Y-10425984D01*
X7920182Y-10425984D02*
X7939229Y-10435508D01*
X7939229Y-10435508D02*
X7948753Y-10445031D01*
X7948753Y-10445031D02*
X7958277Y-10464079D01*
X7958277Y-10464079D02*
X7967801Y-10502174D01*
X7967801Y-10502174D02*
X7967801Y-10549793D01*
X7967801Y-10549793D02*
X7958277Y-10587889D01*
X7958277Y-10587889D02*
X7948753Y-10606936D01*
X7948753Y-10606936D02*
X7939229Y-10616460D01*
X7939229Y-10616460D02*
X7920182Y-10625984D01*
X7920182Y-10625984D02*
X7901134Y-10625984D01*
X7901134Y-10625984D02*
X7882086Y-10616460D01*
X7882086Y-10616460D02*
X7872563Y-10606936D01*
X7872563Y-10606936D02*
X7863039Y-10587889D01*
X7863039Y-10587889D02*
X7853515Y-10549793D01*
X7853515Y-10549793D02*
X7853515Y-10502174D01*
X7853515Y-10502174D02*
X7863039Y-10464079D01*
X7863039Y-10464079D02*
X7872563Y-10445031D01*
X7872563Y-10445031D02*
X7882086Y-10435508D01*
X7882086Y-10435508D02*
X7901134Y-10425984D01*
X8053515Y-10606936D02*
X8063039Y-10616460D01*
X8063039Y-10616460D02*
X8053515Y-10625984D01*
X8053515Y-10625984D02*
X8043991Y-10616460D01*
X8043991Y-10616460D02*
X8053515Y-10606936D01*
X8053515Y-10606936D02*
X8053515Y-10625984D01*
X8186848Y-10425984D02*
X8205896Y-10425984D01*
X8205896Y-10425984D02*
X8224944Y-10435508D01*
X8224944Y-10435508D02*
X8234467Y-10445031D01*
X8234467Y-10445031D02*
X8243991Y-10464079D01*
X8243991Y-10464079D02*
X8253515Y-10502174D01*
X8253515Y-10502174D02*
X8253515Y-10549793D01*
X8253515Y-10549793D02*
X8243991Y-10587889D01*
X8243991Y-10587889D02*
X8234467Y-10606936D01*
X8234467Y-10606936D02*
X8224944Y-10616460D01*
X8224944Y-10616460D02*
X8205896Y-10625984D01*
X8205896Y-10625984D02*
X8186848Y-10625984D01*
X8186848Y-10625984D02*
X8167801Y-10616460D01*
X8167801Y-10616460D02*
X8158277Y-10606936D01*
X8158277Y-10606936D02*
X8148753Y-10587889D01*
X8148753Y-10587889D02*
X8139229Y-10549793D01*
X8139229Y-10549793D02*
X8139229Y-10502174D01*
X8139229Y-10502174D02*
X8148753Y-10464079D01*
X8148753Y-10464079D02*
X8158277Y-10445031D01*
X8158277Y-10445031D02*
X8167801Y-10435508D01*
X8167801Y-10435508D02*
X8186848Y-10425984D01*
X8320182Y-10425984D02*
X8443991Y-10425984D01*
X8443991Y-10425984D02*
X8377325Y-10502174D01*
X8377325Y-10502174D02*
X8405896Y-10502174D01*
X8405896Y-10502174D02*
X8424944Y-10511698D01*
X8424944Y-10511698D02*
X8434468Y-10521222D01*
X8434468Y-10521222D02*
X8443991Y-10540270D01*
X8443991Y-10540270D02*
X8443991Y-10587889D01*
X8443991Y-10587889D02*
X8434468Y-10606936D01*
X8434468Y-10606936D02*
X8424944Y-10616460D01*
X8424944Y-10616460D02*
X8405896Y-10625984D01*
X8405896Y-10625984D02*
X8348753Y-10625984D01*
X8348753Y-10625984D02*
X8329706Y-10616460D01*
X8329706Y-10616460D02*
X8320182Y-10606936D01*
X8539229Y-10625984D02*
X8577325Y-10625984D01*
X8577325Y-10625984D02*
X8596372Y-10616460D01*
X8596372Y-10616460D02*
X8605896Y-10606936D01*
X8605896Y-10606936D02*
X8624944Y-10578365D01*
X8624944Y-10578365D02*
X8634468Y-10540270D01*
X8634468Y-10540270D02*
X8634468Y-10464079D01*
X8634468Y-10464079D02*
X8624944Y-10445031D01*
X8624944Y-10445031D02*
X8615420Y-10435508D01*
X8615420Y-10435508D02*
X8596372Y-10425984D01*
X8596372Y-10425984D02*
X8558277Y-10425984D01*
X8558277Y-10425984D02*
X8539229Y-10435508D01*
X8539229Y-10435508D02*
X8529706Y-10445031D01*
X8529706Y-10445031D02*
X8520182Y-10464079D01*
X8520182Y-10464079D02*
X8520182Y-10511698D01*
X8520182Y-10511698D02*
X8529706Y-10530746D01*
X8529706Y-10530746D02*
X8539229Y-10540270D01*
X8539229Y-10540270D02*
X8558277Y-10549793D01*
X8558277Y-10549793D02*
X8596372Y-10549793D01*
X8596372Y-10549793D02*
X8615420Y-10540270D01*
X8615420Y-10540270D02*
X8624944Y-10530746D01*
X8624944Y-10530746D02*
X8634468Y-10511698D01*
X8805896Y-10492650D02*
X8805896Y-10625984D01*
X8758277Y-10416460D02*
X8710658Y-10559317D01*
X8710658Y-10559317D02*
X8834468Y-10559317D01*
X8901134Y-10425984D02*
X8901134Y-10464079D01*
X8977325Y-10425984D02*
X8977325Y-10464079D01*
X9272563Y-10702174D02*
X9263039Y-10692650D01*
X9263039Y-10692650D02*
X9243991Y-10664079D01*
X9243991Y-10664079D02*
X9234468Y-10645031D01*
X9234468Y-10645031D02*
X9224944Y-10616460D01*
X9224944Y-10616460D02*
X9215420Y-10568841D01*
X9215420Y-10568841D02*
X9215420Y-10530746D01*
X9215420Y-10530746D02*
X9224944Y-10483127D01*
X9224944Y-10483127D02*
X9234468Y-10454555D01*
X9234468Y-10454555D02*
X9243991Y-10435508D01*
X9243991Y-10435508D02*
X9263039Y-10406936D01*
X9263039Y-10406936D02*
X9272563Y-10397412D01*
X9329706Y-10425984D02*
X9453515Y-10425984D01*
X9453515Y-10425984D02*
X9386849Y-10502174D01*
X9386849Y-10502174D02*
X9415420Y-10502174D01*
X9415420Y-10502174D02*
X9434468Y-10511698D01*
X9434468Y-10511698D02*
X9443991Y-10521222D01*
X9443991Y-10521222D02*
X9453515Y-10540270D01*
X9453515Y-10540270D02*
X9453515Y-10587889D01*
X9453515Y-10587889D02*
X9443991Y-10606936D01*
X9443991Y-10606936D02*
X9434468Y-10616460D01*
X9434468Y-10616460D02*
X9415420Y-10625984D01*
X9415420Y-10625984D02*
X9358277Y-10625984D01*
X9358277Y-10625984D02*
X9339230Y-10616460D01*
X9339230Y-10616460D02*
X9329706Y-10606936D01*
X9577325Y-10425984D02*
X9596372Y-10425984D01*
X9596372Y-10425984D02*
X9615420Y-10435508D01*
X9615420Y-10435508D02*
X9624944Y-10445031D01*
X9624944Y-10445031D02*
X9634468Y-10464079D01*
X9634468Y-10464079D02*
X9643991Y-10502174D01*
X9643991Y-10502174D02*
X9643991Y-10549793D01*
X9643991Y-10549793D02*
X9634468Y-10587889D01*
X9634468Y-10587889D02*
X9624944Y-10606936D01*
X9624944Y-10606936D02*
X9615420Y-10616460D01*
X9615420Y-10616460D02*
X9596372Y-10625984D01*
X9596372Y-10625984D02*
X9577325Y-10625984D01*
X9577325Y-10625984D02*
X9558277Y-10616460D01*
X9558277Y-10616460D02*
X9548753Y-10606936D01*
X9548753Y-10606936D02*
X9539230Y-10587889D01*
X9539230Y-10587889D02*
X9529706Y-10549793D01*
X9529706Y-10549793D02*
X9529706Y-10502174D01*
X9529706Y-10502174D02*
X9539230Y-10464079D01*
X9539230Y-10464079D02*
X9548753Y-10445031D01*
X9548753Y-10445031D02*
X9558277Y-10435508D01*
X9558277Y-10435508D02*
X9577325Y-10425984D01*
X9882087Y-10625984D02*
X9882087Y-10425984D01*
X9967801Y-10625984D02*
X9967801Y-10521222D01*
X9967801Y-10521222D02*
X9958277Y-10502174D01*
X9958277Y-10502174D02*
X9939230Y-10492650D01*
X9939230Y-10492650D02*
X9910658Y-10492650D01*
X9910658Y-10492650D02*
X9891611Y-10502174D01*
X9891611Y-10502174D02*
X9882087Y-10511698D01*
X10091611Y-10625984D02*
X10072563Y-10616460D01*
X10072563Y-10616460D02*
X10063039Y-10606936D01*
X10063039Y-10606936D02*
X10053515Y-10587889D01*
X10053515Y-10587889D02*
X10053515Y-10530746D01*
X10053515Y-10530746D02*
X10063039Y-10511698D01*
X10063039Y-10511698D02*
X10072563Y-10502174D01*
X10072563Y-10502174D02*
X10091611Y-10492650D01*
X10091611Y-10492650D02*
X10120182Y-10492650D01*
X10120182Y-10492650D02*
X10139230Y-10502174D01*
X10139230Y-10502174D02*
X10148753Y-10511698D01*
X10148753Y-10511698D02*
X10158277Y-10530746D01*
X10158277Y-10530746D02*
X10158277Y-10587889D01*
X10158277Y-10587889D02*
X10148753Y-10606936D01*
X10148753Y-10606936D02*
X10139230Y-10616460D01*
X10139230Y-10616460D02*
X10120182Y-10625984D01*
X10120182Y-10625984D02*
X10091611Y-10625984D01*
X10272563Y-10625984D02*
X10253515Y-10616460D01*
X10253515Y-10616460D02*
X10243992Y-10597412D01*
X10243992Y-10597412D02*
X10243992Y-10425984D01*
X10424944Y-10616460D02*
X10405896Y-10625984D01*
X10405896Y-10625984D02*
X10367801Y-10625984D01*
X10367801Y-10625984D02*
X10348753Y-10616460D01*
X10348753Y-10616460D02*
X10339230Y-10597412D01*
X10339230Y-10597412D02*
X10339230Y-10521222D01*
X10339230Y-10521222D02*
X10348753Y-10502174D01*
X10348753Y-10502174D02*
X10367801Y-10492650D01*
X10367801Y-10492650D02*
X10405896Y-10492650D01*
X10405896Y-10492650D02*
X10424944Y-10502174D01*
X10424944Y-10502174D02*
X10434468Y-10521222D01*
X10434468Y-10521222D02*
X10434468Y-10540270D01*
X10434468Y-10540270D02*
X10339230Y-10559317D01*
X10510658Y-10616460D02*
X10529706Y-10625984D01*
X10529706Y-10625984D02*
X10567801Y-10625984D01*
X10567801Y-10625984D02*
X10586849Y-10616460D01*
X10586849Y-10616460D02*
X10596373Y-10597412D01*
X10596373Y-10597412D02*
X10596373Y-10587889D01*
X10596373Y-10587889D02*
X10586849Y-10568841D01*
X10586849Y-10568841D02*
X10567801Y-10559317D01*
X10567801Y-10559317D02*
X10539230Y-10559317D01*
X10539230Y-10559317D02*
X10520182Y-10549793D01*
X10520182Y-10549793D02*
X10510658Y-10530746D01*
X10510658Y-10530746D02*
X10510658Y-10521222D01*
X10510658Y-10521222D02*
X10520182Y-10502174D01*
X10520182Y-10502174D02*
X10539230Y-10492650D01*
X10539230Y-10492650D02*
X10567801Y-10492650D01*
X10567801Y-10492650D02*
X10586849Y-10502174D01*
X10663039Y-10702174D02*
X10672563Y-10692650D01*
X10672563Y-10692650D02*
X10691611Y-10664079D01*
X10691611Y-10664079D02*
X10701134Y-10645031D01*
X10701134Y-10645031D02*
X10710658Y-10616460D01*
X10710658Y-10616460D02*
X10720182Y-10568841D01*
X10720182Y-10568841D02*
X10720182Y-10530746D01*
X10720182Y-10530746D02*
X10710658Y-10483127D01*
X10710658Y-10483127D02*
X10701134Y-10454555D01*
X10701134Y-10454555D02*
X10691611Y-10435508D01*
X10691611Y-10435508D02*
X10672563Y-10406936D01*
X10672563Y-10406936D02*
X10663039Y-10397412D01*
D13*
X5642500Y-10853500D02*
X5697500Y-10798500D01*
X5642500Y-10743500D01*
X5587500Y-10798500D01*
X5642500Y-10853500D01*
D11*
X6063039Y-10889984D02*
X5948753Y-10889984D01*
X6005896Y-10889984D02*
X6005896Y-10689984D01*
X6005896Y-10689984D02*
X5986848Y-10718555D01*
X5986848Y-10718555D02*
X5967801Y-10737603D01*
X5967801Y-10737603D02*
X5948753Y-10747127D01*
X6148753Y-10870936D02*
X6158277Y-10880460D01*
X6158277Y-10880460D02*
X6148753Y-10889984D01*
X6148753Y-10889984D02*
X6139229Y-10880460D01*
X6139229Y-10880460D02*
X6148753Y-10870936D01*
X6148753Y-10870936D02*
X6148753Y-10889984D01*
X6348753Y-10889984D02*
X6234467Y-10889984D01*
X6291610Y-10889984D02*
X6291610Y-10689984D01*
X6291610Y-10689984D02*
X6272562Y-10718555D01*
X6272562Y-10718555D02*
X6253515Y-10737603D01*
X6253515Y-10737603D02*
X6234467Y-10747127D01*
X6472562Y-10689984D02*
X6491610Y-10689984D01*
X6491610Y-10689984D02*
X6510658Y-10699508D01*
X6510658Y-10699508D02*
X6520182Y-10709031D01*
X6520182Y-10709031D02*
X6529705Y-10728079D01*
X6529705Y-10728079D02*
X6539229Y-10766174D01*
X6539229Y-10766174D02*
X6539229Y-10813793D01*
X6539229Y-10813793D02*
X6529705Y-10851889D01*
X6529705Y-10851889D02*
X6520182Y-10870936D01*
X6520182Y-10870936D02*
X6510658Y-10880460D01*
X6510658Y-10880460D02*
X6491610Y-10889984D01*
X6491610Y-10889984D02*
X6472562Y-10889984D01*
X6472562Y-10889984D02*
X6453515Y-10880460D01*
X6453515Y-10880460D02*
X6443991Y-10870936D01*
X6443991Y-10870936D02*
X6434467Y-10851889D01*
X6434467Y-10851889D02*
X6424943Y-10813793D01*
X6424943Y-10813793D02*
X6424943Y-10766174D01*
X6424943Y-10766174D02*
X6434467Y-10728079D01*
X6434467Y-10728079D02*
X6443991Y-10709031D01*
X6443991Y-10709031D02*
X6453515Y-10699508D01*
X6453515Y-10699508D02*
X6472562Y-10689984D01*
X6663039Y-10689984D02*
X6682086Y-10689984D01*
X6682086Y-10689984D02*
X6701134Y-10699508D01*
X6701134Y-10699508D02*
X6710658Y-10709031D01*
X6710658Y-10709031D02*
X6720182Y-10728079D01*
X6720182Y-10728079D02*
X6729705Y-10766174D01*
X6729705Y-10766174D02*
X6729705Y-10813793D01*
X6729705Y-10813793D02*
X6720182Y-10851889D01*
X6720182Y-10851889D02*
X6710658Y-10870936D01*
X6710658Y-10870936D02*
X6701134Y-10880460D01*
X6701134Y-10880460D02*
X6682086Y-10889984D01*
X6682086Y-10889984D02*
X6663039Y-10889984D01*
X6663039Y-10889984D02*
X6643991Y-10880460D01*
X6643991Y-10880460D02*
X6634467Y-10870936D01*
X6634467Y-10870936D02*
X6624943Y-10851889D01*
X6624943Y-10851889D02*
X6615420Y-10813793D01*
X6615420Y-10813793D02*
X6615420Y-10766174D01*
X6615420Y-10766174D02*
X6624943Y-10728079D01*
X6624943Y-10728079D02*
X6634467Y-10709031D01*
X6634467Y-10709031D02*
X6643991Y-10699508D01*
X6643991Y-10699508D02*
X6663039Y-10689984D01*
X6815420Y-10889984D02*
X6815420Y-10756650D01*
X6815420Y-10775698D02*
X6824943Y-10766174D01*
X6824943Y-10766174D02*
X6843991Y-10756650D01*
X6843991Y-10756650D02*
X6872563Y-10756650D01*
X6872563Y-10756650D02*
X6891610Y-10766174D01*
X6891610Y-10766174D02*
X6901134Y-10785222D01*
X6901134Y-10785222D02*
X6901134Y-10889984D01*
X6901134Y-10785222D02*
X6910658Y-10766174D01*
X6910658Y-10766174D02*
X6929705Y-10756650D01*
X6929705Y-10756650D02*
X6958277Y-10756650D01*
X6958277Y-10756650D02*
X6977324Y-10766174D01*
X6977324Y-10766174D02*
X6986848Y-10785222D01*
X6986848Y-10785222D02*
X6986848Y-10889984D01*
X7082086Y-10889984D02*
X7082086Y-10756650D01*
X7082086Y-10775698D02*
X7091610Y-10766174D01*
X7091610Y-10766174D02*
X7110658Y-10756650D01*
X7110658Y-10756650D02*
X7139229Y-10756650D01*
X7139229Y-10756650D02*
X7158277Y-10766174D01*
X7158277Y-10766174D02*
X7167801Y-10785222D01*
X7167801Y-10785222D02*
X7167801Y-10889984D01*
X7167801Y-10785222D02*
X7177324Y-10766174D01*
X7177324Y-10766174D02*
X7196372Y-10756650D01*
X7196372Y-10756650D02*
X7224943Y-10756650D01*
X7224943Y-10756650D02*
X7243991Y-10766174D01*
X7243991Y-10766174D02*
X7253515Y-10785222D01*
X7253515Y-10785222D02*
X7253515Y-10889984D01*
X7643991Y-10680460D02*
X7472563Y-10937603D01*
X7901134Y-10689984D02*
X7920182Y-10689984D01*
X7920182Y-10689984D02*
X7939229Y-10699508D01*
X7939229Y-10699508D02*
X7948753Y-10709031D01*
X7948753Y-10709031D02*
X7958277Y-10728079D01*
X7958277Y-10728079D02*
X7967801Y-10766174D01*
X7967801Y-10766174D02*
X7967801Y-10813793D01*
X7967801Y-10813793D02*
X7958277Y-10851889D01*
X7958277Y-10851889D02*
X7948753Y-10870936D01*
X7948753Y-10870936D02*
X7939229Y-10880460D01*
X7939229Y-10880460D02*
X7920182Y-10889984D01*
X7920182Y-10889984D02*
X7901134Y-10889984D01*
X7901134Y-10889984D02*
X7882086Y-10880460D01*
X7882086Y-10880460D02*
X7872563Y-10870936D01*
X7872563Y-10870936D02*
X7863039Y-10851889D01*
X7863039Y-10851889D02*
X7853515Y-10813793D01*
X7853515Y-10813793D02*
X7853515Y-10766174D01*
X7853515Y-10766174D02*
X7863039Y-10728079D01*
X7863039Y-10728079D02*
X7872563Y-10709031D01*
X7872563Y-10709031D02*
X7882086Y-10699508D01*
X7882086Y-10699508D02*
X7901134Y-10689984D01*
X8053515Y-10870936D02*
X8063039Y-10880460D01*
X8063039Y-10880460D02*
X8053515Y-10889984D01*
X8053515Y-10889984D02*
X8043991Y-10880460D01*
X8043991Y-10880460D02*
X8053515Y-10870936D01*
X8053515Y-10870936D02*
X8053515Y-10889984D01*
X8186848Y-10689984D02*
X8205896Y-10689984D01*
X8205896Y-10689984D02*
X8224944Y-10699508D01*
X8224944Y-10699508D02*
X8234467Y-10709031D01*
X8234467Y-10709031D02*
X8243991Y-10728079D01*
X8243991Y-10728079D02*
X8253515Y-10766174D01*
X8253515Y-10766174D02*
X8253515Y-10813793D01*
X8253515Y-10813793D02*
X8243991Y-10851889D01*
X8243991Y-10851889D02*
X8234467Y-10870936D01*
X8234467Y-10870936D02*
X8224944Y-10880460D01*
X8224944Y-10880460D02*
X8205896Y-10889984D01*
X8205896Y-10889984D02*
X8186848Y-10889984D01*
X8186848Y-10889984D02*
X8167801Y-10880460D01*
X8167801Y-10880460D02*
X8158277Y-10870936D01*
X8158277Y-10870936D02*
X8148753Y-10851889D01*
X8148753Y-10851889D02*
X8139229Y-10813793D01*
X8139229Y-10813793D02*
X8139229Y-10766174D01*
X8139229Y-10766174D02*
X8148753Y-10728079D01*
X8148753Y-10728079D02*
X8158277Y-10709031D01*
X8158277Y-10709031D02*
X8167801Y-10699508D01*
X8167801Y-10699508D02*
X8186848Y-10689984D01*
X8424944Y-10756650D02*
X8424944Y-10889984D01*
X8377325Y-10680460D02*
X8329706Y-10823317D01*
X8329706Y-10823317D02*
X8453515Y-10823317D01*
X8510658Y-10689984D02*
X8634468Y-10689984D01*
X8634468Y-10689984D02*
X8567801Y-10766174D01*
X8567801Y-10766174D02*
X8596372Y-10766174D01*
X8596372Y-10766174D02*
X8615420Y-10775698D01*
X8615420Y-10775698D02*
X8624944Y-10785222D01*
X8624944Y-10785222D02*
X8634468Y-10804270D01*
X8634468Y-10804270D02*
X8634468Y-10851889D01*
X8634468Y-10851889D02*
X8624944Y-10870936D01*
X8624944Y-10870936D02*
X8615420Y-10880460D01*
X8615420Y-10880460D02*
X8596372Y-10889984D01*
X8596372Y-10889984D02*
X8539229Y-10889984D01*
X8539229Y-10889984D02*
X8520182Y-10880460D01*
X8520182Y-10880460D02*
X8510658Y-10870936D01*
X8701134Y-10689984D02*
X8824944Y-10689984D01*
X8824944Y-10689984D02*
X8758277Y-10766174D01*
X8758277Y-10766174D02*
X8786849Y-10766174D01*
X8786849Y-10766174D02*
X8805896Y-10775698D01*
X8805896Y-10775698D02*
X8815420Y-10785222D01*
X8815420Y-10785222D02*
X8824944Y-10804270D01*
X8824944Y-10804270D02*
X8824944Y-10851889D01*
X8824944Y-10851889D02*
X8815420Y-10870936D01*
X8815420Y-10870936D02*
X8805896Y-10880460D01*
X8805896Y-10880460D02*
X8786849Y-10889984D01*
X8786849Y-10889984D02*
X8729706Y-10889984D01*
X8729706Y-10889984D02*
X8710658Y-10880460D01*
X8710658Y-10880460D02*
X8701134Y-10870936D01*
X8901134Y-10689984D02*
X8901134Y-10728079D01*
X8977325Y-10689984D02*
X8977325Y-10728079D01*
X9272563Y-10966174D02*
X9263039Y-10956650D01*
X9263039Y-10956650D02*
X9243991Y-10928079D01*
X9243991Y-10928079D02*
X9234468Y-10909031D01*
X9234468Y-10909031D02*
X9224944Y-10880460D01*
X9224944Y-10880460D02*
X9215420Y-10832841D01*
X9215420Y-10832841D02*
X9215420Y-10794746D01*
X9215420Y-10794746D02*
X9224944Y-10747127D01*
X9224944Y-10747127D02*
X9234468Y-10718555D01*
X9234468Y-10718555D02*
X9243991Y-10699508D01*
X9243991Y-10699508D02*
X9263039Y-10670936D01*
X9263039Y-10670936D02*
X9272563Y-10661412D01*
X9453515Y-10889984D02*
X9339230Y-10889984D01*
X9396372Y-10889984D02*
X9396372Y-10689984D01*
X9396372Y-10689984D02*
X9377325Y-10718555D01*
X9377325Y-10718555D02*
X9358277Y-10737603D01*
X9358277Y-10737603D02*
X9339230Y-10747127D01*
X9529706Y-10709031D02*
X9539230Y-10699508D01*
X9539230Y-10699508D02*
X9558277Y-10689984D01*
X9558277Y-10689984D02*
X9605896Y-10689984D01*
X9605896Y-10689984D02*
X9624944Y-10699508D01*
X9624944Y-10699508D02*
X9634468Y-10709031D01*
X9634468Y-10709031D02*
X9643991Y-10728079D01*
X9643991Y-10728079D02*
X9643991Y-10747127D01*
X9643991Y-10747127D02*
X9634468Y-10775698D01*
X9634468Y-10775698D02*
X9520182Y-10889984D01*
X9520182Y-10889984D02*
X9643991Y-10889984D01*
X9882087Y-10889984D02*
X9882087Y-10689984D01*
X9967801Y-10889984D02*
X9967801Y-10785222D01*
X9967801Y-10785222D02*
X9958277Y-10766174D01*
X9958277Y-10766174D02*
X9939230Y-10756650D01*
X9939230Y-10756650D02*
X9910658Y-10756650D01*
X9910658Y-10756650D02*
X9891611Y-10766174D01*
X9891611Y-10766174D02*
X9882087Y-10775698D01*
X10091611Y-10889984D02*
X10072563Y-10880460D01*
X10072563Y-10880460D02*
X10063039Y-10870936D01*
X10063039Y-10870936D02*
X10053515Y-10851889D01*
X10053515Y-10851889D02*
X10053515Y-10794746D01*
X10053515Y-10794746D02*
X10063039Y-10775698D01*
X10063039Y-10775698D02*
X10072563Y-10766174D01*
X10072563Y-10766174D02*
X10091611Y-10756650D01*
X10091611Y-10756650D02*
X10120182Y-10756650D01*
X10120182Y-10756650D02*
X10139230Y-10766174D01*
X10139230Y-10766174D02*
X10148753Y-10775698D01*
X10148753Y-10775698D02*
X10158277Y-10794746D01*
X10158277Y-10794746D02*
X10158277Y-10851889D01*
X10158277Y-10851889D02*
X10148753Y-10870936D01*
X10148753Y-10870936D02*
X10139230Y-10880460D01*
X10139230Y-10880460D02*
X10120182Y-10889984D01*
X10120182Y-10889984D02*
X10091611Y-10889984D01*
X10272563Y-10889984D02*
X10253515Y-10880460D01*
X10253515Y-10880460D02*
X10243992Y-10861412D01*
X10243992Y-10861412D02*
X10243992Y-10689984D01*
X10424944Y-10880460D02*
X10405896Y-10889984D01*
X10405896Y-10889984D02*
X10367801Y-10889984D01*
X10367801Y-10889984D02*
X10348753Y-10880460D01*
X10348753Y-10880460D02*
X10339230Y-10861412D01*
X10339230Y-10861412D02*
X10339230Y-10785222D01*
X10339230Y-10785222D02*
X10348753Y-10766174D01*
X10348753Y-10766174D02*
X10367801Y-10756650D01*
X10367801Y-10756650D02*
X10405896Y-10756650D01*
X10405896Y-10756650D02*
X10424944Y-10766174D01*
X10424944Y-10766174D02*
X10434468Y-10785222D01*
X10434468Y-10785222D02*
X10434468Y-10804270D01*
X10434468Y-10804270D02*
X10339230Y-10823317D01*
X10510658Y-10880460D02*
X10529706Y-10889984D01*
X10529706Y-10889984D02*
X10567801Y-10889984D01*
X10567801Y-10889984D02*
X10586849Y-10880460D01*
X10586849Y-10880460D02*
X10596373Y-10861412D01*
X10596373Y-10861412D02*
X10596373Y-10851889D01*
X10596373Y-10851889D02*
X10586849Y-10832841D01*
X10586849Y-10832841D02*
X10567801Y-10823317D01*
X10567801Y-10823317D02*
X10539230Y-10823317D01*
X10539230Y-10823317D02*
X10520182Y-10813793D01*
X10520182Y-10813793D02*
X10510658Y-10794746D01*
X10510658Y-10794746D02*
X10510658Y-10785222D01*
X10510658Y-10785222D02*
X10520182Y-10766174D01*
X10520182Y-10766174D02*
X10539230Y-10756650D01*
X10539230Y-10756650D02*
X10567801Y-10756650D01*
X10567801Y-10756650D02*
X10586849Y-10766174D01*
X10663039Y-10966174D02*
X10672563Y-10956650D01*
X10672563Y-10956650D02*
X10691611Y-10928079D01*
X10691611Y-10928079D02*
X10701134Y-10909031D01*
X10701134Y-10909031D02*
X10710658Y-10880460D01*
X10710658Y-10880460D02*
X10720182Y-10832841D01*
X10720182Y-10832841D02*
X10720182Y-10794746D01*
X10720182Y-10794746D02*
X10710658Y-10747127D01*
X10710658Y-10747127D02*
X10701134Y-10718555D01*
X10701134Y-10718555D02*
X10691611Y-10699508D01*
X10691611Y-10699508D02*
X10672563Y-10670936D01*
X10672563Y-10670936D02*
X10663039Y-10661412D01*
M02*
