%TF.GenerationSoftware,KiCad,Pcbnew,10.0.0*%
%TF.CreationDate,2026-04-07T21:07:38+03:00*%
%TF.ProjectId,beginning-project,62656769-6e6e-4696-9e67-2d70726f6a65,rev?*%
%TF.SameCoordinates,Original*%
%TF.FileFunction,Drillmap*%
%TF.FilePolarity,Positive*%
%FSLAX45Y45*%
G04 Gerber Fmt 4.5, Leading zero omitted, Abs format (unit mm)*
G04 Created by KiCad (PCBNEW 10.0.0) date 2026-04-07 21:07:38*
%MOMM*%
%LPD*%
G01*
G04 APERTURE LIST*
%ADD10C,0.050000*%
%ADD11C,0.200000*%
G04 APERTURE END LIST*
D10*
X5700000Y-4000000D02*
X5700000Y-9100000D01*
X5700000Y-9100000D02*
X13400000Y-9100000D01*
X13400000Y-4000000D02*
X5700000Y-4000000D01*
X13400000Y-4000000D02*
X13400000Y-9100000D01*
D11*
X5958277Y-9413984D02*
X5958277Y-9213984D01*
X5958277Y-9213984D02*
X6005896Y-9213984D01*
X6005896Y-9213984D02*
X6034467Y-9223508D01*
X6034467Y-9223508D02*
X6053515Y-9242555D01*
X6053515Y-9242555D02*
X6063039Y-9261603D01*
X6063039Y-9261603D02*
X6072562Y-9299698D01*
X6072562Y-9299698D02*
X6072562Y-9328270D01*
X6072562Y-9328270D02*
X6063039Y-9366365D01*
X6063039Y-9366365D02*
X6053515Y-9385412D01*
X6053515Y-9385412D02*
X6034467Y-9404460D01*
X6034467Y-9404460D02*
X6005896Y-9413984D01*
X6005896Y-9413984D02*
X5958277Y-9413984D01*
X6158277Y-9413984D02*
X6158277Y-9280650D01*
X6158277Y-9318746D02*
X6167801Y-9299698D01*
X6167801Y-9299698D02*
X6177324Y-9290174D01*
X6177324Y-9290174D02*
X6196372Y-9280650D01*
X6196372Y-9280650D02*
X6215420Y-9280650D01*
X6282086Y-9413984D02*
X6282086Y-9280650D01*
X6282086Y-9213984D02*
X6272562Y-9223508D01*
X6272562Y-9223508D02*
X6282086Y-9233031D01*
X6282086Y-9233031D02*
X6291610Y-9223508D01*
X6291610Y-9223508D02*
X6282086Y-9213984D01*
X6282086Y-9213984D02*
X6282086Y-9233031D01*
X6405896Y-9413984D02*
X6386848Y-9404460D01*
X6386848Y-9404460D02*
X6377324Y-9385412D01*
X6377324Y-9385412D02*
X6377324Y-9213984D01*
X6510658Y-9413984D02*
X6491610Y-9404460D01*
X6491610Y-9404460D02*
X6482086Y-9385412D01*
X6482086Y-9385412D02*
X6482086Y-9213984D01*
X6739229Y-9413984D02*
X6739229Y-9213984D01*
X6739229Y-9213984D02*
X6805896Y-9356841D01*
X6805896Y-9356841D02*
X6872562Y-9213984D01*
X6872562Y-9213984D02*
X6872562Y-9413984D01*
X7053515Y-9413984D02*
X7053515Y-9309222D01*
X7053515Y-9309222D02*
X7043991Y-9290174D01*
X7043991Y-9290174D02*
X7024943Y-9280650D01*
X7024943Y-9280650D02*
X6986848Y-9280650D01*
X6986848Y-9280650D02*
X6967801Y-9290174D01*
X7053515Y-9404460D02*
X7034467Y-9413984D01*
X7034467Y-9413984D02*
X6986848Y-9413984D01*
X6986848Y-9413984D02*
X6967801Y-9404460D01*
X6967801Y-9404460D02*
X6958277Y-9385412D01*
X6958277Y-9385412D02*
X6958277Y-9366365D01*
X6958277Y-9366365D02*
X6967801Y-9347317D01*
X6967801Y-9347317D02*
X6986848Y-9337793D01*
X6986848Y-9337793D02*
X7034467Y-9337793D01*
X7034467Y-9337793D02*
X7053515Y-9328270D01*
X7148753Y-9280650D02*
X7148753Y-9480650D01*
X7148753Y-9290174D02*
X7167801Y-9280650D01*
X7167801Y-9280650D02*
X7205896Y-9280650D01*
X7205896Y-9280650D02*
X7224943Y-9290174D01*
X7224943Y-9290174D02*
X7234467Y-9299698D01*
X7234467Y-9299698D02*
X7243991Y-9318746D01*
X7243991Y-9318746D02*
X7243991Y-9375889D01*
X7243991Y-9375889D02*
X7234467Y-9394936D01*
X7234467Y-9394936D02*
X7224943Y-9404460D01*
X7224943Y-9404460D02*
X7205896Y-9413984D01*
X7205896Y-9413984D02*
X7167801Y-9413984D01*
X7167801Y-9413984D02*
X7148753Y-9404460D01*
X7329705Y-9394936D02*
X7339229Y-9404460D01*
X7339229Y-9404460D02*
X7329705Y-9413984D01*
X7329705Y-9413984D02*
X7320182Y-9404460D01*
X7320182Y-9404460D02*
X7329705Y-9394936D01*
X7329705Y-9394936D02*
X7329705Y-9413984D01*
X7329705Y-9290174D02*
X7339229Y-9299698D01*
X7339229Y-9299698D02*
X7329705Y-9309222D01*
X7329705Y-9309222D02*
X7320182Y-9299698D01*
X7320182Y-9299698D02*
X7329705Y-9290174D01*
X7329705Y-9290174D02*
X7329705Y-9309222D01*
M02*
