M48
; DRILL file KiCad 10.0.0 date 2026-04-07T21:07:38
; FORMAT={-:-/ absolute / metric / decimal}
; #@! TF.CreationDate,2026-04-07T21:07:38+03:00
; #@! TF.GenerationSoftware,Kicad,Pcbnew,10.0.0
; #@! TF.FileFunction,Plated,1,2,PTH
FMAT,2
METRIC
; #@! TA.AperFunction,Plated,PTH,ViaDrill
T1C0.300
; #@! TA.AperFunction,Plated,PTH,ComponentDrill
T2C0.800
; #@! TA.AperFunction,Plated,PTH,ComponentDrill
T3C0.900
; #@! TA.AperFunction,Plated,PTH,ComponentDrill
T4C1.000
; #@! TA.AperFunction,Plated,PTH,ComponentDrill
T5C1.100
%
G90
G05
T1
X84.0Y-72.6
X88.19Y-65.15
X120.85Y-71.75
X121.25Y-60.35
T2
X68.88Y-42.6
X71.42Y-42.6
X73.96Y-42.6
X75.0Y-75.5
X76.5Y-42.6
X77.54Y-75.5
X80.08Y-75.5
X82.62Y-75.5
X85.16Y-75.5
X113.09Y-46.41
X113.77Y-77.78
X113.77Y-82.78
X114.08Y-65.56
X114.08Y-70.56
X114.4Y-54.1
X114.4Y-59.1
X118.23Y-76.4
X118.23Y-84.02
X118.57Y-64.88
X118.57Y-72.5
X118.92Y-53.59
X118.92Y-61.21
X120.71Y-46.41
T3
X125.74Y-46.37
X128.28Y-46.37
T4
X92.0Y-47.48
X92.0Y-50.02
X92.0Y-52.56
X92.0Y-55.1
X92.0Y-57.64
X92.0Y-60.18
X92.0Y-62.72
X92.0Y-65.26
X92.0Y-67.8
X92.0Y-70.34
X92.0Y-72.88
X92.0Y-75.42
X92.0Y-77.96
X92.0Y-80.5
X92.0Y-83.04
X107.24Y-47.48
X107.24Y-50.02
X107.24Y-52.56
X107.24Y-55.1
X107.24Y-57.64
X107.24Y-60.18
X107.24Y-62.72
X107.24Y-65.26
X107.24Y-67.8
X107.24Y-70.34
X107.24Y-72.88
X107.24Y-75.42
X107.24Y-77.96
X107.24Y-80.5
X107.24Y-83.04
T5
X123.625Y-54.875
X123.625Y-59.375
X123.625Y-66.75
X123.625Y-71.25
X123.625Y-78.225
X123.625Y-82.725
X130.125Y-54.875
X130.125Y-59.375
X130.125Y-66.75
X130.125Y-71.25
X130.125Y-78.225
X130.125Y-82.725
M30
